<svg width="30" height="30" viewBox="0 0 30 30" fill="none" xmlns="http://www.w3.org/2000/svg">
<g clip-path="url(#clip0_61_85)">
<path d="M27.2466 5.80309C24.2876 3.79722 20.5038 4.9891 18.7938 8.46401L14.4834 17.2324C13.2362 19.7645 14.8419 20.6492 16.6323 21.9099L20.7799 24.721C22.1845 25.6724 23.9786 25.1077 24.7887 23.4604L29.2199 14.4491C30.7084 11.4211 29.8252 7.55121 27.2466 5.80309Z" fill="#EA4335"/>
<path d="M22.3692 9.4325L18.2216 6.62131C15.932 5.12874 14.6353 5.02993 13.6954 6.78452L7.57805 19.2254C5.86993 22.698 6.88665 27.1392 9.84387 29.1407C12.4225 30.8888 15.718 29.8516 17.2066 26.8236L23.441 14.1421C24.2548 12.4928 23.7738 10.3838 22.3692 9.4325Z" fill="#FBBC04"/>
<path d="M23.1676 3.03714L20.2543 1.06113C17.032 -1.12282 12.9117 0.172135 11.0518 3.95613L5.50511 15.2372C4.68585 16.9017 5.1723 19.0321 6.58968 19.992L9.85218 22.204C11.4633 23.2972 13.5225 22.6485 14.4534 20.7565L20.7901 7.86892C22.1032 5.19961 25.0092 4.28475 27.2823 5.82672L23.1676 3.037V3.03714Z" fill="#34A853"/>
<path d="M11.8398 7.18398L8.69063 5.05357C7.28614 4.1043 5.49212 4.66687 4.682 6.31205L0.903524 13.9788C-0.956242 17.7521 0.146493 22.5798 3.3688 24.7575L5.76634 26.3789L8.67423 28.346L9.9361 29.1985C7.69583 27.4376 6.98438 23.9091 8.35407 21.1301L9.33259 19.1457L12.9151 11.8762C13.7235 10.2354 13.2425 8.13311 11.8398 7.18384V7.18398Z" fill="#4285F4"/>
</g>
<defs>
<clipPath id="clip0_61_85">
<rect width="30" height="30" fill="white"/>
</clipPath>
</defs>
</svg>
