<svg width="121" height="87" viewBox="0 0 121 87" fill="none" xmlns="http://www.w3.org/2000/svg">
<g clip-path="url(#clip0_5_349)">
<path d="M65.3022 77.6485C87.167 77.6485 104.892 77.5971 104.892 77.5337C104.892 77.4702 87.167 77.4188 65.3022 77.4188C43.4374 77.4188 25.7125 77.4702 25.7125 77.5337C25.7125 77.5971 43.4374 77.6485 65.3022 77.6485Z" fill="#6C63FF" stroke="black" stroke-miterlimit="10"/>
<path d="M23.5572 72.6807C35.327 72.6807 44.8683 72.6292 44.8683 72.5658C44.8683 72.5024 35.327 72.4509 23.5572 72.4509C11.7874 72.4509 2.24606 72.5024 2.24606 72.5658C2.24606 72.6292 11.7874 72.6807 23.5572 72.6807Z" fill="#6C63FF" stroke="black" stroke-miterlimit="10"/>
<path d="M82.2498 69.4789C94.2994 69.4789 104.068 69.4275 104.068 69.364C104.068 69.3006 94.2994 69.2491 82.2498 69.2491C70.2001 69.2491 60.4319 69.3006 60.4319 69.364C60.4319 69.4275 70.2001 69.4789 82.2498 69.4789Z" fill="#6C63FF" stroke="black" stroke-miterlimit="10"/>
<path d="M68.002 65.796C72.6548 65.796 76.4266 65.7446 76.4266 65.6812C76.4266 65.6177 72.6548 65.5663 68.002 65.5663C63.3492 65.5663 59.5774 65.6177 59.5774 65.6812C59.5774 65.7446 63.3492 65.796 68.002 65.796Z" fill="#6C63FF" stroke="black" stroke-miterlimit="10"/>
<path d="M35.3622 64.1951C43.6905 64.1951 50.4419 64.1436 50.4419 64.0802C50.4419 64.0168 43.6905 63.9653 35.3622 63.9653C27.034 63.9653 20.2826 64.0168 20.2826 64.0802C20.2826 64.1436 27.034 64.1951 35.3622 64.1951Z" fill="#6C63FF" stroke="black" stroke-miterlimit="10"/>
<path d="M109.656 67.081C113.378 67.081 116.394 67.0296 116.394 66.9662C116.394 66.9027 113.378 66.8513 109.656 66.8513C105.935 66.8513 102.918 66.9027 102.918 66.9662C102.918 67.0296 105.935 67.081 109.656 67.081Z" fill="#6C63FF" stroke="black" stroke-miterlimit="10"/>
<path d="M55.7356 44.3881C55.7583 44.7758 55.8188 45.3573 55.9776 46.0465C56.3633 47.6761 56.9456 48.2289 57.1574 49.4063C57.3237 50.3108 57.1574 50.9929 56.8775 52.1128C56.2423 54.6685 55.4709 54.9629 54.518 57.454C54.329 57.9565 54.4802 57.6335 52.8543 63.2547C52.6804 63.8505 52.5669 64.6833 51.9014 65.4586C51.5914 65.8248 50.888 66.5068 49.8671 67.0165C49.3755 67.2606 49.0352 67.3539 48.6042 67.7488C48.158 68.158 47.742 68.761 47.8933 68.9333C48.0597 69.12 48.8991 68.8041 49.4512 68.5026C50.0108 68.1867 50.3662 67.8206 50.8351 67.9211C50.9032 67.9354 50.9788 67.957 51.0847 68.0216C51.4023 68.201 51.546 68.5456 52.1737 69.1918C53.5349 70.5917 55.1306 71.3526 55.2819 71.1875C55.4331 71.0296 54.3517 69.924 54.5785 69.6943C54.6769 69.601 54.8886 69.7733 55.1987 69.6512C55.4407 69.5507 55.4331 69.3928 55.7659 69.1702C56.023 68.9979 56.0608 69.0697 56.2499 68.9261C56.454 68.7682 56.5524 68.56 56.7339 68.1436C56.8927 67.7775 56.9759 67.5908 56.9607 67.4472C56.9229 67.1026 56.6129 66.9303 56.3104 66.6647C55.8415 66.2483 56.0305 66.1478 55.1533 64.6474C54.6466 63.7859 54.4575 63.5993 54.5029 63.226C54.5634 62.7019 55.0323 62.3573 55.1533 62.2568C56.7036 61.0363 58.9497 55.9392 59.653 54.166C60.3109 52.5148 61.5058 49.0401 61.0369 45.0055C60.9008 43.8497 60.6664 42.9092 59.9328 42.5575C58.927 42.0836 57.2935 42.8231 55.7356 44.3881Z" fill="#FFB6B6"/>
<path d="M47.2807 42.5288C47.1144 43.1892 46.8724 44.2087 46.6304 45.4578C46.0556 48.4084 46.1388 49.1981 45.7002 50.8493C45.375 52.0554 44.8078 53.1825 43.6734 55.3936C41.3517 59.9164 41.2988 60.6702 40.2249 61.5604C39.1737 62.4291 37.8805 63.025 37.0562 63.4126C36.2017 63.8075 34.7799 64.0229 33.8875 64.5685C33.706 64.6761 33.4943 64.8341 33.5245 64.9561C33.5548 65.0638 33.8573 64.9848 34.1749 65.15C34.3867 65.2648 34.4699 65.4156 34.5379 65.4946C34.9539 65.9684 36.5722 65.5663 37.8276 65.0351C38.6065 64.7049 39.446 64.4823 40.1795 64.0731C40.3384 63.987 40.5879 63.8362 40.8299 63.9223C41.2307 64.0587 41.1097 64.6833 41.6391 65.0782C41.6618 65.0925 42.1534 65.4515 42.5315 65.272C42.8718 65.1069 42.8945 64.6259 42.8945 64.5397C42.9172 64.0516 42.3878 63.9654 42.3651 63.4988C42.35 63.1542 42.6298 63.1255 42.6525 62.6875C42.6676 62.3573 42.5164 62.2712 42.5239 61.9337C42.5315 61.6394 42.6525 61.4097 42.7735 61.223C43.9986 59.2775 45.3296 57.8345 45.3296 57.8345C46.6001 56.4274 47.9462 54.9126 48.2487 52.8666C48.3622 52.12 48.3092 51.4882 48.2487 51.0934C48.5664 50.7129 49.005 50.1314 49.4285 49.356C49.61 49.0258 49.9427 48.3725 50.646 46.0824C50.82 45.5224 51.0469 44.7614 51.2964 43.8497C51.3115 43.7636 51.4855 42.5718 50.6839 41.9257C49.8671 41.2509 48.2941 41.3873 47.2807 42.5288Z" fill="#FFB6B6"/>
<path d="M37.5478 23.7986C37.5327 24.1648 37.5327 24.6529 37.5856 25.2273C37.6385 25.7154 37.7898 26.8569 38.3872 28.2353C39.2872 30.3172 40.5804 31.5089 40.9282 31.8176C41.987 32.7509 42.5466 32.8227 42.7584 32.8299C43.5449 32.873 44.4145 32.4709 44.9061 31.8607C45.3901 31.272 45.3599 30.6618 45.7002 30.6259C45.9573 30.5972 46.0254 30.9418 46.5472 31.3797C46.7211 31.5233 47.621 32.2771 48.6949 32.2412C49.0201 32.234 49.3377 32.1479 49.4285 32.2915C49.5268 32.4494 49.2319 32.672 49.315 32.9376C49.3831 33.1601 49.6932 33.2894 49.8822 33.3109C50.5099 33.3827 51.1074 32.4135 51.5838 31.6453C52.8316 29.5993 52.7862 28.1491 52.7711 27.8261C52.7484 27.4097 52.703 26.6774 52.3174 26.5339C51.9468 26.3975 51.6897 26.9718 50.8427 27.18C50.5099 27.2589 50.5629 27.1728 48.7025 27.0579C47.8555 27.0077 47.6815 27.0149 47.4547 27.0579C46.9026 27.1584 46.6606 27.3523 46.4791 27.2302C46.2371 27.0651 46.5396 26.6272 46.3127 26.0457C46.1615 25.6724 45.7834 25.2416 45.3523 25.2416C45.012 25.2345 44.7473 25.4929 44.5582 25.6724C44.2406 25.9811 44.3314 26.2539 44.1045 26.3687C43.7793 26.5339 43.2575 26.1821 43.144 26.1031C42.229 25.4785 42.3122 24.6817 41.6694 23.7412C41.0644 22.8438 39.7787 21.7813 38.7805 22.0757C37.941 22.3269 37.631 23.4684 37.5478 23.7986Z" fill="#FFB6B6"/>
<path d="M37.8881 28.4219C37.8503 28.4937 37.6764 28.8598 37.8352 29.2834C38.0015 29.7428 38.4629 30.0515 38.5687 29.9797C38.6519 29.9223 38.5536 29.5633 37.8881 28.4219Z" fill="#E0AF90"/>
<path d="M67.6995 47.5038C67.8659 48.2002 68.1381 48.7027 68.3499 49.0258C68.8339 49.7652 69.2952 49.9949 71.2614 51.7897C71.511 52.0194 71.5186 52.0266 71.6396 52.1343C72.3051 52.723 73.4394 53.5917 76.5249 55.5946C78.3097 56.7504 79.6936 57.6191 80.7826 58.2796C83.0892 59.6795 83.8606 59.8231 84.8664 60.9071C86.636 62.8167 86.6511 62.8311 86.6511 62.8311C87.1805 63.4629 87.5586 63.9726 88.3073 64.2597C88.5493 64.3531 88.9728 64.5038 89.5097 64.4536C90.4172 64.3602 90.4929 63.7859 91.3626 63.7357C91.8012 63.7141 92.081 63.8433 92.6255 63.6854C92.9053 63.6064 93.1397 63.5418 93.17 63.4054C93.2381 63.0608 91.8692 62.8598 90.4324 61.7183C89.54 61.0076 88.9123 60.2179 88.9123 60.2179C88.693 59.9379 88.5342 59.6867 88.1334 59.22C87.6116 58.6098 87.2788 58.3442 85.6982 56.3628C82.8321 52.7589 83.1951 52.7014 82.2876 52.1271C79.8449 50.5908 78.2265 50.2678 78.2265 50.2678C77.6215 50.1457 76.6913 50.038 76.3737 49.4134C76.109 48.8965 76.4569 48.4156 76.1241 47.9848C75.8367 47.6187 75.2922 47.59 74.7704 47.5541C71.7832 47.3602 72.2597 47.1161 70.6111 47.1736C69.8699 47.1951 68.8717 47.2741 67.6995 47.5038Z" fill="#FFB6B6"/>
<path d="M88.9123 50.7918C89.85 51.1867 91.2869 51.7682 93.0717 52.364C96.3387 53.4553 96.8983 53.3332 99.7418 54.1732C103.999 55.4223 107.327 57.1309 109.921 58.459C111.146 59.0836 112.144 59.6436 112.832 60.0313C112.923 59.8446 113.074 59.6149 113.332 59.5072C113.755 59.3277 114.126 59.6149 114.284 59.4569C114.481 59.2631 113.997 58.739 113.884 58.0283C113.861 57.8704 113.679 56.8222 114.232 56.413C114.39 56.291 114.526 56.291 114.534 56.2192C114.557 55.9679 112.885 55.6808 112.28 55.5515C110.617 55.2069 109.482 54.5608 107.214 53.2686C104.703 51.84 104.794 51.2154 101.194 48.8894C100.067 48.1571 99.3107 47.7335 98.2822 47.4105C96.4521 46.8362 94.7732 46.7931 94.7732 46.7931C94.5312 46.7859 94.0397 46.7859 93.3666 46.6998C92.7238 46.6208 92.202 46.4987 91.8617 46.4126C91.1054 47.31 90.334 48.3509 89.608 49.557C89.3585 49.9734 89.124 50.3826 88.9123 50.7918Z" fill="#FFB6B6"/>
<path d="M36.7764 24.9257C36.5269 25.299 35.9673 25.6436 35.6723 25.5144C35.2337 25.3206 35.2866 24.0211 35.7101 23.0161C36.0958 22.0828 36.7311 21.5731 37.8654 20.6972C39.0906 19.7568 40.4367 18.7158 41.7828 18.8092C42.592 18.8666 43.318 19.1896 43.318 19.1896C43.6583 19.3548 43.8247 19.6276 43.9986 19.5701C44.2255 19.4912 44.0894 19.0317 44.4524 18.601C44.5809 18.443 44.8532 18.2133 45.0196 18.2779C45.2767 18.3784 45.2011 19.1322 45.1935 19.2471C45.1406 19.7855 44.9515 20.0583 45.0801 20.166C45.2162 20.2737 45.4809 20.0009 45.8212 20.1086C46.0556 20.1804 46.2523 20.4173 46.222 20.5967C46.1766 20.8193 45.7607 20.8552 45.7683 20.9772C45.7758 21.1136 46.3354 21.0777 46.7892 21.3577C47.2127 21.6162 47.3715 22.0325 47.4698 22.2766C47.7194 22.9156 47.4774 23.1597 47.4698 24.6529C47.4623 25.457 47.5303 25.7872 47.6967 26.1103C47.9387 26.5841 48.3546 26.6415 48.3244 26.8641C48.2639 27.2661 47.0312 27.625 46.6228 27.2445C46.3506 26.9933 46.6531 26.62 46.3354 26.0026C46.2523 25.8303 46.0254 25.3852 45.5943 25.299C45.1784 25.2129 44.7095 25.5 44.4826 25.8159C44.286 26.0887 44.3465 26.2825 44.1272 26.4046C43.8928 26.541 43.5222 26.4979 43.3861 26.3256C43.2651 26.1677 43.3861 25.9595 43.2726 25.8949C43.197 25.8518 43.1063 25.9164 42.8491 26.0313C42.5693 26.1533 42.4332 26.2179 42.3651 26.2179C41.9492 26.2323 41.5559 25.6436 41.2837 25.2488C41.1551 25.0549 40.7014 24.3586 40.656 23.4181C40.6409 23.1309 40.6711 22.8366 40.5955 22.8222C40.5048 22.8079 40.4367 23.3104 40.0283 23.7412C39.6351 24.1432 39.1359 24.2652 39.0603 24.2796C38.7578 24.3442 38.0469 24.5955 37.4722 24.2796C37.2226 24.1432 37.0487 23.9278 36.9655 23.9781C36.905 24.0211 36.9958 24.1791 36.9806 24.4232C36.9579 24.6529 36.8445 24.8324 36.7764 24.9257Z" fill="#2F2E41"/>
<path d="M51.3343 35.0599C51.7048 34.3851 51.9393 34.2487 52.0829 34.2774C52.5972 34.3564 52.2191 36.2875 53.0585 38.7787C53.603 40.4011 54.0114 40.3222 54.4878 41.9949C54.9491 43.6245 54.5634 44.5722 55.2365 44.9957C55.5768 45.2039 56.2121 45.0747 57.4901 44.8091C58.5413 44.5937 59.3808 44.4071 60.3488 43.8543C60.8857 43.5456 61.2789 43.2225 61.5361 42.9928C61.6571 41.7221 61.4983 40.7745 61.3168 40.1427C61.1806 39.6402 60.9916 39.1951 60.9689 38.4915C60.9462 37.7952 61.0974 37.2136 61.2336 36.8403C62.0049 36.4383 63.1469 35.8783 64.5611 35.2825C67.639 33.9831 69.2196 33.3441 71.1026 33.5667C71.8438 33.6528 73.0386 33.9256 74.4074 34.8517C74.6268 34.6364 74.9595 34.3133 75.3679 33.9041C76.7216 32.5329 77.1904 31.9514 77.6442 31.4991C80.1398 28.9936 84.3975 27.967 84.9798 27.2563C85.0252 27.1989 85.2369 26.9189 85.6151 26.7825C85.7512 26.7322 85.8722 26.7179 85.9327 26.7179C84.9193 26.2082 83.5051 25.5405 81.7809 24.8585C81.4557 24.7293 78.8618 23.674 76.6686 23.1427C71.4959 21.8935 66.7996 22.5468 64.2586 22.9273C63.1847 23.0853 59.4639 23.6883 55.0096 25.4974C53.8904 25.9497 52.9753 26.3805 52.3023 26.7107C52.4535 26.9476 52.6501 27.3137 52.756 27.7804C52.8165 28.0604 52.9224 28.7065 52.1056 30.8458C51.5611 32.2816 51.2284 32.7267 50.7973 33.0642C50.5931 33.2221 50.1243 33.581 49.7083 33.459C49.3226 33.3441 49.2697 32.9206 49.0731 32.9206C48.7101 32.9278 48.4454 34.3636 48.3244 35.3471C48.0446 37.587 47.9084 38.7141 47.795 38.9869C46.8648 41.3488 46.5169 41.9159 46.5169 41.9159C46.3884 42.1169 46.1313 42.5262 46.2901 42.7702C46.4943 43.0861 47.2808 42.9497 47.5681 42.9138C48.6949 42.7702 49.1033 43.4666 51.9317 44.4142C52.1132 44.4717 52.4838 44.6368 52.6804 44.486C52.9148 44.3066 52.635 43.9189 52.7787 43.28C52.9073 42.6769 53.24 42.6267 53.2854 42.1313C53.3232 41.6934 53.0963 41.4134 52.8165 40.9252C52.7787 40.8534 52.5291 40.2073 52.03 38.9079C51.7426 38.1326 51.4174 36.9265 51.3343 35.0599Z" fill="#6C63FF"/>
<path d="M70.6489 46.4414C70.6413 46.4414 70.6489 46.3696 70.6791 46.2475C70.6942 46.1829 70.7169 46.104 70.7321 46.0178C70.7547 45.9245 70.7926 45.824 70.8304 45.7091C70.9816 45.2425 71.2539 44.5748 71.6925 43.8067C71.7228 43.7564 71.7454 43.7133 71.7757 43.6631C71.8059 43.6128 71.8362 43.5626 71.8664 43.5195C71.9269 43.419 71.9874 43.3185 72.0555 43.218C72.1916 43.017 72.3278 42.8016 72.4866 42.5934C72.7966 42.1698 73.1369 41.7247 73.5226 41.2796C73.9083 40.8345 74.3243 40.3751 74.7704 39.9084C75.2166 39.4418 75.6855 38.968 76.1619 38.487C77.1148 37.5178 78.0072 36.5773 78.7256 35.6584C79.0886 35.199 79.4062 34.7467 79.6861 34.3159C79.8222 34.0934 79.9583 33.8852 80.0642 33.677C80.1852 33.4688 80.2911 33.2678 80.3818 33.0668C80.7524 32.2771 80.8507 31.5735 80.7751 31.0997C80.7448 30.8628 80.6767 30.6833 80.6314 30.5685C80.5784 30.4536 80.5558 30.389 80.5633 30.3818C80.5709 30.3746 80.6087 30.4321 80.6768 30.5469C80.7373 30.6618 80.8204 30.8413 80.8658 31.0854C80.9112 31.3295 80.9263 31.6382 80.8734 31.9899C80.8507 32.1622 80.8053 32.3489 80.7524 32.5427C80.6919 32.7366 80.6238 32.9304 80.5331 33.1386C80.4423 33.3396 80.344 33.555 80.223 33.7632C80.1171 33.9785 79.981 34.1939 79.8524 34.4165C79.5802 34.8616 79.255 35.321 78.8996 35.7877C78.1811 36.7209 77.2888 37.6757 76.3359 38.6449C75.8594 39.1331 75.3906 39.6069 74.9444 40.0664C74.4982 40.5258 74.0823 40.9781 73.6966 41.4232C73.3109 41.8611 72.963 42.2991 72.6529 42.7083C72.4941 42.9165 72.358 43.1175 72.2143 43.3185C72.1463 43.419 72.0857 43.5195 72.0177 43.6128C71.9874 43.6631 71.9572 43.7061 71.9269 43.7564C71.8967 43.8067 71.8664 43.8497 71.8438 43.9C71.3824 44.6466 71.0951 45.2927 70.9211 45.7522C70.8757 45.867 70.8304 45.9676 70.8077 46.0537C70.7774 46.1398 70.7472 46.2188 70.7321 46.2762C70.6867 46.3839 70.6564 46.4485 70.6489 46.4414Z" fill="#6C63FF" stroke="#FF4F03" stroke-miterlimit="10"/>
<path d="M72.7512 47.4679C72.7437 47.4679 72.7512 47.389 72.7739 47.2526C72.7966 47.109 72.842 46.908 72.9025 46.6423C72.9706 46.3839 73.0613 46.0608 73.1974 45.6947C73.326 45.3286 73.4999 44.9265 73.7192 44.4886C74.1503 43.6128 74.778 42.6149 75.5796 41.5883C76.3813 40.5617 77.3492 39.4992 78.3853 38.408C78.8996 37.8624 79.4063 37.3311 79.8903 36.807C80.3667 36.283 80.8204 35.7804 81.2137 35.2707C81.6069 34.761 81.9397 34.2513 82.1893 33.7488C82.4388 33.2462 82.6052 32.7437 82.6884 32.277C82.7791 31.8104 82.7791 31.3797 82.7489 30.9992C82.7111 30.6259 82.6279 30.3028 82.5371 30.0587C82.522 30.03 82.5144 29.9941 82.5069 29.9654C82.4917 29.9367 82.4842 29.908 82.4691 29.8792C82.4464 29.8218 82.4237 29.7716 82.401 29.7285C82.3556 29.6352 82.3178 29.5562 82.28 29.4988C82.2044 29.3767 82.1741 29.3121 82.1741 29.3049C82.1817 29.2977 82.2271 29.3552 82.3178 29.4772C82.3632 29.5346 82.4086 29.6136 82.4615 29.7069C82.4918 29.75 82.5144 29.8075 82.5371 29.8577L82.5825 29.9439C82.5976 29.9726 82.6052 30.0013 82.6203 30.0372C82.7262 30.2884 82.8321 30.6115 82.8774 30.9992C82.9304 31.3868 82.9379 31.8319 82.8547 32.3129C82.7791 32.7939 82.6203 33.318 82.3632 33.8421C82.1136 34.3662 81.7809 34.8902 81.3801 35.4143C80.9868 35.9384 80.5331 36.4481 80.0491 36.9793C79.5726 37.5034 79.0659 38.0418 78.5441 38.5874C77.5081 39.6787 76.5401 40.7268 75.7309 41.7462C74.9293 42.7585 74.294 43.7348 73.8403 44.5891C73.6134 45.0199 73.4319 45.4147 73.2882 45.7737C73.1445 46.1254 73.0386 46.4413 72.9554 46.6998C72.8798 46.9582 72.8193 47.1592 72.7815 47.2956C72.7815 47.3961 72.7588 47.4679 72.7512 47.4679Z" fill="#6C63FF" stroke="#FF4F03" stroke-miterlimit="10"/>
<path d="M83.49 67.8278C84.3219 66.7725 85.1991 66.0905 85.8041 65.6884C86.4545 65.2505 87.1881 64.7623 88.2771 64.5182C89.0031 64.3531 89.4341 64.6187 90.2131 64.3172C90.75 64.109 90.8256 63.9152 91.3247 63.8434C91.8692 63.7644 92.1415 63.9439 92.6331 63.7573C93.0187 63.6065 93.0414 63.4127 93.2229 63.4486C93.6086 63.5204 93.6162 64.267 94.138 65.3367C94.3346 65.7459 94.5388 66.0546 94.6749 66.2556C93.4725 66.514 92.2171 66.7581 90.9164 66.9663C88.2846 67.3899 85.8041 67.6627 83.49 67.8278Z" fill="#FF4F03"/>
<path d="M114.156 57.2099C113.921 57.8919 113.959 58.4017 114.042 58.7462C114.141 59.1483 114.322 59.3852 114.209 59.7011C114.088 60.0313 113.778 60.0816 113.483 60.34C112.991 60.7636 113.09 61.2948 112.87 62.4076C112.621 63.6567 112.492 64.2813 112.091 64.7408C111.585 65.3151 111.207 65.1715 110.08 66.0114C109.399 66.5212 108.87 66.916 108.961 67.1745C109.15 67.7129 111.789 67.3252 113.316 66.9591C114.39 66.7078 114.935 66.5714 115.328 66.1622C116.024 65.4443 115.608 64.8054 116.281 63.2475C116.583 62.5368 116.977 61.9625 117.506 61.1799C118.134 60.261 118.504 59.9308 118.625 59.2201C118.678 58.8898 118.784 58.2365 118.398 57.734C118.051 57.2889 117.582 57.3176 116.22 56.7289C115.835 56.5638 115.532 56.4059 115.328 56.3054C115.071 56.0756 114.708 56.011 114.436 56.1474C114.08 56.3269 113.921 56.8079 114.156 57.2099Z" fill="#FF4F03"/>
<path d="M42.1383 32.6288C42.1383 32.636 42.1004 32.6288 42.0324 32.6073C41.9946 32.6001 41.9568 32.5858 41.9038 32.5642C41.8509 32.5499 41.7979 32.5283 41.7374 32.4996C41.4879 32.3991 41.14 32.2196 40.7392 31.954C40.6333 31.8894 40.5426 31.8104 40.4291 31.7386C40.3233 31.6597 40.2174 31.5735 40.1115 31.4874C39.8998 31.3007 39.6804 31.0997 39.4687 30.87C39.0376 30.4105 38.6293 29.8505 38.2814 29.226C37.9411 28.6014 37.6839 27.9696 37.5024 27.381C37.3209 26.7923 37.1999 26.2538 37.1243 25.8016C37.0487 25.3493 37.0033 24.976 36.9882 24.7175C36.9655 24.4591 36.9731 24.3155 36.9882 24.3155C37.026 24.3083 37.1016 24.8755 37.2983 25.7657C37.3966 26.2108 37.5327 26.742 37.7218 27.3092C37.9108 27.8835 38.1679 28.4937 38.5007 29.1111C38.841 29.7213 39.2343 30.2669 39.6426 30.7192C39.8468 30.9489 40.051 31.15 40.2552 31.3366C40.3611 31.4299 40.4594 31.5161 40.5577 31.5951C40.656 31.674 40.7543 31.753 40.8451 31.8176C41.2232 32.0904 41.5484 32.2914 41.7828 32.4135C41.8433 32.4494 41.8887 32.4709 41.9416 32.4996C41.987 32.5212 42.0248 32.5427 42.0551 32.5642C42.1156 32.6001 42.1458 32.6217 42.1383 32.6288Z" fill="black" stroke="black" stroke-miterlimit="10"/>
<path d="M44.5658 32.0401C44.5431 32.0114 44.6868 31.8965 44.8759 31.6883C44.8986 31.6596 44.9212 31.6381 44.9515 31.6094C44.9742 31.5806 45.0044 31.5519 45.0271 31.516C45.0801 31.4514 45.133 31.3796 45.1859 31.3078C45.2842 31.1571 45.3901 30.9848 45.4733 30.7909C45.5565 30.5971 45.617 30.4105 45.6548 30.231C45.6699 30.1448 45.6926 30.0587 45.7002 29.9797C45.7077 29.9366 45.7153 29.9007 45.7153 29.8648C45.7153 29.829 45.7229 29.7931 45.7229 29.7572C45.738 29.4844 45.7229 29.3049 45.7607 29.2977C45.7909 29.2905 45.8666 29.4628 45.8968 29.7572C45.8968 29.7931 45.9044 29.829 45.9044 29.872V29.9941C45.9044 30.0802 45.8892 30.1735 45.8817 30.2669C45.8514 30.4607 45.7909 30.6689 45.7077 30.8771C45.617 31.0853 45.496 31.2719 45.375 31.4299C45.3145 31.5088 45.254 31.5806 45.1859 31.6381C45.1557 31.6668 45.1254 31.7027 45.0952 31.7242C45.0649 31.7529 45.0347 31.7745 45.0044 31.8032C44.7549 31.997 44.5809 32.0616 44.5658 32.0401Z" fill="black" stroke="black" stroke-miterlimit="10"/>
<path d="M45.2011 28.9962C45.1935 28.9819 45.2767 28.946 45.4128 28.8814C45.5489 28.8167 45.7456 28.7091 45.9346 28.5368C46.0329 28.4506 46.1237 28.3429 46.1993 28.2209C46.2749 28.0917 46.3354 27.9481 46.3657 27.7901C46.4337 27.4671 46.3959 27.0938 46.3127 26.7061C46.222 26.3184 46.1237 25.9451 45.9195 25.6867C45.8212 25.5575 45.6926 25.4641 45.5641 25.4067C45.4355 25.3493 45.2918 25.3421 45.1708 25.3564C45.0498 25.378 44.9364 25.4211 44.8456 25.4641C44.7549 25.5144 44.6792 25.5646 44.6187 25.6077C44.4977 25.701 44.4448 25.7585 44.4297 25.7513C44.4146 25.7441 44.4524 25.6651 44.5582 25.5431C44.6112 25.4857 44.6792 25.4139 44.7776 25.3493C44.8759 25.2847 44.9969 25.22 45.1406 25.1841C45.2918 25.1483 45.4733 25.1483 45.6472 25.2129C45.8212 25.2775 45.98 25.3923 46.1086 25.5431C46.2371 25.6939 46.3279 25.8733 46.3959 26.06C46.464 26.2466 46.5169 26.4405 46.5623 26.6415C46.6531 27.0435 46.6909 27.4527 46.6001 27.8189C46.5547 27.9983 46.4791 28.1706 46.3884 28.307C46.2901 28.4434 46.1766 28.5583 46.0632 28.6445C45.8363 28.8239 45.617 28.9101 45.4582 28.9531C45.2994 29.0106 45.2086 29.0106 45.2011 28.9962Z" fill="black" stroke="black" stroke-miterlimit="10"/>
<path d="M44.4599 28.0415C44.4297 28.0415 44.3767 27.9266 44.3692 27.7256C44.3616 27.6251 44.3692 27.503 44.3994 27.3666C44.4297 27.2374 44.4675 27.0938 44.5356 26.9502C44.6036 26.8067 44.6868 26.6774 44.77 26.5697C44.8532 26.4621 44.9439 26.3759 45.0271 26.3113C45.1935 26.1821 45.3145 26.1318 45.3372 26.1605C45.3599 26.1893 45.2767 26.2826 45.1557 26.4262C45.0952 26.498 45.0271 26.5913 44.9591 26.6918C44.891 26.7995 44.8229 26.9143 44.7624 27.0436C44.7019 27.1728 44.6566 27.302 44.6263 27.4169C44.5961 27.5317 44.5658 27.6394 44.5507 27.7328C44.5129 27.9122 44.4977 28.0343 44.4599 28.0415Z" fill="black" stroke="black" stroke-miterlimit="10"/>
<path d="M45.6775 27.6465C45.6472 27.6609 45.5867 27.6106 45.496 27.546C45.4052 27.4814 45.2767 27.4024 45.1254 27.3665C45.0574 27.3522 44.9817 27.3522 44.9137 27.3594C44.8456 27.3665 44.7927 27.3881 44.7473 27.4096C44.6641 27.4527 44.6263 27.5173 44.5885 27.5101C44.5733 27.5101 44.5582 27.4886 44.5582 27.4455C44.5582 27.4024 44.5809 27.345 44.6263 27.2876C44.7246 27.1727 44.9439 27.0937 45.1708 27.1368C45.3901 27.1871 45.5489 27.3235 45.617 27.4311C45.7002 27.546 45.7077 27.6322 45.6775 27.6465Z" fill="black" stroke="black" stroke-miterlimit="10"/>
<path d="M43.2878 25.7656C43.3029 25.78 43.2575 25.8374 43.1668 25.9308C43.076 26.0241 42.9248 26.1533 42.6828 26.2466C42.5618 26.2897 42.4181 26.3184 42.2593 26.3041C42.1004 26.2897 41.9416 26.2323 41.7979 26.139C41.6543 26.0456 41.5333 25.9308 41.4198 25.7944C41.3064 25.6651 41.2081 25.5216 41.1173 25.3636C40.7392 24.7534 40.5955 24.1145 40.5728 23.655C40.5501 23.1955 40.6182 22.9156 40.6484 22.9227C40.6863 22.9227 40.6787 23.2027 40.7468 23.6406C40.8148 24.0714 40.9812 24.6673 41.3291 25.2488C41.4198 25.3923 41.5106 25.5287 41.6089 25.6508C41.7072 25.7728 41.8131 25.8805 41.9265 25.9595C42.0399 26.0385 42.1609 26.0887 42.2819 26.1102C42.4029 26.1318 42.5164 26.1174 42.6222 26.0887C42.834 26.0313 42.9853 25.9308 43.0987 25.859C43.2121 25.7944 43.2802 25.7513 43.2878 25.7656Z" fill="black" stroke="black" stroke-miterlimit="10"/>
<path d="M44.1272 26.1246C44.1423 26.1318 44.1499 26.1533 44.1499 26.1964C44.1499 26.2395 44.1272 26.2969 44.0742 26.3543C44.0289 26.4118 43.9532 26.4764 43.8474 26.5123C43.7491 26.5482 43.6205 26.5625 43.4919 26.5266C43.3634 26.4907 43.2651 26.4046 43.2046 26.3184C43.1441 26.2323 43.1138 26.1389 43.1138 26.0672C43.1138 25.9882 43.1289 25.9308 43.1516 25.8949C43.1743 25.859 43.197 25.8446 43.2121 25.8446C43.2499 25.8518 43.2424 25.9308 43.2877 26.0313C43.3256 26.1318 43.4239 26.2538 43.5676 26.2969C43.7037 26.34 43.8625 26.2825 43.9532 26.2251C44.044 26.182 44.0894 26.1174 44.1272 26.1246Z" fill="black" stroke="black" stroke-miterlimit="10"/>
<path d="M48.3546 26.6415C48.3546 26.6559 48.2487 26.6774 48.0748 26.6056C47.9916 26.5697 47.8933 26.5051 47.8026 26.4118C47.7118 26.3185 47.6362 26.1892 47.5757 26.0457C47.5227 25.9021 47.4849 25.7298 47.4547 25.5575C47.4244 25.3852 47.4093 25.1913 47.3942 24.9975C47.3866 24.7965 47.3866 24.5883 47.4017 24.3729C47.4169 24.1576 47.4471 23.935 47.4698 23.7125C47.5227 23.2674 47.5606 22.8438 47.4849 22.4777C47.4244 22.1115 47.2581 21.8028 47.0539 21.609C46.8497 21.408 46.6228 21.3147 46.464 21.2716C46.3052 21.2285 46.2069 21.2357 46.1993 21.2141C46.1993 21.1998 46.2976 21.1639 46.4791 21.1783C46.6606 21.1926 46.9253 21.2716 47.1749 21.487C47.2959 21.5875 47.4169 21.7239 47.5076 21.889C47.5984 22.0541 47.6664 22.2408 47.7118 22.4418C47.7572 22.6428 47.7723 22.8582 47.7723 23.0735C47.7723 23.2889 47.7496 23.5186 47.7194 23.7412C47.6891 23.9637 47.6589 24.1863 47.6437 24.3945C47.6286 24.6027 47.6211 24.8037 47.6211 24.9975C47.6211 25.1913 47.6362 25.3708 47.6513 25.5431C47.6664 25.7154 47.6967 25.8662 47.7345 26.0026C47.7723 26.139 47.8328 26.2538 47.9009 26.34C47.9689 26.4261 48.0446 26.4908 48.1126 26.5338C48.2563 26.6056 48.3546 26.62 48.3546 26.6415Z" fill="black" stroke="black" stroke-miterlimit="10"/>
<path d="M48.6723 22.8941C48.6344 22.8941 48.6193 22.7289 48.5664 22.4705C48.5513 22.4059 48.5361 22.3341 48.521 22.2623C48.5059 22.1905 48.4756 22.1115 48.4529 22.0254C48.4 21.8603 48.3319 21.688 48.2412 21.5085C48.1504 21.329 48.0521 21.1711 47.9463 21.0275C47.8933 20.9557 47.8479 20.8911 47.795 20.8337C47.7496 20.7691 47.6967 20.7188 47.6513 20.6685C47.4698 20.4747 47.3488 20.3598 47.3639 20.3311C47.3791 20.3096 47.5454 20.3742 47.7723 20.5537C47.8253 20.5968 47.8858 20.647 47.9463 20.7116C48.0068 20.7691 48.0673 20.8337 48.1278 20.9055C48.2488 21.049 48.3622 21.2213 48.4605 21.408C48.5588 21.6018 48.6269 21.7885 48.6723 21.968C48.6949 22.0541 48.7101 22.1403 48.7176 22.2264C48.7328 22.3054 48.7328 22.3843 48.7403 22.449C48.7479 22.7289 48.7025 22.8941 48.6723 22.8941Z" fill="black" stroke="black" stroke-miterlimit="10"/>
<path d="M49.7461 32.2053C49.7461 32.234 49.5041 32.2915 49.1033 32.2986H48.9445C48.8916 32.2986 48.8311 32.2915 48.7706 32.2843C48.6496 32.2771 48.5286 32.2556 48.3924 32.2412C48.1277 32.1909 47.8479 32.1192 47.5606 32.0187C47.2732 31.911 47.0161 31.7746 46.7892 31.6453C46.6757 31.5735 46.5699 31.5089 46.4791 31.4371C46.4337 31.4013 46.3884 31.3725 46.343 31.3366C46.3052 31.3007 46.2598 31.2649 46.2296 31.2361C45.9346 30.9705 45.7985 30.7695 45.8212 30.7551C45.8514 30.7336 46.0254 30.8915 46.3354 31.1141C46.3732 31.1428 46.4186 31.1715 46.4564 31.2002L46.5926 31.2864C46.6833 31.351 46.7892 31.4084 46.9026 31.4659C47.1219 31.5879 47.3715 31.7028 47.6437 31.8105C47.916 31.911 48.1882 31.9828 48.4378 32.0402C48.5588 32.0617 48.6798 32.0904 48.7932 32.1048C48.8462 32.112 48.9067 32.1263 48.9521 32.1263C49.005 32.1335 49.0579 32.1407 49.1033 32.1407C49.5041 32.1694 49.7461 32.1694 49.7461 32.2053Z" fill="black" stroke="black" stroke-miterlimit="10"/>
<path d="M52.7333 27.4456C52.756 27.4456 52.8089 27.8978 52.7182 28.6229C52.6728 28.9891 52.5972 29.4198 52.461 29.8864C52.3249 30.3531 52.1283 30.8556 51.8712 31.3581C51.614 31.8607 51.3191 32.313 51.009 32.7078C50.8578 32.9016 50.6839 33.0883 50.4721 33.2103C50.3662 33.2678 50.2528 33.3108 50.1394 33.3324C50.0259 33.3539 49.9049 33.3467 49.8066 33.3252C49.6024 33.2678 49.4436 33.1601 49.3377 33.038C49.2319 32.916 49.1789 32.794 49.1487 32.6863C49.1335 32.636 49.1335 32.5858 49.1335 32.5427C49.1335 32.4996 49.1411 32.4637 49.1411 32.4422C49.1562 32.3847 49.1714 32.3632 49.1789 32.3632C49.2016 32.3632 49.1714 32.4781 49.247 32.6647C49.2848 32.7509 49.3453 32.8586 49.4436 32.9519C49.5419 33.0452 49.678 33.1314 49.8444 33.1601C49.9276 33.1744 50.0108 33.1744 50.1015 33.1529C50.1923 33.1314 50.283 33.0955 50.3662 33.038C50.5326 32.9304 50.6839 32.7652 50.8275 32.5714C51.1149 32.1837 51.4023 31.7386 51.6519 31.2505C51.9014 30.7623 52.098 30.2741 52.2417 29.8218C52.3854 29.3695 52.4837 28.9532 52.5518 28.6014C52.6804 27.8978 52.6879 27.4456 52.7333 27.4456Z" fill="black" stroke="black" stroke-miterlimit="10"/>
<path d="M48.2185 27.0076C48.2336 27.0363 48.1958 27.0937 48.1051 27.1655C48.0143 27.2301 47.8706 27.3163 47.6816 27.3378C47.4774 27.3594 47.3034 27.2804 47.2127 27.1871C47.1673 27.1368 47.1446 27.0937 47.1446 27.0578C47.1371 27.0219 47.1446 27.0004 47.1598 26.9932C47.19 26.9789 47.2429 27.0219 47.3261 27.0578C47.4018 27.0937 47.5303 27.1225 47.6589 27.1081C47.795 27.0937 47.9236 27.0507 48.0294 27.0219C48.1278 26.986 48.1958 26.9789 48.2185 27.0076Z" fill="black" stroke="black" stroke-miterlimit="10"/>
<path d="M40.4443 23.0663C40.4594 23.0735 40.4291 23.1381 40.3611 23.2458C40.293 23.3534 40.1871 23.5042 40.0359 23.6765C39.8846 23.8488 39.688 24.0498 39.4233 24.2221C39.1586 24.3944 38.8259 24.5452 38.4478 24.5882C38.0621 24.6313 37.6915 24.538 37.4117 24.3585C37.268 24.2724 37.1546 24.1575 37.0714 24.0426C36.9882 23.9278 36.9277 23.8057 36.8974 23.6909C36.8294 23.4611 36.8369 23.2745 36.8445 23.1452C36.8596 23.016 36.8899 22.9514 36.905 22.9514C36.9201 22.9514 36.9277 23.0232 36.9428 23.1452C36.9579 23.2673 36.9806 23.4396 37.0638 23.6334C37.1016 23.7268 37.1621 23.8273 37.2378 23.9206C37.3134 24.0139 37.4117 24.1001 37.5403 24.1647C37.7823 24.3011 38.0999 24.38 38.4251 24.3442C38.7578 24.3083 39.0528 24.1862 39.3023 24.0355C39.5519 23.8847 39.7485 23.7124 39.9149 23.5545C40.0737 23.3965 40.2023 23.2673 40.293 23.174C40.3762 23.1022 40.4291 23.0519 40.4443 23.0663Z" fill="black" stroke="black" stroke-miterlimit="10"/>
<path d="M36.7084 24.9616C36.7159 24.976 36.6554 25.0478 36.5269 25.1627C36.3983 25.2775 36.1866 25.4355 35.9067 25.5862C35.7631 25.658 35.6042 25.7442 35.3925 25.7801C35.2866 25.7944 35.1732 25.7944 35.0597 25.7585C34.9463 25.7226 34.8404 25.658 34.7572 25.5719C34.5984 25.3996 34.5152 25.1698 34.485 24.9473C34.4472 24.7176 34.4547 24.4806 34.5001 24.2437C34.5909 23.7699 34.8102 23.3535 35.0446 23.0161C35.2866 22.6787 35.5362 22.4059 35.7479 22.1833C36.179 21.7311 36.4739 21.487 36.4966 21.5085C36.5193 21.5301 36.2697 21.8172 35.8841 22.291C35.6874 22.5279 35.4606 22.8079 35.2412 23.1382C35.0219 23.4684 34.8253 23.8561 34.7497 24.2868C34.7119 24.5022 34.7043 24.7176 34.727 24.9186C34.7497 25.1196 34.8177 25.3062 34.9312 25.4355C34.9841 25.5001 35.0522 25.5431 35.1278 25.5719C35.2034 25.6006 35.2866 25.6006 35.3622 25.5934C35.5286 25.579 35.6799 25.5144 35.816 25.4498C36.0958 25.3206 36.3076 25.1914 36.4588 25.098C36.6176 24.9975 36.7008 24.9473 36.7084 24.9616Z" fill="black" stroke="black" stroke-miterlimit="10"/>
<path d="M44.0818 19.5702C44.0743 19.5845 43.9684 19.5702 43.7944 19.4912C43.7112 19.4553 43.6054 19.3979 43.4919 19.3333C43.3785 19.2687 43.2499 19.1897 43.1138 19.1107C42.9701 19.0317 42.8189 18.96 42.6374 18.9241C42.4559 18.881 42.2592 18.8666 42.0475 18.8738C41.8357 18.881 41.6164 18.9169 41.3896 18.9743C41.1627 19.0246 40.9358 19.1035 40.7014 19.1969C40.2401 19.3835 39.8241 19.6061 39.446 19.8143C39.0679 20.0225 38.72 20.2163 38.4175 20.3599C38.1226 20.5106 37.8654 20.604 37.6915 20.6686C37.51 20.726 37.4117 20.7475 37.4041 20.7332C37.3966 20.7188 37.4873 20.6686 37.6537 20.5896C37.8201 20.5034 38.0545 20.3886 38.3343 20.2235C38.6217 20.0655 38.9544 19.8573 39.325 19.6348C39.7031 19.4122 40.1266 19.1753 40.6031 18.9815C40.8451 18.8882 41.0871 18.8092 41.3291 18.7518C41.5711 18.6943 41.8055 18.6584 42.0399 18.6584C42.2668 18.6513 42.4937 18.68 42.6903 18.7374C42.8869 18.7948 43.0609 18.881 43.2046 18.9743C43.3482 19.0676 43.4692 19.1538 43.5676 19.2328C43.6734 19.3117 43.7642 19.3692 43.8398 19.4194C43.9986 19.5127 44.0894 19.5486 44.0818 19.5702Z" fill="black" stroke="black" stroke-miterlimit="10"/>
<path d="M44.9288 20.1588C44.891 20.1516 44.9288 19.965 44.9818 19.6706C45.012 19.5271 45.0423 19.3548 45.0574 19.1681C45.0649 19.0748 45.0649 18.9743 45.0574 18.8738C45.0574 18.8235 45.0498 18.7733 45.0423 18.723C45.0347 18.6727 45.0271 18.6153 45.012 18.5794C44.9969 18.5363 44.9742 18.5004 44.9591 18.4861C44.9439 18.4717 44.9364 18.4717 44.9061 18.4717C44.8759 18.4789 44.8381 18.4933 44.8003 18.522C44.7624 18.5435 44.7246 18.5722 44.6868 18.601C44.5507 18.7158 44.4675 18.8666 44.4221 18.9958C44.3314 19.2614 44.3768 19.4409 44.3389 19.4553C44.3314 19.4553 44.3163 19.4481 44.3087 19.4265C44.2936 19.405 44.2784 19.3763 44.2633 19.3332C44.2406 19.2471 44.2179 19.1178 44.2482 18.9527C44.2784 18.7948 44.3616 18.6081 44.528 18.4502C44.5658 18.4071 44.6112 18.3712 44.6641 18.3425C44.7171 18.3066 44.77 18.2707 44.8532 18.2564C44.891 18.2492 44.9439 18.2492 44.9893 18.2564C45.0347 18.2707 45.0801 18.2923 45.1179 18.321C45.1859 18.3856 45.2162 18.4502 45.2389 18.5148C45.2616 18.5794 45.2691 18.6369 45.2767 18.7015C45.2843 18.7589 45.2918 18.8163 45.2918 18.8738C45.2918 18.9886 45.2918 19.0963 45.2767 19.1968C45.2464 19.3978 45.2011 19.5773 45.1481 19.7209C45.0498 20.0009 44.9591 20.166 44.9288 20.1588Z" fill="black" stroke="black" stroke-miterlimit="10"/>
<path d="M45.617 20.9126C45.6094 20.8767 45.7153 20.8336 45.8363 20.7331C45.8968 20.6829 45.9573 20.6039 46.0027 20.5249C46.0102 20.5034 46.0178 20.489 46.0178 20.4747C46.0178 20.4603 46.0178 20.4603 46.0102 20.446C46.0027 20.4244 45.9573 20.3742 45.9195 20.3383C45.8363 20.2665 45.7304 20.2306 45.6245 20.2091C45.5187 20.1947 45.4279 20.1947 45.3447 20.2091C45.1859 20.2378 45.0876 20.3024 45.0649 20.2809C45.0498 20.2737 45.0649 20.2378 45.0952 20.1947C45.133 20.1516 45.1935 20.0942 45.2918 20.0583C45.3901 20.0152 45.5111 19.9937 45.6548 20.0009C45.7909 20.0152 45.9497 20.0583 46.0859 20.166C46.1464 20.2234 46.2069 20.2737 46.2447 20.367C46.2598 20.4101 46.2674 20.4747 46.2522 20.5178C46.2447 20.568 46.222 20.6039 46.1993 20.6326C46.1237 20.7475 46.0254 20.8265 45.9346 20.8767C45.8439 20.927 45.7607 20.9413 45.7077 20.9485C45.6548 20.9413 45.617 20.927 45.617 20.9126Z" fill="black" stroke="black" stroke-miterlimit="10"/>
<path d="M38.7654 27.3522C38.7427 27.3737 38.6671 27.345 38.5763 27.266C38.4856 27.187 38.3872 27.065 38.3041 26.9071C38.2209 26.7491 38.1755 26.5984 38.1679 26.4835C38.1528 26.3686 38.1755 26.2968 38.2057 26.2897C38.2738 26.2753 38.3797 26.5194 38.5309 26.7994C38.6746 27.0865 38.8183 27.3091 38.7654 27.3522Z" fill="black" stroke="black" stroke-miterlimit="10"/>
<path d="M38.5007 25.5719C38.5385 25.6293 38.3419 25.816 38.1679 26.0816C37.9864 26.3472 37.9033 26.5985 37.8276 26.5841C37.7974 26.5769 37.7747 26.5051 37.7898 26.3831C37.8049 26.2682 37.8579 26.1031 37.9562 25.9524C38.0621 25.8016 38.1906 25.6867 38.2965 25.6221C38.4024 25.5647 38.4856 25.5432 38.5007 25.5719Z" fill="black" stroke="black" stroke-miterlimit="10"/>
<path d="M40.6484 28.7665C40.6787 28.7665 40.7089 28.9244 40.6862 29.1757C40.6636 29.427 40.5728 29.7787 40.3837 30.1233C40.2854 30.2956 40.1796 30.4536 40.0434 30.5828C39.9754 30.6474 39.8922 30.6976 39.8166 30.7335C39.7334 30.7694 39.6502 30.7838 39.5746 30.7838C39.4233 30.7838 39.3023 30.7192 39.2494 30.6617C39.1889 30.6043 39.1889 30.5541 39.204 30.5469C39.2191 30.5397 39.2494 30.5612 39.3099 30.59C39.3704 30.6115 39.4611 30.633 39.567 30.6187C39.6199 30.6115 39.6804 30.59 39.7334 30.5612C39.7863 30.5325 39.8392 30.4895 39.8922 30.432C39.9981 30.3243 40.0888 30.1736 40.1796 30.0156C40.3611 29.6926 40.4669 29.3767 40.535 29.147C40.5804 28.9172 40.6182 28.7665 40.6484 28.7665Z" fill="black" stroke="black" stroke-miterlimit="10"/>
<path d="M38.841 29.8147C38.8486 29.829 38.8259 29.8577 38.7654 29.8936C38.7049 29.9295 38.6141 29.9726 38.4856 29.987C38.357 30.0085 38.1906 30.0013 38.0242 29.9223C37.9411 29.8793 37.8654 29.8218 37.8049 29.75C37.7444 29.6783 37.6991 29.5921 37.6612 29.506C37.5932 29.3265 37.5705 29.1614 37.5629 29.0106C37.5554 28.8527 37.5705 28.7163 37.6007 28.6014C37.6612 28.3645 37.7822 28.2568 37.8049 28.2712C37.8352 28.2855 37.7822 28.4147 37.7747 28.6229C37.7671 28.7306 37.7747 28.8527 37.7898 28.9891C37.8125 29.1255 37.8352 29.2834 37.8957 29.427C37.9486 29.5706 38.0318 29.6783 38.1377 29.7429C38.2436 29.8075 38.3721 29.829 38.478 29.829C38.6897 29.829 38.8259 29.7788 38.841 29.8147Z" fill="black" stroke="black" stroke-miterlimit="10"/>
<path d="M54.0189 42.0765C54.0114 42.0836 53.9055 42.0119 53.7391 41.8467C53.5727 41.6888 53.3534 41.4375 53.1114 41.1145C52.8694 40.7842 52.6199 40.375 52.3854 39.894C52.151 39.413 51.9392 38.8674 51.7653 38.2788C51.425 37.1014 51.2889 36.0102 51.2132 35.2205C51.1376 34.4308 51.1225 33.9426 51.1527 33.9354C51.1905 33.9354 51.2662 34.4164 51.3872 35.1989C51.5082 35.9815 51.6745 37.0583 52.0073 38.2141C52.1737 38.7885 52.3779 39.3269 52.5972 39.8007C52.8165 40.2745 53.0509 40.6837 53.2627 41.0212C53.6937 41.696 54.0492 42.0549 54.0189 42.0765Z" fill="black" stroke="black" stroke-miterlimit="10"/>
<path d="M54.034 44.8763C54.0038 44.8835 53.9206 44.7184 53.8223 44.4384C53.7315 44.1584 53.6332 43.7564 53.5803 43.3113C53.5274 42.8662 53.5274 42.4498 53.5576 42.1555C53.5803 41.8611 53.6257 41.6816 53.6635 41.6816C53.7315 41.6888 53.724 42.4067 53.8299 43.2826C53.9282 44.1584 54.1021 44.862 54.034 44.8763Z" fill="black" stroke="black" stroke-miterlimit="10"/>
<path d="M60.7269 38.932C60.6966 38.932 60.6588 38.6161 60.6739 38.0993C60.6815 37.97 60.689 37.8264 60.6966 37.6829C60.7042 37.5321 60.7269 37.3742 60.7495 37.2019C60.7949 36.8645 60.8705 36.4983 60.9689 36.1107C61.0672 35.7302 61.1882 35.3712 61.3092 35.0482C61.3697 34.8902 61.4302 34.7395 61.4982 34.5959C61.5587 34.4523 61.6192 34.3302 61.6797 34.2082C61.9142 33.7416 62.1032 33.4759 62.1259 33.4903C62.194 33.519 61.5965 34.6533 61.2109 36.1537C60.8252 37.6685 60.8025 38.932 60.7269 38.932Z" fill="black" stroke="black" stroke-miterlimit="10"/>
<path d="M61.3016 42.177C61.2638 42.1698 61.294 41.9042 61.3092 41.4735C61.3167 41.3658 61.3167 41.2509 61.3167 41.1217C61.3167 40.9996 61.3167 40.8632 61.3092 40.7197C61.3016 40.4397 61.2789 40.131 61.2335 39.8079C61.1882 39.4849 61.1277 39.1833 61.0596 38.9034C61.0218 38.767 60.9915 38.6377 60.9537 38.5157C60.9235 38.3936 60.8857 38.2788 60.8554 38.1783C60.7269 37.7691 60.621 37.5178 60.6588 37.5034C60.689 37.4891 60.8403 37.7188 61.0218 38.1208C61.0672 38.2213 61.1125 38.3362 61.1579 38.4583C61.2033 38.5803 61.2411 38.7095 61.2865 38.8531C61.3621 39.1331 61.4377 39.4418 61.4831 39.7792C61.5285 40.1094 61.5436 40.4325 61.5436 40.7197C61.536 40.8632 61.536 40.9996 61.5209 41.1289C61.5134 41.2581 61.4982 41.373 61.4831 41.4878C61.4226 41.9257 61.3319 42.1842 61.3016 42.177Z" fill="black" stroke="black" stroke-miterlimit="10"/>
<path d="M61.7327 42.7154C61.7478 42.7369 61.4226 43.0528 60.8025 43.4548C60.1899 43.864 59.2598 44.3378 58.1632 44.6609C57.6111 44.8188 57.0818 44.9337 56.5826 44.9983C56.0911 45.0629 55.6449 45.0845 55.2668 45.0845C54.8886 45.0845 54.5861 45.0558 54.3744 45.0055C54.1702 44.9552 54.0643 44.8978 54.0719 44.8835C54.0794 44.8691 54.1929 44.8906 54.3971 44.9122C54.6013 44.9337 54.8962 44.9409 55.2668 44.9194C55.6373 44.905 56.0759 44.8619 56.5524 44.7829C57.0364 44.7112 57.5582 44.5963 58.0951 44.4384C59.169 44.1225 60.0841 43.6846 60.7118 43.3184C61.347 42.9523 61.71 42.6867 61.7327 42.7154Z" fill="black" stroke="black" stroke-miterlimit="10"/>
<path d="M46.9026 39.8366C46.8724 39.8366 46.7892 39.4202 46.7665 38.7382C46.7665 38.6521 46.7589 38.5659 46.7589 38.4654C46.7589 38.3721 46.7589 38.2716 46.7665 38.1711C46.7665 37.9701 46.7892 37.7547 46.8043 37.5249C46.8497 37.0727 46.9178 36.5773 47.0388 36.0604C47.1598 35.5507 47.311 35.0697 47.4698 34.639C47.553 34.4236 47.6362 34.2226 47.7194 34.0431C47.7648 33.9498 47.8026 33.8636 47.8404 33.7775C47.8858 33.6913 47.9236 33.6124 47.9614 33.5334C48.2866 32.916 48.5437 32.5714 48.5739 32.5858C48.6042 32.6073 48.4 32.9806 48.1202 33.598C48.0824 33.677 48.0521 33.7559 48.0143 33.8421C47.9765 33.9282 47.9463 34.0216 47.9084 34.1077C47.8328 34.2944 47.7572 34.4954 47.6816 34.7036C47.5379 35.1271 47.3942 35.601 47.2732 36.1035C47.1598 36.606 47.0766 37.0942 47.0236 37.5393C47.0009 37.7619 46.9783 37.9701 46.9631 38.1711C46.9556 38.2716 46.948 38.3649 46.9404 38.4582C46.9404 38.5516 46.9329 38.6377 46.9329 38.7239C46.9178 39.413 46.9404 39.8366 46.9026 39.8366Z" fill="black" stroke="black" stroke-miterlimit="10"/>
<path d="M45.8666 42.5719C45.8363 42.5719 45.7985 42.3924 45.7985 42.0981C45.7985 41.9545 45.8212 41.775 45.8514 41.5883C45.8892 41.3945 45.9422 41.1935 46.0178 40.9781C46.0934 40.7699 46.1917 40.5689 46.2825 40.4038C46.3808 40.2315 46.4791 40.0879 46.5699 39.9731C46.7589 39.7361 46.9026 39.6213 46.9253 39.6428C46.9858 39.6859 46.5321 40.253 46.2447 41.0643C45.9497 41.8683 45.9346 42.5719 45.8666 42.5719Z" fill="black" stroke="black" stroke-miterlimit="10"/>
<path d="M52.9677 44.8333C52.9451 44.862 52.5896 44.6323 51.9846 44.3236C51.909 44.2877 51.8258 44.2446 51.7426 44.2015C51.6594 44.1585 51.5687 44.1226 51.4779 44.0795C51.2964 43.9933 51.0998 43.9144 50.8881 43.8282C50.4721 43.6631 50.0032 43.5052 49.4965 43.3544C48.9974 43.2108 48.5059 43.096 48.0672 42.9954C47.621 42.9021 47.2202 42.8231 46.8799 42.7657C46.1993 42.6437 45.7758 42.5719 45.7834 42.536C45.7909 42.5073 46.2144 42.5216 46.9102 42.6006C47.258 42.6437 47.6664 42.7011 48.1126 42.7873C48.5664 42.8734 49.0579 42.9811 49.5646 43.1318C50.0713 43.2826 50.5477 43.4549 50.9712 43.6272C51.183 43.7205 51.3796 43.8067 51.5611 43.9C51.6519 43.9431 51.7426 43.9862 51.8258 44.0364C51.909 44.0867 51.9846 44.1297 52.0602 44.1728C52.2115 44.259 52.34 44.3451 52.4535 44.4169C52.5064 44.4528 52.5669 44.4887 52.6123 44.5246C52.6577 44.5605 52.7031 44.5892 52.7409 44.6251C52.8997 44.7471 52.9753 44.8189 52.9677 44.8333Z" fill="black" stroke="black" stroke-miterlimit="10"/>
<path d="M47.8479 51.7753C47.8177 51.7538 48.0975 51.3661 48.4756 50.7057C48.8613 50.0452 49.3226 49.1047 49.7764 48.035C50.0033 47.5038 50.2074 46.9869 50.4041 46.5203C50.5931 46.0536 50.7671 45.6372 50.8881 45.2783C51.1376 44.5676 51.1452 44.0938 51.183 44.0938C51.1981 44.0938 51.2133 44.2086 51.2057 44.424C51.1981 44.6394 51.1528 44.9481 51.0469 45.3214C50.9486 45.6947 50.7898 46.1182 50.6083 46.5921C50.4268 47.0659 50.2301 47.5828 50.0033 48.1212C49.5495 49.1981 49.0504 50.1457 48.6269 50.7846C48.1958 51.4379 47.8706 51.7897 47.8479 51.7753Z" fill="black" stroke="black" stroke-miterlimit="10"/>
<path d="M45.0574 50.6841C45.0271 50.6841 45.0044 50.2318 45.0347 49.4996C45.0498 49.1334 45.08 48.6955 45.133 48.2145C45.1859 47.7335 45.2615 47.2023 45.3674 46.6567C45.4733 46.1039 45.5943 45.587 45.7153 45.1132C45.8439 44.6465 45.9649 44.223 46.0859 43.8784C46.3203 43.182 46.5094 42.7656 46.5396 42.7728C46.5774 42.7872 46.4413 43.2179 46.2522 43.9214C46.1539 44.2732 46.048 44.6968 45.9346 45.1634C45.8212 45.6301 45.7077 46.147 45.6094 46.6926C45.5111 47.2382 45.4279 47.7622 45.3599 48.2361C45.2918 48.7099 45.2464 49.1406 45.2086 49.5067C45.133 50.2318 45.0952 50.6841 45.0574 50.6841Z" fill="black" stroke="black" stroke-miterlimit="10"/>
<path d="M42.5088 62.1204C42.5012 62.1204 42.5013 62.0774 42.5013 61.9984C42.5013 61.9553 42.5088 61.9051 42.5164 61.8476C42.5239 61.7902 42.5391 61.7256 42.5542 61.6466C42.5844 61.4959 42.6449 61.3164 42.7206 61.1082C42.8038 60.9072 42.9096 60.6775 43.0609 60.4405C43.2046 60.2036 43.3785 59.9524 43.5827 59.6939C43.7869 59.4355 44.0138 59.1698 44.2633 58.897C44.5053 58.6242 44.77 58.3371 45.0271 58.0356C45.2918 57.734 45.5565 57.4253 45.8212 57.0951C46.3581 56.4418 46.8421 55.81 47.2127 55.1927C47.5908 54.5753 47.8404 53.9866 47.9916 53.4697C48.1429 52.9528 48.1958 52.522 48.2109 52.2205C48.2261 51.919 48.2185 51.7539 48.2412 51.7467C48.2563 51.7467 48.2941 51.9118 48.3093 52.2205C48.3244 52.5292 48.2941 52.9743 48.158 53.5128C48.0219 54.0512 47.7799 54.6686 47.4018 55.3003C47.0312 55.9393 46.5472 56.5854 46.0027 57.2387C45.7304 57.5689 45.4657 57.8776 45.1935 58.1791C44.9288 58.4807 44.6641 58.7606 44.4146 59.0334C44.165 59.3062 43.9306 59.5575 43.7264 59.8088C43.5222 60.06 43.3407 60.297 43.1894 60.5267C43.0382 60.7492 42.9248 60.9718 42.8264 61.1584C42.7357 61.3523 42.6676 61.5246 42.6222 61.6682C42.5996 61.7399 42.5844 61.8046 42.5618 61.862C42.5466 61.9194 42.5391 61.9697 42.5239 62.0056C42.5315 62.0774 42.5164 62.1204 42.5088 62.1204Z" fill="black" stroke="black" stroke-miterlimit="10"/>
<path d="M39.446 61.5317C39.4158 61.5102 39.8619 61.0292 40.3762 60.1246C40.6409 59.6795 40.9207 59.1267 41.2383 58.5165C41.5559 57.9063 41.8963 57.2314 42.2517 56.5207C42.9626 55.1064 43.5903 53.8142 44.044 52.8809C44.2709 52.4143 44.4599 52.0338 44.5885 51.7754C44.7171 51.5169 44.8003 51.3733 44.8154 51.3805C44.8305 51.3877 44.7776 51.5384 44.6717 51.8112C44.5658 52.0841 44.407 52.4717 44.1953 52.9455C43.7793 53.9004 43.1743 55.1998 42.4634 56.6212C42.108 57.3319 41.7526 57.9996 41.4274 58.6098C41.1022 59.2129 40.7997 59.7656 40.5199 60.2036C40.2401 60.6487 39.9754 60.9861 39.7712 61.2086C39.5821 61.4384 39.4611 61.546 39.446 61.5317Z" fill="black" stroke="black" stroke-miterlimit="10"/>
<path d="M39.6124 61.2876C39.6275 61.3235 39.4762 61.4025 39.2645 61.5532C39.1586 61.6322 39.0376 61.7255 38.909 61.8404C38.7805 61.9553 38.6519 62.0845 38.5158 62.2352C38.2511 62.5296 38.0167 62.8096 37.8427 63.0106C37.6612 63.2044 37.5402 63.3193 37.51 63.3049C37.4797 63.2834 37.5554 63.1398 37.699 62.9172C37.8427 62.6947 38.0545 62.3932 38.3343 62.0917C38.478 61.9409 38.6217 61.8045 38.7654 61.6896C38.909 61.5748 39.0527 61.4886 39.1737 61.424C39.4309 61.2876 39.6048 61.2661 39.6124 61.2876Z" fill="black" stroke="black" stroke-miterlimit="10"/>
<path d="M37.4419 63.2834C37.4571 63.348 36.3076 63.671 34.9161 64.1807C34.5682 64.3028 34.243 64.432 33.9405 64.5469C33.7892 64.6043 33.6607 64.6546 33.6153 64.7335C33.5926 64.7766 33.5775 64.8197 33.5851 64.8484C33.5926 64.8771 33.6153 64.913 33.6607 64.9345C33.6985 64.9633 33.7514 64.9776 33.7968 64.9992C33.8422 65.0135 33.8951 65.0279 33.9329 65.0422C34.0237 65.0638 34.0993 65.0781 34.1674 65.0853C34.2959 65.0997 34.3791 65.0997 34.3791 65.1212C34.3791 65.1356 34.3111 65.1643 34.1674 65.1786C34.0993 65.1858 34.0086 65.1858 33.9102 65.1715C33.8573 65.1643 33.8044 65.1571 33.7514 65.1427C33.6985 65.1284 33.638 65.114 33.5699 65.0781C33.5094 65.0494 33.4338 64.992 33.4036 64.8986C33.3733 64.8053 33.3884 64.712 33.4338 64.633C33.4792 64.5541 33.5472 64.4894 33.6229 64.4464C33.6985 64.4033 33.7741 64.3674 33.8497 64.3387C34.1447 64.2095 34.4774 64.0802 34.8253 63.9582C36.2319 63.4485 37.4344 63.2187 37.4419 63.2834Z" fill="black" stroke="black" stroke-miterlimit="10"/>
<path d="M37.4873 64.1089C37.4873 64.1807 36.7084 64.1879 35.8387 64.511C35.4908 64.6402 35.1883 64.7838 34.9463 64.9202C34.7043 65.0566 34.5304 65.1714 34.4245 65.2289L34.4396 65.193C34.4396 65.2073 34.4472 65.2217 34.4472 65.2361C34.4547 65.2432 34.4623 65.2504 34.4623 65.2576C34.4623 65.2648 34.4547 65.2719 34.432 65.2648C34.4094 65.2648 34.3791 65.2504 34.364 65.2073L34.3564 65.193L34.3715 65.1714C34.4472 65.0853 34.5984 64.9274 34.8329 64.7622C35.0673 64.5971 35.3849 64.4248 35.7479 64.2956C35.9748 64.2094 36.2017 64.152 36.4134 64.1161C36.6252 64.0802 36.8142 64.0587 36.973 64.0587C37.2982 64.0443 37.4873 64.0802 37.4873 64.1089Z" fill="black" stroke="black" stroke-miterlimit="10"/>
<path d="M40.9585 63.8146C40.9585 63.829 40.8678 63.8577 40.7014 63.908C40.535 63.9582 40.293 64.03 40.0132 64.152C39.8695 64.2167 39.7183 64.2884 39.567 64.3746C39.4082 64.4607 39.2569 64.5684 39.083 64.6833C38.9923 64.7407 38.9015 64.7982 38.8032 64.8484C38.7049 64.8987 38.5914 64.9489 38.478 64.9848C38.2511 65.0638 38.0167 65.1069 37.7823 65.1571C37.3058 65.2504 36.8596 65.3366 36.4437 65.4084C36.0353 65.4873 35.6572 65.5448 35.332 65.552C35.0068 65.5663 34.7421 65.5232 34.5682 65.473C34.3943 65.4227 34.3111 65.3725 34.3111 65.3581C34.3186 65.3438 34.4169 65.3653 34.5833 65.3868C34.7573 65.4084 35.0068 65.4227 35.3169 65.3868C35.6269 65.3581 35.9899 65.2863 36.3983 65.193C36.8067 65.1069 37.2604 65.0135 37.7293 64.9202C37.9638 64.8771 38.1906 64.8269 38.3948 64.7623C38.599 64.6977 38.7805 64.6043 38.9544 64.4966C39.1284 64.389 39.2948 64.2813 39.4687 64.1951C39.6351 64.109 39.8014 64.0444 39.9527 63.9869C40.2552 63.8792 40.5123 63.829 40.6938 63.8074C40.8602 63.8003 40.9585 63.8003 40.9585 63.8146Z" fill="black" stroke="black" stroke-miterlimit="10"/>
<path d="M42.3878 65.3581C42.3878 65.3869 42.2517 65.4084 42.0399 65.351C41.8358 65.3007 41.5559 65.1643 41.3366 64.9202C41.2308 64.7982 41.1476 64.6689 41.0946 64.5397C41.0417 64.4105 41.019 64.2956 40.9888 64.2023C40.9509 64.0157 40.9056 63.9151 40.9358 63.8936C40.9509 63.8864 40.9812 63.9008 41.019 63.9439C41.0568 63.9869 41.1098 64.0587 41.1476 64.1449C41.1929 64.231 41.2383 64.3387 41.2913 64.4464C41.3442 64.5541 41.4198 64.6618 41.5181 64.7623C41.7072 64.9705 41.9265 65.1069 42.0929 65.193C42.2744 65.2863 42.3954 65.3222 42.3878 65.3581Z" fill="black" stroke="black" stroke-miterlimit="10"/>
<path d="M42.4105 63.9008C42.3424 63.8792 42.418 63.4557 42.4937 62.9316C42.5315 62.666 42.5617 62.4291 42.5844 62.2568C42.5995 62.1706 42.6071 62.1132 42.6071 62.0701C42.6071 62.027 42.592 62.0055 42.6071 61.9912C42.6147 61.9768 42.66 61.984 42.6979 62.0342C42.7357 62.0845 42.7584 62.1706 42.7659 62.264C42.781 62.4434 42.781 62.6947 42.7432 62.9675C42.66 63.5059 42.471 63.9223 42.4105 63.9008Z" fill="black" stroke="black" stroke-miterlimit="10"/>
<path d="M42.8491 64.9203C42.8264 64.8916 42.8718 64.8269 42.8945 64.7193C42.9172 64.6116 42.9096 64.4536 42.834 64.3029C42.7584 64.1449 42.6374 64.0229 42.5542 63.9224C42.471 63.8219 42.4181 63.7501 42.4408 63.7214C42.4634 63.6998 42.5466 63.7214 42.6676 63.8003C42.7886 63.8721 42.9474 64.0014 43.0533 64.2095C43.1592 64.4249 43.1365 64.6546 43.0533 64.7839C43.0155 64.8485 42.9626 64.8987 42.9248 64.9131C42.8869 64.9274 42.8567 64.9274 42.8491 64.9203Z" fill="black" stroke="black" stroke-miterlimit="10"/>
<path d="M54.4046 63.269C54.3895 63.2547 54.571 63.0249 54.8735 62.587C55.176 62.1491 55.5919 61.4958 56.0684 60.6702C56.5448 59.8446 57.1196 58.8611 57.7246 57.7555C58.3296 56.6499 58.9572 55.4223 59.5169 54.087C60.0765 52.7517 60.4849 51.4451 60.742 50.2247C60.8706 49.6144 60.9537 49.0329 61.0067 48.4873C61.0369 48.2145 61.0521 47.9489 61.0672 47.6905C61.0672 47.5612 61.0747 47.4392 61.0747 47.3171C61.0747 47.2525 61.0747 47.1951 61.0823 47.1377V46.9582C61.0747 46.0177 60.9764 45.2639 60.8857 44.747C60.863 44.6178 60.8479 44.503 60.8252 44.4025C60.8025 44.3019 60.7874 44.2158 60.7722 44.1512C60.7496 44.0148 60.7344 43.943 60.742 43.943C60.7496 43.943 60.7798 44.0076 60.8176 44.144C60.8403 44.2086 60.863 44.2948 60.8932 44.3953C60.9235 44.4958 60.9462 44.6106 60.9764 44.7399C61.0974 45.2568 61.2184 46.0177 61.2487 46.9654C61.2487 47.0228 61.2562 47.0874 61.2562 47.1449V47.712C61.2411 47.9704 61.2336 48.2432 61.2109 48.5161C61.1655 49.0688 61.0899 49.6647 60.9613 50.2821C60.7193 51.5169 60.3109 52.845 59.7437 54.1875C59.1841 55.53 58.5413 56.7648 57.9287 57.8704C57.3086 58.9759 56.7263 59.9451 56.2272 60.7635C55.7281 61.5819 55.2894 62.228 54.9642 62.6516C54.7979 62.867 54.6617 63.0249 54.571 63.1326C54.4651 63.2188 54.4122 63.2762 54.4046 63.269Z" fill="black" stroke="black" stroke-miterlimit="10"/>
<path d="M56.749 50.6195C56.6885 50.6411 56.1062 49.4781 55.6675 47.9417C55.2289 46.4126 55.1079 45.1204 55.176 45.1132C55.2516 45.106 55.4709 46.3623 55.9095 47.8771C56.3406 49.3991 56.817 50.598 56.749 50.6195Z" fill="black" stroke="black" stroke-miterlimit="10"/>
<path d="M52.1056 64.0587C52.0905 64.0587 52.1132 63.8648 52.1737 63.5131C52.1888 63.4269 52.2039 63.3264 52.2266 63.2259C52.2493 63.1182 52.272 63.0034 52.2947 62.8813C52.3476 62.6372 52.4006 62.3501 52.4762 62.0414C52.514 61.8834 52.5518 61.7255 52.5896 61.5532C52.6274 61.3881 52.6728 61.2086 52.7257 61.0291C52.8165 60.6702 52.9224 60.2825 53.0434 59.8805C53.2778 59.0764 53.5652 58.1934 53.8904 57.2816C54.2231 56.3699 54.5785 55.5084 54.9113 54.7403C55.0852 54.3526 55.2441 53.9865 55.4104 53.649C55.4936 53.4767 55.5692 53.3188 55.6449 53.1609C55.7205 53.0029 55.7961 52.8593 55.8717 52.7158C56.0154 52.4286 56.1515 52.1773 56.2725 51.9548C56.333 51.8399 56.3936 51.7394 56.4465 51.6461C56.4994 51.5528 56.5524 51.4666 56.5977 51.3876C56.7792 51.0789 56.8851 50.9138 56.9002 50.921C56.9154 50.9282 56.8397 51.1077 56.6809 51.4307C56.6431 51.5097 56.5977 51.603 56.5524 51.6963C56.507 51.7968 56.454 51.8974 56.4011 52.0122C56.2952 52.2419 56.1667 52.5004 56.0306 52.7876C55.9625 52.9311 55.8944 53.0819 55.8188 53.2398C55.7432 53.3978 55.6751 53.5629 55.5995 53.7352C55.4407 54.0726 55.2894 54.4387 55.1231 54.8264C54.7979 55.6017 54.4576 56.4561 54.1248 57.3606C53.7921 58.2724 53.5047 59.141 53.2627 59.9451C53.1417 60.3471 53.0282 60.7276 52.9299 61.0865C52.877 61.266 52.8316 61.4383 52.7862 61.6034C52.7409 61.7686 52.6955 61.9337 52.6577 62.0844C52.5745 62.386 52.5064 62.6659 52.4459 62.91C52.4157 63.0321 52.3854 63.1469 52.3552 63.2474C52.3325 63.3551 52.3022 63.4485 52.2871 63.5346C52.1812 63.8792 52.1207 64.0659 52.1056 64.0587Z" fill="black" stroke="black" stroke-miterlimit="10"/>
<path d="M47.5152 68.359C47.5001 68.3519 47.5152 68.2729 47.5833 68.1365C47.6513 68.0001 47.7723 67.8134 47.9689 67.6196C48.1656 67.4258 48.4303 67.2248 48.7328 67.0381C49.0353 66.8443 49.3831 66.6576 49.7159 66.4351C50.0486 66.2125 50.3284 65.9541 50.5629 65.7028C50.7973 65.4515 50.9788 65.2003 51.1225 64.9849C51.4099 64.547 51.546 64.2526 51.5838 64.267C51.6141 64.2742 51.5309 64.5972 51.2737 65.0639C51.1452 65.3008 50.9713 65.5664 50.7368 65.8392C50.5024 66.112 50.2074 66.3848 49.8596 66.6217C49.5117 66.8586 49.1562 67.0381 48.8537 67.2176C48.5437 67.3899 48.2866 67.5693 48.0899 67.7345C47.6891 68.0791 47.5454 68.3734 47.5152 68.359Z" fill="black" stroke="black" stroke-miterlimit="10"/>
<path d="M51.8334 68.1292C51.8258 68.1436 51.7653 68.1221 51.6519 68.0862C51.546 68.0503 51.3872 68 51.1906 67.9785C50.9939 67.9498 50.7595 67.9641 50.5251 68.0503C50.2831 68.1364 50.0335 68.2872 49.7461 68.4379C49.4587 68.5887 49.1714 68.7036 48.9067 68.7897C48.7706 68.8328 48.642 68.8687 48.521 68.8974C48.4 68.9261 48.279 68.9477 48.1731 68.9548C47.9538 68.9764 47.7647 68.9261 47.6589 68.8615C47.553 68.7969 47.5227 68.7323 47.5303 68.7251C47.5454 68.7107 47.5984 68.7538 47.6967 68.7825C47.795 68.8112 47.9538 68.8256 48.1504 68.7897C48.2487 68.7754 48.3546 68.7466 48.4681 68.7107C48.5815 68.6748 48.7025 68.6318 48.8311 68.5887C49.0806 68.4954 49.3529 68.3805 49.6251 68.2369C49.8974 68.0933 50.1621 67.9354 50.4419 67.8493C50.578 67.8062 50.7217 67.7846 50.8578 67.7775C50.9939 67.7775 51.1149 67.7918 51.2208 67.8134C51.4326 67.8636 51.5914 67.9426 51.6897 68C51.788 68.0646 51.8409 68.1149 51.8334 68.1292Z" fill="black" stroke="black" stroke-miterlimit="10"/>
<path d="M55.2289 71.2594C55.2289 71.2737 55.1382 71.2809 54.9945 71.2594C54.8432 71.2378 54.6315 71.1948 54.3744 71.1086C54.1172 71.0225 53.8223 70.8932 53.5198 70.7138C53.2173 70.5271 52.9072 70.283 52.635 69.9887C52.3627 69.6943 52.1359 69.4 51.9166 69.1344C51.7048 68.8687 51.5082 68.6462 51.3267 68.4667C51.1452 68.2872 50.9864 68.1652 50.8654 68.079C50.7444 68.0001 50.6839 67.9498 50.6914 67.9355C50.699 67.9211 50.7822 67.9426 50.9183 68.0001C51.0544 68.0647 51.2435 68.1724 51.4477 68.3447C51.6519 68.5098 51.8712 68.7395 52.0981 68.998C52.3249 69.2564 52.5518 69.5507 52.8165 69.8307C53.0812 70.1107 53.361 70.3476 53.6408 70.5343C53.9206 70.7209 54.1929 70.8573 54.4349 70.9578C54.6693 71.0584 54.8735 71.123 55.0096 71.1732C55.1533 71.2163 55.2365 71.2378 55.2289 71.2594Z" fill="black" stroke="black" stroke-miterlimit="10"/>
<path d="M53.9887 69.1487C53.966 69.1702 53.8828 69.1272 53.7845 69.0195C53.6862 68.919 53.5803 68.7467 53.5198 68.5457C53.4593 68.3375 53.4518 68.1436 53.482 68.0072C53.5047 67.8708 53.5501 67.7919 53.5879 67.799C53.6559 67.8134 53.6484 68.1221 53.7618 68.481C53.8601 68.84 54.0416 69.0984 53.9887 69.1487Z" fill="black" stroke="black" stroke-miterlimit="10"/>
<path d="M55.3121 70.9219C55.2743 70.9291 55.2214 70.7926 55.1079 70.5916C54.9945 70.3906 54.8281 70.1178 54.5861 69.8666C54.4651 69.7373 54.3366 69.6225 54.2156 69.5148C54.1021 69.3999 53.9962 69.2922 53.9282 69.1917C53.7769 68.9907 53.7467 68.8328 53.7769 68.8184C53.8072 68.8041 53.8904 68.9261 54.0643 69.084C54.1475 69.163 54.2534 69.2563 54.3744 69.3568C54.4954 69.4573 54.6315 69.5722 54.7676 69.7086C55.0323 69.9886 55.1987 70.2973 55.2667 70.527C55.3424 70.7639 55.3424 70.9147 55.3121 70.9219Z" fill="black" stroke="black" stroke-miterlimit="10"/>
<path d="M56.8246 68.0574C56.8095 68.0503 56.8246 67.9856 56.8397 67.8636C56.8473 67.7487 56.8397 67.5693 56.7717 67.3754C56.6961 67.1744 56.5675 66.9519 56.3709 66.7365C56.1818 66.5139 55.9322 66.2842 55.7129 65.997C55.4936 65.7027 55.3726 65.3796 55.2819 65.0925C55.1911 64.8053 55.1306 64.5469 55.0626 64.3387C54.934 63.9151 54.7827 63.6854 54.813 63.6638C54.8281 63.6567 54.8811 63.6997 54.9642 63.8074C55.0474 63.9079 55.1382 64.0731 55.2289 64.2884C55.3197 64.4966 55.4029 64.7551 55.5012 65.0351C55.5995 65.315 55.7205 65.6022 55.9171 65.8678C56.1137 66.1334 56.3557 66.3704 56.5524 66.6073C56.749 66.8442 56.8851 67.1026 56.9456 67.3323C57.0061 67.5621 56.9834 67.7631 56.9456 67.8851C56.8927 68.0072 56.8397 68.0574 56.8246 68.0574Z" fill="black" stroke="black" stroke-miterlimit="10"/>
<path d="M56.0381 69.1128C56.023 69.1056 56.0305 69.0697 56.0532 69.0051C56.0835 68.9477 56.144 68.8687 56.2196 68.7826C56.2952 68.6964 56.386 68.6103 56.4465 68.5026C56.507 68.4021 56.5297 68.2657 56.5145 68.1149C56.4994 67.9642 56.4616 67.8134 56.4314 67.6698C56.4011 67.5334 56.3709 67.4114 56.3406 67.3109C56.2725 67.117 56.1894 67.0093 56.212 66.9878C56.2196 66.9734 56.265 66.9878 56.3179 67.0309C56.3709 67.074 56.4389 67.1457 56.4994 67.2463C56.5599 67.3468 56.6129 67.476 56.6582 67.6196C56.6961 67.756 56.749 67.9139 56.7641 68.0934C56.7792 68.2729 56.749 68.4667 56.6431 68.6103C56.5448 68.7467 56.4238 68.8328 56.3406 68.8974C56.2499 68.962 56.1818 69.0123 56.1289 69.0554C56.0835 69.0985 56.0532 69.12 56.0381 69.1128Z" fill="black" stroke="black" stroke-miterlimit="10"/>
<path d="M55.3726 69.6009C55.3499 69.5722 55.4558 69.4861 55.5768 69.3281C55.6373 69.2491 55.6978 69.1486 55.7281 69.041C55.7583 68.9261 55.7583 68.7969 55.7205 68.6676C55.6827 68.5312 55.6146 68.402 55.5466 68.2943C55.4785 68.1795 55.4029 68.0861 55.3424 68.0072C55.2138 67.8492 55.1231 67.7487 55.1458 67.7272C55.1684 67.7057 55.297 67.7559 55.4709 67.8995C55.5541 67.9713 55.6524 68.0646 55.7356 68.1866C55.8188 68.3015 55.9096 68.4451 55.9549 68.6174C56.0003 68.7897 56.0003 68.9692 55.9398 69.1199C55.8869 69.2707 55.7886 69.3784 55.7054 69.4502C55.5239 69.5866 55.3878 69.6225 55.3726 69.6009Z" fill="black" stroke="black" stroke-miterlimit="10"/>
<path d="M55.5768 69.4358C55.5995 69.4573 55.5768 69.5219 55.5163 69.5937C55.4558 69.6655 55.3424 69.766 55.176 69.8163C55.002 69.8665 54.8281 69.8163 54.7374 69.7373C54.7147 69.7158 54.6995 69.7014 54.6844 69.6799C54.6769 69.6727 54.6693 69.6583 54.6693 69.6512C54.6693 69.644 54.6617 69.6368 54.6617 69.6296V69.6153C54.6617 69.6081 54.6542 69.6009 54.6542 69.5865C54.6542 69.5722 54.6693 69.565 54.6769 69.5578C54.6995 69.5506 54.7071 69.5578 54.7147 69.565C54.7222 69.5722 54.7298 69.5865 54.7222 69.5937C54.7147 69.6009 54.7147 69.5937 54.7071 69.5937C54.6996 69.5937 54.6995 69.5865 54.6995 69.5937V69.6009C54.6995 69.6081 54.6995 69.6081 54.692 69.5937C54.692 69.5865 54.6844 69.5937 54.692 69.5865C54.6693 69.6009 54.7222 69.565 54.7147 69.565H54.7222C54.7298 69.565 54.7374 69.5722 54.7449 69.5722C54.7525 69.5722 54.76 69.5722 54.7676 69.5794C54.7827 69.5865 54.7979 69.5865 54.8206 69.5937C54.8886 69.6081 54.9945 69.6153 55.1004 69.5865C55.2062 69.5578 55.3121 69.5004 55.4029 69.4645C55.486 69.4286 55.5541 69.4142 55.5768 69.4358Z" fill="black" stroke="black" stroke-miterlimit="10"/>
<path d="M74.4377 34.6246C74.4301 34.639 74.2411 34.5959 73.9007 34.5169C73.5604 34.4379 73.0689 34.3303 72.4487 34.2585C71.8286 34.1795 71.0875 34.1364 70.2707 34.1939C69.8624 34.2226 69.4313 34.2728 68.9927 34.3518C68.7734 34.3877 68.554 34.4379 68.3272 34.4882L67.9869 34.5743C67.8734 34.6031 67.76 34.6318 67.6465 34.6677C67.1928 34.7969 66.7617 34.962 66.3534 35.1343C65.945 35.3138 65.5593 35.5004 65.1887 35.6727C64.8182 35.8522 64.4552 36.0102 64.1149 36.1466C63.767 36.283 63.4418 36.3978 63.1393 36.484C62.9881 36.527 62.8444 36.5701 62.7082 36.606C62.5721 36.6419 62.4435 36.6778 62.3225 36.6993C62.0805 36.7568 61.8688 36.7927 61.6949 36.8214C61.347 36.8788 61.1504 36.8932 61.1504 36.8788C61.1504 36.8645 61.3394 36.8142 61.6722 36.7352C61.8385 36.6922 62.0503 36.6419 62.2847 36.5701C62.4057 36.5342 62.5267 36.4983 62.6629 36.4553C62.799 36.4194 62.9351 36.3691 63.0864 36.3189C63.3813 36.2255 63.6989 36.0963 64.0317 35.9599C64.3644 35.8163 64.7199 35.6512 65.0829 35.4717C65.4534 35.2922 65.8391 35.0984 66.2475 34.9118C66.6634 34.7323 67.1021 34.56 67.5634 34.4308C67.6768 34.3949 67.7978 34.3662 67.9112 34.3374C68.0247 34.3087 68.1381 34.28 68.2591 34.2513C68.486 34.201 68.7129 34.1508 68.9397 34.1149C69.3859 34.0359 69.8246 33.9857 70.2481 33.9641C71.0875 33.9211 71.8437 33.9857 72.4639 34.0862C73.0916 34.1867 73.5831 34.3159 73.9159 34.4236C74.2637 34.5313 74.4377 34.6102 74.4377 34.6246Z" fill="black" stroke="black" stroke-miterlimit="10"/>
<path d="M65.6123 48.394C65.6047 48.394 65.6123 48.3366 65.6274 48.2217C65.6425 48.1069 65.6652 47.9417 65.7181 47.7335C65.8089 47.31 65.9828 46.7069 66.2778 45.9962C66.5727 45.2783 66.9962 44.4527 67.5483 43.5769C67.8205 43.1389 68.1306 42.6938 68.4633 42.2344C68.7961 41.7821 69.1515 41.3226 69.5296 40.856C70.2859 39.9299 71.0346 39.0756 71.7152 38.2931C72.3958 37.5106 72.9933 36.807 73.4773 36.1968C73.7193 35.8953 73.9386 35.6153 74.1276 35.3712C74.3167 35.1271 74.4528 34.9046 74.5284 34.7107C74.6041 34.5169 74.6116 34.3518 74.6041 34.2441C74.5889 34.1364 74.5663 34.079 74.5738 34.079C74.5814 34.079 74.6192 34.1292 74.6494 34.2369C74.6797 34.3518 74.6873 34.5313 74.6192 34.7395C74.5511 34.9548 74.415 35.1917 74.2411 35.443C74.0671 35.6943 73.8554 35.9814 73.6209 36.2973C73.1521 36.9219 72.5622 37.6398 71.8891 38.4295C71.2236 39.2192 70.4749 40.0735 69.7263 40.9996C69.3481 41.459 68.9927 41.9185 68.6599 42.3636C68.3272 42.8087 68.0247 43.2538 67.7449 43.6846C67.1853 44.5389 66.7618 45.3501 66.4441 46.0536C66.1265 46.75 65.9374 47.3459 65.8164 47.7551C65.7484 47.9561 65.7106 48.1212 65.6803 48.2289C65.6425 48.3438 65.6198 48.394 65.6123 48.394Z" fill="black" stroke="black" stroke-miterlimit="10"/>
<path d="M78.2794 48.5878C78.2719 48.5878 78.2945 48.4945 78.355 48.3222C78.3853 48.236 78.4231 48.1355 78.4685 48.0063C78.5139 47.8843 78.5819 47.7479 78.65 47.5899C78.9298 46.9653 79.4214 46.0895 80.1776 45.1132C80.5557 44.625 81.0019 44.1081 81.501 43.5768C82.0002 43.0456 82.5598 42.4928 83.1497 41.9257C83.7471 41.3657 84.3748 40.7698 85.0252 40.1596C85.668 39.5422 86.3184 38.8961 86.878 38.1495C87.1502 37.7762 87.4074 37.3957 87.6191 37.0008C87.672 36.9003 87.725 36.7998 87.7704 36.7065L87.846 36.5557L87.914 36.405L88.0502 36.1034C88.088 36.0029 88.1258 35.9024 88.1712 35.8019C88.3224 35.3999 88.451 34.9907 88.5342 34.5887C88.5871 34.3876 88.6174 34.1866 88.6552 33.9856C88.6703 33.8851 88.6854 33.7846 88.693 33.6841C88.7081 33.5836 88.7232 33.4831 88.7232 33.3898C88.8745 31.8104 88.6022 30.3746 88.1258 29.269C87.8914 28.7162 87.6115 28.2352 87.3317 27.8475C87.0444 27.4527 86.757 27.1512 86.5074 26.9142C86.0007 26.4476 85.6529 26.261 85.668 26.2394C85.6755 26.2322 85.7587 26.2753 85.9175 26.3686C86.0007 26.4117 86.0915 26.4835 86.2049 26.5553C86.3184 26.6271 86.4394 26.7348 86.5755 26.8425C86.8402 27.0722 87.1427 27.3737 87.4452 27.7686C87.7477 28.1634 88.0426 28.6444 88.2922 29.2044C88.7989 30.3243 89.0938 31.796 88.9501 33.4113C88.9425 33.5118 88.9274 33.6123 88.9199 33.7128C88.9047 33.8133 88.8972 33.9138 88.882 34.0215C88.8442 34.2225 88.814 34.4307 88.761 34.6389C88.6703 35.0553 88.5417 35.4717 88.3905 35.8881C88.3527 35.9886 88.3073 36.0963 88.2695 36.1968C88.2241 36.2973 88.1787 36.405 88.1334 36.5055C88.1107 36.5557 88.088 36.606 88.0653 36.6634L87.9897 36.8142C87.9367 36.9147 87.8914 37.0224 87.8309 37.1229C87.6115 37.5249 87.3544 37.9197 87.0746 38.3002C86.4999 39.0612 85.8344 39.7145 85.1915 40.3319C84.5412 40.9421 83.9059 41.5308 83.3085 42.0908C82.711 42.6507 82.1514 43.1963 81.6523 43.7132C81.1532 44.2373 80.707 44.7398 80.3137 45.2208C79.5424 46.1757 79.0432 47.03 78.7332 47.6402C78.6575 47.7909 78.5895 47.9273 78.5365 48.0422C78.4836 48.1642 78.4382 48.2648 78.408 48.3437C78.3324 48.5088 78.287 48.595 78.2794 48.5878Z" fill="#2F2E41" stroke="black" stroke-miterlimit="10"/>
<path d="M87.5435 52.4143C87.5284 52.4215 87.4149 52.3282 87.2107 52.1344C87.0141 51.9405 86.7419 51.639 86.4394 51.2513C86.1369 50.8637 85.8041 50.3827 85.4638 49.8299C85.1235 49.2771 84.7832 48.6525 84.4353 47.9992C83.7395 46.6855 83.127 45.4866 82.6959 44.6179C82.2649 43.7492 82.0077 43.2036 82.038 43.1893C82.0682 43.1749 82.3783 43.6918 82.8472 44.5461C83.3236 45.4004 83.9589 46.585 84.6546 47.8987C85.0025 48.552 85.3352 49.1766 85.6604 49.7294C85.9856 50.2822 86.3032 50.7703 86.583 51.1652C87.1502 51.9477 87.5737 52.3856 87.5435 52.4143Z" fill="black" stroke="black" stroke-miterlimit="10"/>
<path d="M93.1851 45.343C93.1776 45.3502 93.1397 45.3214 93.0792 45.264L92.9658 45.1563C92.9204 45.1132 92.8751 45.063 92.8146 45.0056C92.5952 44.7758 92.2852 44.4241 91.9676 43.9502C91.6424 43.4836 91.3021 42.8949 90.9996 42.2129C90.6895 41.5309 90.4097 40.7627 90.1752 39.9372C89.9408 39.1116 89.7593 38.3219 89.6005 37.5968C89.4492 36.8789 89.3056 36.2256 89.2148 35.6728C89.1165 35.12 89.0636 34.6749 89.0409 34.359C89.0182 34.0503 89.0257 33.8708 89.0409 33.8708C89.056 33.8708 89.0862 34.0431 89.1316 34.3447C89.1846 34.6534 89.2602 35.0913 89.3812 35.6369C89.5022 36.1825 89.6534 36.8286 89.8198 37.5465C89.9862 38.2644 90.1752 39.0541 90.4097 39.8654C90.6441 40.6838 90.9088 41.4448 91.2037 42.1196C91.4987 42.7944 91.8163 43.3831 92.1112 43.8569C92.7162 44.8117 93.2229 45.3143 93.1851 45.343Z" fill="black" stroke="black" stroke-miterlimit="10"/>
<path d="M92.8448 45.2927C92.875 45.3142 92.5423 45.6947 92.0356 46.3265C91.907 46.4844 91.7709 46.6567 91.6272 46.8434C91.476 47.03 91.3323 47.231 91.1659 47.4464C90.8483 47.8772 90.508 48.351 90.1677 48.8607C89.8274 49.3704 89.5248 49.8729 89.2526 50.3252C89.124 50.5549 88.9955 50.7703 88.882 50.9785C88.7686 51.1867 88.6627 51.3805 88.5644 51.5528C88.1863 52.2636 87.967 52.7087 87.9292 52.6943C87.8989 52.6799 88.0653 52.2133 88.4056 51.481C88.4888 51.3016 88.5871 51.1006 88.693 50.8852C88.7989 50.6698 88.9199 50.4473 89.0484 50.2175C89.3055 49.7509 89.6156 49.2484 89.9559 48.7315C90.2962 48.2146 90.6441 47.7408 90.9769 47.31C91.1432 47.1018 91.302 46.9008 91.4609 46.7142C91.6121 46.5275 91.7633 46.3624 91.8995 46.2116C92.4515 45.6158 92.8221 45.2712 92.8448 45.2927Z" fill="black" stroke="black" stroke-miterlimit="10"/>
<path d="M77.8181 48.6812C77.8106 48.6956 77.6442 48.631 77.3492 48.5089C77.2736 48.4802 77.198 48.4443 77.1072 48.4084C77.0165 48.3725 76.9182 48.3366 76.8123 48.3007C76.6006 48.2218 76.3661 48.1284 76.0863 48.0423C75.9502 47.9992 75.8065 47.9561 75.6628 47.9059C75.5116 47.8628 75.3603 47.8269 75.1939 47.7767C75.0351 47.7336 74.8687 47.6833 74.6948 47.6546C74.5209 47.6187 74.3394 47.5828 74.1579 47.5398C73.4167 47.4034 72.5924 47.3028 71.7227 47.2741C70.8531 47.2526 70.0212 47.3028 69.2801 47.3962C69.091 47.4249 68.9095 47.4536 68.7356 47.4751C68.5616 47.4967 68.3877 47.5398 68.2289 47.5685C68.0625 47.6044 67.9037 47.6259 67.7524 47.669C67.6012 47.7049 67.4575 47.7408 67.3214 47.7767C67.0416 47.8413 66.7996 47.9274 66.5802 47.9849C66.4744 48.0208 66.3685 48.0495 66.2777 48.0782C66.187 48.1141 66.1038 48.1428 66.0282 48.1643C65.7257 48.272 65.5593 48.3223 65.5517 48.3079C65.5442 48.2936 65.703 48.2146 65.9904 48.0854C66.066 48.0495 66.1416 48.0136 66.2324 47.9777C66.3231 47.9418 66.4214 47.9059 66.5273 47.87C66.7391 47.791 66.9811 47.6977 67.2609 47.6259C67.397 47.5828 67.5407 47.5469 67.6919 47.4967C67.8432 47.4536 68.002 47.4249 68.1684 47.3818C68.3347 47.3459 68.5011 47.3028 68.6826 47.2741C68.8641 47.2454 69.0456 47.2167 69.2347 47.1808C69.9909 47.0803 70.8379 47.0157 71.7227 47.0372C72.6076 47.0659 73.447 47.1808 74.1957 47.3244C74.3847 47.3675 74.5662 47.4105 74.7402 47.4464C74.9141 47.4823 75.0805 47.5398 75.2469 47.5828C75.4057 47.6331 75.5645 47.6762 75.7157 47.7264C75.867 47.7767 76.0031 47.8269 76.1392 47.8772C76.4115 47.9705 76.6459 48.0782 76.8577 48.1643C76.9636 48.2074 77.0619 48.2505 77.1451 48.2936C77.2282 48.3366 77.3114 48.3797 77.3795 48.4156C77.6744 48.5807 77.8257 48.6669 77.8181 48.6812Z" fill="black" stroke="black" stroke-miterlimit="10"/>
<path d="M87.6947 63.7859C87.6872 63.7931 87.6191 63.7356 87.483 63.6279C87.3544 63.5203 87.1578 63.3551 86.9158 63.1469C86.4242 62.7306 85.7209 62.1203 84.8059 61.4096C84.3521 61.0578 83.8454 60.6774 83.2782 60.304C82.7111 59.9236 82.0909 59.5502 81.4179 59.1698C80.0793 58.4088 78.6046 57.576 77.0543 56.7002C75.5116 55.8243 74.0293 54.9915 72.7437 54.1444C71.4505 53.3116 70.3539 52.4573 69.4994 51.6676C68.6448 50.8851 68.0549 50.16 67.6844 49.636C67.5861 49.5067 67.5029 49.3919 67.4424 49.2842C67.3743 49.1837 67.3214 49.0904 67.276 49.0186C67.1852 48.875 67.1474 48.796 67.155 48.796C67.1626 48.796 67.2155 48.8606 67.3214 48.997C67.3743 49.0616 67.4348 49.1478 67.5029 49.2483C67.5709 49.3488 67.6617 49.4565 67.76 49.5857C68.1532 50.0883 68.7582 50.7846 69.6204 51.5456C70.4749 52.3066 71.5715 53.1393 72.8722 53.9578C74.1579 54.7905 75.6401 55.6161 77.1829 56.492C78.7256 57.3678 80.2003 58.2078 81.5389 58.9759C82.2044 59.3636 82.8321 59.7441 83.3992 60.1317C83.9664 60.5194 84.4731 60.9071 84.9193 61.2732C85.8192 62.0055 86.5074 62.6372 86.9839 63.0752L87.5208 63.5849C87.6418 63.7141 87.7023 63.7787 87.6947 63.7859Z" fill="black" stroke="black" stroke-miterlimit="10"/>
<path d="M91.8239 62.6588C91.8163 62.666 91.7482 62.6301 91.6197 62.5511C91.5516 62.5152 91.476 62.465 91.3777 62.4075C91.3323 62.3788 91.2794 62.3501 91.2264 62.3142C91.1735 62.2783 91.1206 62.2424 91.0601 62.1993C90.9466 62.1204 90.8105 62.027 90.6744 61.9265C90.5382 61.826 90.387 61.704 90.2282 61.5819C90.0694 61.4599 89.9106 61.3163 89.7366 61.1656C89.5627 61.022 89.3887 60.8497 89.1997 60.6774C89.0106 60.5051 88.8291 60.3113 88.6325 60.1174C88.5342 60.0241 88.4434 59.9164 88.3451 59.8087C88.2468 59.701 88.1485 59.6005 88.0502 59.4857C87.6569 59.0406 87.241 58.5667 86.8326 58.0427C86.0007 57.0089 85.1462 55.8315 84.2236 54.6254C83.7622 54.0224 83.3009 53.4409 82.8018 52.924C82.3027 52.4071 81.7733 51.962 81.2061 51.6174C80.6389 51.2728 80.0415 51.0431 79.4743 50.8349C78.9071 50.6339 78.3702 50.4616 77.8862 50.2749C77.4022 50.0955 76.9787 49.8944 76.6232 49.6934C76.2678 49.4924 75.9804 49.2842 75.7687 49.0976C75.5569 48.9109 75.4057 48.7458 75.3149 48.6237C75.2242 48.5089 75.1864 48.4371 75.1939 48.4371C75.2091 48.4227 75.3906 48.6812 75.8292 49.0258C76.0485 49.1981 76.3359 49.3919 76.6913 49.5786C77.0467 49.7652 77.4702 49.9447 77.9467 50.117C78.4307 50.2893 78.9676 50.4544 79.5424 50.6482C80.1171 50.8493 80.7297 51.079 81.3196 51.4308C81.9094 51.7754 82.4615 52.2348 82.9757 52.7589C83.4824 53.283 83.9589 53.8716 84.4202 54.4747C85.3504 55.6879 86.1974 56.8653 87.0141 57.8991C87.4225 58.416 87.8233 58.897 88.209 59.3421C88.3073 59.4498 88.4056 59.5574 88.4964 59.6651C88.5947 59.7728 88.6854 59.8733 88.7762 59.9738C88.9653 60.1677 89.1392 60.3615 89.3207 60.5338C89.5022 60.7061 89.6686 60.8784 89.8349 61.0292C90.0013 61.1799 90.1601 61.3307 90.3114 61.4527C90.4626 61.5819 90.6063 61.704 90.7424 61.8117C90.8786 61.9194 90.9996 62.0127 91.113 62.0988C91.1659 62.1419 91.2189 62.185 91.2718 62.2209C91.3248 62.2568 91.3701 62.2927 91.4155 62.3214C91.5063 62.386 91.5819 62.4362 91.6424 62.4793C91.7634 62.6014 91.8239 62.6516 91.8239 62.6588Z" fill="black" stroke="black" stroke-miterlimit="10"/>
<path d="M76.5249 49.6647C76.5022 49.6863 76.4039 49.6432 76.2829 49.514C76.2224 49.4494 76.1695 49.3632 76.1165 49.2699C76.0712 49.1694 76.0258 49.0545 75.9955 48.9325C75.9426 48.6884 75.9426 48.4658 75.9577 48.3079C75.9729 48.1499 76.0031 48.0494 76.0334 48.0494C76.0712 48.0494 76.1014 48.1428 76.1317 48.3007C76.1619 48.4515 76.1922 48.6668 76.2375 48.8822C76.2602 48.9899 76.2905 49.0976 76.3283 49.1837C76.3661 49.2771 76.3964 49.356 76.4342 49.4206C76.4947 49.557 76.5552 49.636 76.5249 49.6647Z" fill="black" stroke="black" stroke-miterlimit="10"/>
<path d="M88.7157 63.951C88.7157 63.9654 88.6249 64.0085 88.4586 64.0659C88.4132 64.0803 88.3678 64.0946 88.3149 64.109C88.2619 64.1305 88.209 64.1449 88.1485 64.1664C88.0275 64.2095 87.8914 64.2525 87.7477 64.3172C87.6721 64.3459 87.5964 64.3746 87.5132 64.4105C87.4301 64.4464 87.3544 64.4823 87.2637 64.5182C87.0898 64.59 86.9158 64.6833 86.7268 64.7766C86.3562 64.9705 85.9554 65.2074 85.5546 65.473C84.7454 66.0042 84.0572 66.5498 83.5581 66.9375C83.0589 67.3252 82.7413 67.5621 82.7111 67.5334C82.6884 67.5118 82.9682 67.2319 83.4371 66.8083C83.9135 66.3847 84.5866 65.8176 85.4109 65.2792C85.8193 65.0135 86.2352 64.7766 86.6133 64.59C86.8099 64.5038 86.9914 64.4105 87.1729 64.3459C87.2637 64.31 87.3469 64.2741 87.4301 64.2454C87.5132 64.2167 87.5964 64.1879 87.6721 64.1664C87.8233 64.109 87.967 64.0802 88.0956 64.0444C88.1561 64.03 88.2166 64.0156 88.2695 64.0013C88.3224 63.9941 88.3754 63.9797 88.4207 63.9726C88.6098 63.9438 88.7157 63.9367 88.7157 63.951Z" fill="black" stroke="black" stroke-miterlimit="10"/>
<path d="M89.1619 64.3818C89.1694 64.4106 89.1089 64.4608 88.9879 64.5039C88.8669 64.547 88.6854 64.5685 88.4888 64.547C88.3905 64.5398 88.2997 64.5182 88.2166 64.4895C88.1787 64.4752 88.1409 64.4608 88.1031 64.4393C88.0653 64.4177 88.0275 64.389 87.9972 64.3531L87.9821 64.3388C87.9821 64.3316 87.9821 64.3316 87.9746 64.3244C87.967 64.31 87.967 64.3029 87.9594 64.2885C87.9519 64.267 87.9519 64.2454 87.9519 64.2311C87.9519 64.1952 87.967 64.1665 87.9897 64.1449C88.0124 64.1234 88.0275 64.1162 88.0426 64.1162C88.0577 64.1162 88.0653 64.1234 88.0653 64.1306C88.0729 64.1377 88.0653 64.1449 88.0653 64.1593C88.0653 64.1665 88.0653 64.1808 88.0729 64.188C88.0804 64.2095 88.0956 64.2311 88.1182 64.2383C88.1409 64.2526 88.1939 64.2598 88.2771 64.2742C88.3527 64.2885 88.4283 64.2957 88.5115 64.31C88.8518 64.3531 89.1392 64.3172 89.1619 64.3818Z" fill="black" stroke="black" stroke-miterlimit="10"/>
<path d="M92.7011 63.6998C92.7011 63.7357 92.5045 63.7716 92.1793 63.8075C91.8617 63.8506 91.4155 63.9008 90.9466 64.0229C90.7122 64.0803 90.5004 64.1593 90.3114 64.2454C90.1223 64.3316 89.9635 64.4249 89.8349 64.511C89.5778 64.6905 89.4341 64.8269 89.4114 64.8054C89.3888 64.791 89.4795 64.6115 89.7291 64.389C89.8501 64.2813 90.0089 64.1593 90.2055 64.0588C90.4021 63.9511 90.629 63.8649 90.8786 63.8003C91.3777 63.6711 91.8314 63.6496 92.1642 63.6496C92.4969 63.6424 92.7011 63.6711 92.7011 63.6998Z" fill="black" stroke="black" stroke-miterlimit="10"/>
<path d="M94.8413 66.2556C94.8186 66.2771 94.6296 66.0976 94.4178 65.7602C94.3119 65.5879 94.1985 65.3797 94.0926 65.1428C93.9867 64.9059 93.8809 64.6403 93.7826 64.3603C93.6843 64.0803 93.5784 63.829 93.4347 63.6352C93.291 63.4414 93.1095 63.3122 92.9356 63.226C92.7616 63.1399 92.6104 63.104 92.5045 63.0824C92.3986 63.0609 92.3306 63.0537 92.3306 63.0322C92.3306 63.0178 92.3911 62.9963 92.5121 62.9891C92.6331 62.9819 92.807 63.0035 93.0112 63.0752C93.2154 63.147 93.4423 63.2906 93.6238 63.506C93.8053 63.7214 93.9187 64.0013 94.0246 64.2813C94.1229 64.5613 94.2212 64.8269 94.3119 65.0638C94.4103 65.3008 94.501 65.5089 94.5842 65.6812C94.743 66.033 94.8716 66.234 94.8413 66.2556Z" fill="black" stroke="black" stroke-miterlimit="10"/>
<path d="M94.1077 66.4853C94.1153 66.5211 93.4574 66.6217 92.4062 66.7796C91.3474 66.9304 89.8954 67.1457 88.2846 67.3826C86.6738 67.6195 85.2218 67.8349 84.163 67.9929C83.8984 68.0287 83.6639 68.0646 83.4522 68.0934C83.2404 68.1221 83.0438 68.1293 82.8925 68.1005C82.7337 68.0718 82.6279 68 82.5749 67.9354C82.522 67.8708 82.522 67.8277 82.522 67.8277C82.5295 67.8206 82.5522 67.8565 82.6052 67.9067C82.6581 67.9498 82.7564 68 82.9001 68.0144C83.0438 68.0288 83.2177 68.0144 83.4219 67.9713C83.6337 67.9282 83.8681 67.8852 84.1252 67.8349C85.1764 67.6411 86.6284 67.3898 88.2392 67.1529C89.85 66.916 91.3172 66.7365 92.3759 66.6217C92.9053 66.5642 93.3363 66.5211 93.6388 66.4996C93.9413 66.4781 94.1077 66.4709 94.1077 66.4853Z" fill="black" stroke="black" stroke-miterlimit="10"/>
<path d="M87.9821 65.3223C87.9821 65.3366 87.9292 65.3366 87.8838 65.3797C87.8611 65.3941 87.8384 65.4156 87.8233 65.4371C87.8157 65.4443 87.8157 65.4443 87.8157 65.4515H87.7477C87.6569 65.4228 87.5435 65.3869 87.4225 65.3438C87.4074 65.3366 87.3922 65.3366 87.3847 65.3294L87.362 65.3223C87.3469 65.3151 87.3317 65.3151 87.3242 65.3079L87.2561 65.2864C87.2561 65.2792 87.2485 65.2648 87.241 65.2433L87.2334 65.2289L87.2864 65.351V65.3582L87.2939 65.3797L87.3015 65.4012C87.3317 65.473 87.362 65.5448 87.3922 65.6238C87.43 65.7028 87.4603 65.7889 87.4981 65.8679C87.309 65.7817 87.1124 65.6884 86.9158 65.5951L86.7343 65.5089C86.7192 65.5017 86.704 65.4946 86.6889 65.5089C86.6814 65.5161 86.6814 65.5305 86.6814 65.5376V65.5664C86.6814 65.5879 86.6889 65.6023 86.6889 65.6238C86.704 65.7028 86.7267 65.7817 86.7494 65.8535C86.8024 66.0043 86.8629 66.1479 86.9234 66.2843L86.7343 66.3848C86.5225 66.0761 86.2805 65.8535 86.1066 65.7028C85.9327 65.552 85.8192 65.473 85.8344 65.4515C85.8495 65.43 85.978 65.4802 86.1898 65.6023C86.394 65.7315 86.6662 65.9468 86.9158 66.2627L86.7267 66.3632C86.6587 66.2268 86.583 66.0833 86.5225 65.9181C86.4923 65.8392 86.4696 65.753 86.4469 65.6597C86.4394 65.6381 86.4394 65.6166 86.4318 65.5879L86.4242 65.552V65.4946C86.4242 65.4156 86.4469 65.3438 86.4923 65.2936C86.5301 65.2577 86.5755 65.2289 86.6284 65.2289C86.6814 65.2218 86.7343 65.2433 86.7872 65.2648C86.8477 65.2936 86.9007 65.3223 86.9536 65.3438C86.9839 65.3582 87.0141 65.3797 87.0444 65.3941C87.0368 65.3797 87.0368 65.3725 87.0368 65.3582V65.351L87.0519 65.3797L87.0822 65.4515L87.0897 65.4659C87.0897 65.473 87.0897 65.473 87.0897 65.4659V65.4515L87.0822 65.4371C87.067 65.4012 87.0519 65.3582 87.0368 65.3223L86.9914 65.2146L86.9839 65.1859V65.1787L86.999 65.2218C87.0065 65.2433 87.0292 65.2936 87.0217 65.272C87.0141 65.2433 86.999 65.2218 86.9914 65.193C86.9536 65.0925 86.9158 64.9992 86.878 64.9059C86.999 64.9561 87.1049 65.0064 87.2183 65.0495C87.2712 65.071 87.3166 65.0925 87.3695 65.1141C87.3922 65.1213 87.4149 65.1356 87.4376 65.1428L87.483 65.1643C87.5359 65.193 87.5889 65.2146 87.6418 65.2361C87.6645 65.2505 87.6872 65.2577 87.7099 65.272C87.7325 65.2792 87.7401 65.2864 87.7552 65.2936C87.7628 65.3007 87.7704 65.3007 87.7779 65.3079C87.7855 65.3079 87.7855 65.3151 87.793 65.3151C87.793 65.3151 87.793 65.3079 87.8006 65.3079C87.8082 65.2936 87.8233 65.2864 87.8384 65.2792C87.8914 65.2505 87.9292 65.2577 87.9519 65.2577C87.9745 65.3079 87.9821 65.3151 87.9821 65.3223Z" fill="black" stroke="black" stroke-miterlimit="10"/>
<path d="M112.772 60.1103C112.764 60.1174 112.689 60.0815 112.545 59.9954C112.401 59.9164 112.19 59.7872 111.91 59.6436C111.358 59.3349 110.556 58.9042 109.543 58.416C109.036 58.1719 108.469 57.9135 107.864 57.655C107.561 57.5186 107.244 57.3966 106.911 57.2602C106.578 57.1309 106.246 56.9945 105.89 56.8653C104.491 56.3341 102.926 55.81 101.269 55.3146C99.6057 54.8193 98.01 54.4029 96.5504 54.0296C95.0909 53.6635 93.775 53.3332 92.6709 53.0604C92.1188 52.9168 91.6197 52.7948 91.1811 52.6799C90.7424 52.5651 90.3643 52.4717 90.0618 52.3641C89.7593 52.2564 89.54 52.1271 89.4114 52.0266C89.2829 51.9261 89.2224 51.8543 89.2299 51.8472C89.2375 51.84 89.3056 51.8974 89.4417 51.9836C89.5778 52.0697 89.7971 52.1846 90.0996 52.2779C90.3946 52.3712 90.7802 52.4502 91.2189 52.5579C91.6575 52.6584 92.1642 52.7733 92.7163 52.9025C93.8279 53.1609 95.1438 53.4624 96.6109 53.8286C98.0705 54.1875 99.6813 54.6039 101.345 55.0993C103.009 55.5946 104.582 56.1259 105.981 56.6715C106.329 56.8079 106.669 56.9443 107.002 57.0807C107.327 57.2243 107.645 57.3535 107.955 57.4899C108.567 57.7555 109.127 58.0283 109.634 58.2796C110.647 58.7893 111.441 59.2488 111.97 59.579C112.243 59.7441 112.439 59.8805 112.583 59.9739C112.704 60.0456 112.772 60.1031 112.772 60.1103Z" fill="black" stroke="black" stroke-miterlimit="10"/>
<path d="M114.36 56.0325C114.36 56.0397 114.269 56.0325 114.103 56.011C113.937 55.9894 113.695 55.9464 113.377 55.8818C113.218 55.8459 113.044 55.81 112.863 55.7597C112.772 55.7382 112.674 55.7095 112.568 55.6807C112.469 55.652 112.364 55.6233 112.25 55.5874C111.819 55.4582 111.328 55.2931 110.798 55.0849C109.739 54.6685 108.529 54.0655 107.259 53.2901C105.988 52.5148 104.657 51.5743 103.281 50.5621C102.593 50.0595 101.927 49.557 101.269 49.0976C100.619 48.6309 99.9687 48.2145 99.3032 47.8843C98.9704 47.7192 98.6452 47.5828 98.3125 47.4679C97.9797 47.353 97.6545 47.2669 97.3294 47.1879C96.6865 47.0372 96.0664 46.9582 95.5068 46.9008C94.9396 46.8433 94.4329 46.8146 93.9792 46.7859C93.5254 46.7572 93.1397 46.75 92.8145 46.7069C92.4969 46.6639 92.2549 46.5921 92.0961 46.5274C91.9449 46.4628 91.8692 46.4054 91.8768 46.4054C91.8844 46.3839 92.1944 46.5705 92.8297 46.6208C93.1397 46.6495 93.533 46.6495 93.9867 46.6639C94.4405 46.6782 94.9547 46.6926 95.5219 46.7428C96.0891 46.7931 96.7168 46.8649 97.3747 47.0084C97.7075 47.0802 98.0402 47.1664 98.3805 47.2812C98.7209 47.3961 99.0612 47.5325 99.4015 47.7048C100.082 48.0351 100.748 48.4586 101.406 48.9253C102.063 49.3919 102.729 49.8872 103.417 50.3898C104.794 51.402 106.109 52.3425 107.372 53.1178C108.628 53.9003 109.823 54.5106 110.859 54.9413C111.38 55.1567 111.857 55.3362 112.28 55.4726C112.386 55.5084 112.492 55.5372 112.59 55.5731C112.689 55.6018 112.787 55.6305 112.878 55.6592C113.059 55.7166 113.233 55.7597 113.385 55.7956C114.02 55.9464 114.36 56.011 114.36 56.0325Z" fill="black" stroke="black" stroke-miterlimit="10"/>
<path d="M114.3 59.3923C114.277 59.4067 114.118 59.2559 114.005 58.9329C113.944 58.7749 113.906 58.5811 113.891 58.3585C113.876 58.136 113.884 57.8991 113.906 57.6478C113.937 57.3965 113.974 57.1668 114.027 56.9514C114.08 56.7361 114.148 56.5494 114.232 56.3986C114.307 56.2479 114.398 56.1402 114.458 56.0684C114.526 55.9966 114.572 55.9751 114.587 55.9823C114.617 56.0038 114.496 56.1689 114.39 56.4633C114.337 56.6068 114.284 56.7863 114.247 56.9945C114.209 57.1955 114.179 57.4253 114.148 57.6693C114.126 57.9063 114.111 58.136 114.111 58.3442C114.118 58.5524 114.133 58.7318 114.171 58.8826C114.239 59.1985 114.33 59.3708 114.3 59.3923Z" fill="black" stroke="black" stroke-miterlimit="10"/>
<path d="M118.693 57.7196C118.656 57.7771 117.778 57.3463 116.652 56.93C116.372 56.8223 116.1 56.7289 115.85 56.6428C115.6 56.5566 115.374 56.4848 115.192 56.3987C115.003 56.3126 114.867 56.2192 114.784 56.1474C114.7 56.0756 114.663 56.0182 114.678 56.011C114.7 55.9823 114.897 56.1259 115.268 56.2479C115.449 56.3126 115.676 56.37 115.933 56.4418C116.19 56.5136 116.463 56.6069 116.75 56.7146C117.892 57.1381 118.724 57.6694 118.693 57.7196Z" fill="black" stroke="black" stroke-miterlimit="10"/>
<path d="M115.351 66.7653C115.336 66.7653 115.336 66.6289 115.351 66.392C115.358 66.2699 115.381 66.1263 115.404 65.9612C115.411 65.8751 115.434 65.7889 115.449 65.6956C115.464 65.6023 115.479 65.5018 115.51 65.3941C115.6 64.9777 115.744 64.4895 115.948 63.9583C116.152 63.427 116.417 62.8599 116.727 62.2855C117.037 61.7112 117.37 61.1728 117.688 60.699C117.846 60.4621 117.998 60.2395 118.141 60.0313C118.277 59.8231 118.398 59.6293 118.489 59.4355C118.671 59.0621 118.724 58.7247 118.716 58.495C118.709 58.2653 118.671 58.136 118.686 58.136C118.701 58.1289 118.777 58.2509 118.814 58.495C118.852 58.7319 118.822 59.098 118.656 59.5072C118.572 59.7083 118.459 59.9236 118.323 60.139C118.187 60.3544 118.035 60.5769 117.884 60.821C117.582 61.2948 117.257 61.8261 116.946 62.4004C116.636 62.9675 116.372 63.5275 116.16 64.0444C115.948 64.5613 115.789 65.0351 115.676 65.4443C115.442 66.2484 115.389 66.7724 115.351 66.7653Z" fill="black" stroke="black" stroke-miterlimit="10"/>
<path d="M111.849 64.3675C111.819 64.3675 111.774 64.1449 111.781 63.7716C111.781 63.585 111.804 63.3624 111.834 63.1255C111.872 62.8814 111.925 62.6158 111.993 62.343C112.137 61.7974 112.318 61.3164 112.462 60.979C112.606 60.6416 112.711 60.4334 112.749 60.4477C112.78 60.4549 112.734 60.6846 112.628 61.0364C112.53 61.3882 112.371 61.8692 112.235 62.4076C112.167 62.6732 112.106 62.9317 112.061 63.1686C112.016 63.4055 111.978 63.6137 111.955 63.7932C111.902 64.1449 111.887 64.3675 111.849 64.3675Z" fill="black" stroke="black" stroke-miterlimit="10"/>
<path d="M108.416 66.8657C108.386 66.8585 108.439 66.6216 108.643 66.2986C108.749 66.1406 108.892 65.954 109.066 65.7745C109.248 65.595 109.467 65.4155 109.702 65.2432C109.944 65.071 110.178 64.9274 110.397 64.7981C110.617 64.6761 110.813 64.5612 110.995 64.4751C111.176 64.3889 111.335 64.3459 111.449 64.3315C111.562 64.3172 111.622 64.3315 111.622 64.3459C111.622 64.3602 111.57 64.3818 111.471 64.4177C111.373 64.4536 111.237 64.5182 111.078 64.6115C110.919 64.7048 110.73 64.834 110.518 64.9704C110.307 65.1068 110.08 65.2576 109.845 65.4227C109.611 65.5878 109.399 65.753 109.218 65.9181C109.036 66.0832 108.892 66.2411 108.771 66.3847C108.552 66.6719 108.454 66.8729 108.416 66.8657Z" fill="black" stroke="black" stroke-miterlimit="10"/>
<path d="M114.375 66.6432C114.383 66.6719 114.073 66.7868 113.551 66.9232C113.029 67.0596 112.303 67.2032 111.486 67.2893C110.67 67.3826 109.921 67.397 109.384 67.3826C109.248 67.3826 109.119 67.3755 109.013 67.3539C108.9 67.3324 108.809 67.2965 108.741 67.2462C108.673 67.2032 108.635 67.1457 108.62 67.1098C108.605 67.0739 108.605 67.0524 108.613 67.0452C108.635 67.0381 108.666 67.117 108.787 67.1673C108.847 67.196 108.93 67.2103 109.029 67.2175C109.127 67.2247 109.24 67.2175 109.376 67.2104C109.913 67.1816 110.647 67.1457 111.449 67.0524C113.067 66.8801 114.353 66.5786 114.375 66.6432Z" fill="black" stroke="black" stroke-miterlimit="10"/>
<path d="M114.466 59.6364C114.436 59.6579 114.33 59.5503 114.111 59.5072C114.005 59.4857 113.869 59.4785 113.725 59.5C113.657 59.5144 113.581 59.5359 113.506 59.5646C113.43 59.5933 113.362 59.6364 113.294 59.6867C113.158 59.78 113.037 59.902 112.938 60.0169C112.84 60.1318 112.757 60.2466 112.704 60.34C112.651 60.4333 112.636 60.5123 112.643 60.5625C112.651 60.6199 112.674 60.6487 112.659 60.663C112.651 60.6774 112.598 60.6702 112.553 60.5984C112.507 60.5266 112.5 60.4046 112.538 60.2825C112.56 60.2179 112.59 60.1533 112.628 60.0887C112.666 60.0241 112.704 59.9595 112.757 59.8949C112.855 59.7585 112.984 59.6221 113.15 59.5C113.233 59.4426 113.324 59.3923 113.415 59.3564C113.506 59.3205 113.604 59.299 113.695 59.2918C113.876 59.2703 114.042 59.299 114.171 59.3564C114.3 59.4067 114.383 59.4785 114.428 59.5359C114.474 59.5862 114.481 59.6221 114.466 59.6364Z" fill="black" stroke="black" stroke-miterlimit="10"/>
<path d="M113.369 63.2403C113.362 63.2475 113.339 63.2403 113.301 63.2044C113.271 63.1686 113.233 63.1039 113.226 63.0106C113.226 62.9675 113.226 62.9101 113.241 62.8598C113.256 62.8024 113.286 62.7522 113.316 62.6947C113.332 62.666 113.354 62.6445 113.377 62.6158C113.4 62.5942 113.43 62.5583 113.437 62.5512C113.46 62.5296 113.475 62.5153 113.49 62.4937C113.468 62.4794 113.437 62.4722 113.415 62.465H113.4L113.385 62.4578C113.369 62.4506 113.347 62.4435 113.332 62.4363C113.294 62.4219 113.264 62.4076 113.226 62.3932L112.999 62.2999L113.233 62.1994C113.271 62.185 113.316 62.1635 113.354 62.1419L113.422 62.185L113.437 62.1994L113.445 62.2066L113.43 62.1994L113.377 62.1635C113.301 62.1132 113.226 62.0702 113.15 62.0199C113.112 61.9984 113.074 61.9696 113.044 61.9481C113.082 61.9266 113.127 61.905 113.165 61.8907C113.248 61.8476 113.332 61.8117 113.415 61.7686L113.506 61.7256L113.574 61.6968C113.619 61.6753 113.664 61.6609 113.702 61.6466C113.793 61.6107 113.876 61.582 113.959 61.5533C114.133 61.4958 114.3 61.4528 114.458 61.4169L114.451 61.6179C114.095 61.4958 113.763 61.4958 113.528 61.5102C113.301 61.5317 113.165 61.5604 113.158 61.5389C113.15 61.5174 113.271 61.4456 113.513 61.3881C113.748 61.3307 114.118 61.302 114.526 61.4169L114.882 61.5174L114.519 61.6179C114.368 61.6609 114.209 61.7112 114.042 61.7686C113.959 61.7974 113.876 61.8261 113.793 61.862C113.748 61.8763 113.71 61.8979 113.664 61.9122C113.634 61.9266 113.596 61.9409 113.566 61.9553L113.528 61.9696L113.513 61.9768C113.521 61.9768 113.521 61.984 113.528 61.984L113.558 62.0055L113.566 62.0127L113.642 62.063C113.71 62.1061 113.77 62.1491 113.838 62.1922C113.649 62.264 113.468 62.3286 113.294 62.3932L113.301 62.1994C113.385 62.2353 113.46 62.2712 113.536 62.3071C113.642 62.3573 113.755 62.4076 113.838 62.4506C113.74 62.5224 113.642 62.5942 113.558 62.6517C113.513 62.6876 113.506 62.6947 113.483 62.7163C113.46 62.7378 113.445 62.7522 113.43 62.7737C113.362 62.8527 113.332 62.9316 113.316 63.0034C113.324 63.1542 113.392 63.226 113.369 63.2403Z" fill="black" stroke="black" stroke-miterlimit="10"/>
<path d="M45.6094 38.8818C45.5792 38.8818 45.5187 38.5372 45.5187 37.97V37.7475C45.5187 37.6685 45.5262 37.5895 45.5338 37.5106C45.5414 37.3454 45.564 37.166 45.5867 36.9793C45.6397 36.606 45.7077 36.204 45.8212 35.7804C45.9346 35.364 46.0783 34.9692 46.222 34.6246C46.2976 34.4523 46.3657 34.2872 46.4489 34.1364C46.4867 34.0646 46.5245 33.9856 46.5623 33.921C46.6001 33.8492 46.6379 33.7846 46.6757 33.7272C46.9631 33.2318 47.19 32.9519 47.2127 32.9662C47.2429 32.9878 47.069 33.2893 46.827 33.799C46.7967 33.8636 46.7665 33.9282 46.7362 34C46.706 34.0718 46.6757 34.1436 46.6379 34.2154C46.5699 34.3661 46.5094 34.5313 46.4413 34.7036C46.3127 35.0481 46.1842 35.4358 46.0707 35.845C45.9649 36.2542 45.8817 36.6491 45.8212 37.0152C45.7985 37.1947 45.7682 37.367 45.7531 37.5321C45.7455 37.6111 45.7304 37.69 45.7229 37.769C45.7153 37.848 45.7077 37.9198 45.7077 37.9844C45.6548 38.53 45.6548 38.8818 45.6094 38.8818Z" fill="black" stroke="black" stroke-miterlimit="10"/>
<path d="M52.3098 26.4261C52.3249 26.4548 52.151 26.584 51.8485 26.7563C51.5384 26.9286 51.0922 27.144 50.5553 27.266C50.0108 27.3881 49.4966 27.3665 49.1411 27.2732C48.7857 27.1799 48.6042 27.0507 48.6193 27.0219C48.6344 26.9861 48.8386 27.065 49.1789 27.1081C49.5192 27.1512 49.9957 27.1512 50.5024 27.0291C51.0091 26.9143 51.4552 26.7276 51.7729 26.5984C52.0905 26.4692 52.2947 26.3974 52.3098 26.4261Z" fill="black" stroke="black" stroke-miterlimit="10"/>
<path d="M84.6471 25.9307C84.6395 25.9379 84.5412 25.8805 84.3597 25.7728C84.2689 25.7225 84.1555 25.6579 84.0194 25.5789C83.8832 25.5071 83.7244 25.421 83.5429 25.3349C83.1799 25.1554 82.7262 24.9615 82.1892 24.7605C81.6523 24.5595 81.0246 24.3585 80.3289 24.1575C79.6331 23.9565 78.8617 23.7339 78.045 23.5042C77.2207 23.2745 76.3434 23.0447 75.4057 22.8294C74.9368 22.7289 74.4528 22.6283 73.9612 22.5422C73.7117 22.4991 73.4621 22.4632 73.2126 22.4273C72.9554 22.3986 72.7059 22.3627 72.4412 22.334C72.1841 22.3053 71.9194 22.2909 71.6547 22.2694C71.39 22.255 71.1253 22.2407 70.8531 22.2407C70.3161 22.2335 69.7641 22.2479 69.212 22.2838C68.1079 22.3555 67.0264 22.4776 65.9904 22.6068C64.9543 22.736 63.9485 22.8868 63.0032 23.0591C62.0579 23.2314 61.1655 23.418 60.3336 23.6191C60.1294 23.6693 59.9252 23.7267 59.7211 23.777C59.6227 23.8057 59.5244 23.8272 59.4261 23.856C59.3278 23.8847 59.2295 23.9134 59.1387 23.9349C58.9497 23.9924 58.7606 24.0426 58.5791 24.0929C58.3976 24.1503 58.2237 24.2077 58.0497 24.258C56.6658 24.6959 55.5844 25.141 54.8508 25.4784C54.4802 25.6364 54.2004 25.78 54.0038 25.8661C53.8147 25.9594 53.7089 26.0025 53.7013 25.9953C53.6937 25.9881 53.7921 25.9307 53.9811 25.8302C54.1702 25.7297 54.4424 25.5718 54.8054 25.3995C55.5314 25.0405 56.6053 24.5667 57.9892 24.1072C58.1632 24.0498 58.3371 23.9924 58.5186 23.9349C58.7001 23.8775 58.8892 23.8273 59.0782 23.7698C59.1766 23.7411 59.2673 23.7124 59.3656 23.6837C59.4639 23.655 59.5622 23.6334 59.6606 23.6047C59.8572 23.5544 60.0614 23.497 60.2731 23.4396C61.105 23.2314 62.0049 23.0304 62.9502 22.8509C63.9031 22.6714 64.9014 22.5207 65.945 22.3843C66.9886 22.255 68.0701 22.1258 69.1893 22.054C69.7489 22.0181 70.301 22.0038 70.8455 22.011C71.1177 22.011 71.39 22.0325 71.6547 22.0397C71.9194 22.0612 72.1916 22.0756 72.4487 22.1115C72.7134 22.133 72.9706 22.1761 73.2277 22.2048C73.4848 22.2479 73.7344 22.2838 73.9839 22.3268C74.4831 22.413 74.9671 22.5135 75.4359 22.6212C76.3737 22.8365 77.2585 23.0806 78.0828 23.3175C78.9071 23.5544 79.6709 23.7842 80.3667 23.9924C81.0624 24.2077 81.6901 24.4159 82.2271 24.6313C82.764 24.8467 83.2177 25.0549 83.5732 25.2415C83.7547 25.3349 83.9059 25.4282 84.0421 25.5071C84.1782 25.5861 84.2841 25.6579 84.3748 25.7153C84.5639 25.8517 84.6546 25.9235 84.6471 25.9307Z" fill="black" stroke="black" stroke-miterlimit="10"/>
<path d="M75.625 33.5119C75.6099 33.5047 75.7006 33.3611 75.8821 33.1099C75.9275 33.0452 75.9804 32.9806 76.0334 32.9017C76.0939 32.8299 76.1544 32.7509 76.23 32.6648C76.3737 32.4996 76.5249 32.2986 76.7215 32.1048C76.8199 32.0043 76.9182 31.8966 77.024 31.7889C77.1299 31.6812 77.2509 31.5735 77.3644 31.4587C77.5988 31.2289 77.871 31.0064 78.1433 30.7623C78.718 30.2957 79.376 29.8147 80.0944 29.3552C80.8204 28.8958 81.5313 28.5009 82.1968 28.1635C82.5295 27.9984 82.8472 27.8404 83.1421 27.6968C83.437 27.5533 83.7244 27.4312 83.9815 27.3164C84.2387 27.2015 84.4731 27.1082 84.6849 27.022C84.889 26.9359 85.0705 26.8641 85.2218 26.8138C85.5167 26.7061 85.6831 26.6487 85.6907 26.6631C85.7058 26.6918 85.0705 26.9861 84.0647 27.4671C83.8152 27.5892 83.5353 27.7184 83.2404 27.8691C82.9455 28.0127 82.6354 28.1778 82.3102 28.3501C81.6599 28.7019 80.9565 29.0968 80.2381 29.549C79.5272 30.0013 78.8693 30.4751 78.2945 30.9274C78.0147 31.1572 77.7425 31.3725 77.508 31.5951C77.387 31.7028 77.266 31.8033 77.1602 31.911C77.0543 32.0186 76.9484 32.1191 76.8501 32.2125C76.6459 32.3991 76.4871 32.5858 76.3359 32.7437C76.2602 32.8227 76.1922 32.8945 76.1241 32.9663C76.0636 33.0381 76.0107 33.1027 75.9577 33.1601C75.7535 33.397 75.6401 33.5191 75.625 33.5119Z" fill="black" stroke="black" stroke-miterlimit="10"/>
<path d="M52.6425 44.3522C52.5745 44.3522 52.5594 43.6989 52.7711 42.9164C52.8997 42.4426 53.0736 42.0406 53.2097 41.8108C53.2249 41.7821 53.2475 41.7606 53.2551 41.7534L53.2778 41.7319C53.2854 41.7247 53.2854 41.7247 53.2854 41.7175C53.2929 41.7175 53.2929 41.7103 53.2929 41.7103H53.2854L53.2929 41.696C53.2929 41.696 53.2929 41.7032 53.3005 41.7032C53.2929 41.7032 53.2929 41.7103 53.2929 41.7103C53.2854 41.7175 53.2854 41.7103 53.2854 41.7175V41.7247C53.2854 41.7247 53.2854 41.7319 53.2778 41.7319C53.2702 41.7319 53.2551 41.7319 53.2551 41.7175C53.2475 41.7103 53.2475 41.696 53.2475 41.6816C53.2475 41.6673 53.2551 41.6457 53.2929 41.6385H53.3307C53.3307 41.6385 53.3383 41.6385 53.3459 41.6457C53.361 41.6529 53.3685 41.6601 53.3761 41.6744C53.3912 41.696 53.3912 41.7247 53.3912 41.7462C53.3837 41.775 53.3685 41.7965 53.361 41.8108C53.3459 41.8324 53.3459 41.8396 53.3459 41.8467C53.2778 42.0908 53.1417 42.5 53.0131 42.9595C52.8014 43.7277 52.7106 44.3522 52.6425 44.3522Z" fill="black" stroke="black" stroke-miterlimit="10"/>
</g>
<defs>
<clipPath id="clip0_5_349">
<rect width="121" height="86.1487" fill="white"/>
</clipPath>
</defs>
</svg>
