<svg width="170" height="66" viewBox="0 0 170 66" fill="none" xmlns="http://www.w3.org/2000/svg">
<g clip-path="url(#clip0_2_47)">
<path d="M76.2348 64.4404C74.9651 64.4396 73.7161 64.6487 72.6059 65.048H79.8543C78.7475 64.6489 77.5015 64.4397 76.2348 64.4404Z" fill="#E6E6E6"/>
<path d="M90.3004 63.8328C88.1795 63.8312 86.11 64.2558 84.3769 65.048H96.2159C94.4852 64.2567 92.4186 63.8322 90.3004 63.8328Z" fill="#E6E6E6"/>
<path d="M56.2076 23.1673C56.2076 23.1673 48.5634 21.6244 49.7369 24.1628C50.9104 26.7013 57.349 25.419 57.349 25.419L56.2076 23.1673Z" fill="#FFB8B8"/>
<path d="M85.4284 13.6395C85.4284 13.6395 81.5108 10.1708 77.7047 13.7718C73.8911 17.3799 70.3455 20.342 70.3455 20.342L60.8741 22.343L55.3946 22.658L56.9041 25.8146L72.8361 24.317C72.8361 24.317 90.5734 17.4899 85.4284 13.6395Z" fill="#2F2E41"/>
<path d="M67.9426 32.8495C67.9426 32.8495 61.9914 35.5488 62.3881 37.991C62.7849 40.4332 65.3637 47.1171 65.3637 47.1171L70.7198 46.603C70.7198 46.603 71.3149 41.4615 69.3312 39.5335L78.8531 36.063L67.9426 32.8495Z" fill="#FFB8B8"/>
<path d="M81.1343 39.2121C81.1343 39.2121 80.7376 43.9679 81.7294 45.896C82.7213 47.824 83.7132 55.0221 83.7132 55.0221H89.2676C89.2676 55.0221 91.8464 48.7238 88.6725 45.896C88.6725 45.896 87.6806 42.1684 90.4578 40.3689L81.1343 39.2121Z" fill="#FFB8B8"/>
<path d="M79.8449 26.037C79.8449 26.037 66.9507 31.3071 66.9507 32.978L77.2661 38.5051L80.8368 35.9344L80.44 39.7905L91.5489 41.2044C91.5489 41.2044 95.5163 31.4356 95.318 31.05C95.1196 30.6644 94.5245 25.0087 94.5245 25.0087L79.8449 26.037Z" fill="#2F2E41"/>
<path d="M70.7198 45.9603L64.967 46.7315L65.9891 49.4542C66.4922 50.7943 66.5495 52.1884 66.1572 53.544C66.1572 53.544 72.1084 54.5722 72.1084 54.0581C72.1084 53.544 70.7198 51.4874 71.1165 50.0735C71.5133 48.6596 70.7198 45.9603 70.7198 45.9603Z" fill="#6C63FF"/>
<path d="M73.6954 55.6005C73.497 55.0864 71.8488 52.7553 71.7802 53.1496C71.7116 53.5439 68.5377 54.1866 67.3475 53.4154C67.3475 53.4154 65.7605 52.5157 65.1654 53.4154C64.5702 54.3152 63.38 55.8576 63.38 55.8576C63.38 55.8576 58.0239 57.5286 58.8174 58.4283C58.9779 58.6103 59.4226 58.6871 60.0296 58.6938C60.0154 58.7176 60.0079 58.7429 60.0077 58.7684V58.8595C60.0077 58.9156 60.0421 58.9694 60.1033 59.0091C60.1645 59.0487 60.2475 59.071 60.3341 59.071H60.4747C60.5613 59.071 60.6443 59.0487 60.7055 59.0091C60.7668 58.9694 60.8012 58.9156 60.8012 58.8595V58.7684C60.8008 58.7356 60.7886 58.7033 60.7655 58.6741C60.9277 58.6649 61.0961 58.6528 61.2691 58.638C61.2233 58.675 61.1982 58.721 61.1979 58.7684V58.8595C61.1979 58.9156 61.2323 58.9694 61.2935 59.0091C61.3547 59.0487 61.4378 59.071 61.5244 59.071H61.6649C61.7515 59.071 61.8346 59.0487 61.8958 59.0091C61.957 58.9694 61.9914 58.9156 61.9914 58.8595V58.7684C61.9912 58.7307 61.9755 58.6938 61.9458 58.6614C61.9161 58.629 61.8735 58.6024 61.8226 58.5843C62.2791 58.5349 62.7557 58.4721 63.2295 58.4024C63.1985 58.4352 63.1819 58.4729 63.1816 58.5113V58.6024C63.1816 58.6585 63.216 58.7123 63.2773 58.752C63.3385 58.7917 63.4215 58.814 63.5081 58.814H63.6487C63.7352 58.814 63.8183 58.7917 63.8795 58.752C63.9407 58.7123 63.9751 58.6585 63.9751 58.6024V58.5113C63.9751 58.4704 63.9567 58.4304 63.9223 58.3962C63.8878 58.3619 63.8388 58.3349 63.781 58.3183C64.1364 58.2622 64.4848 58.2036 64.8163 58.1456C64.7854 58.1783 64.7689 58.2159 64.7686 58.2543V58.3454C64.7686 58.4015 64.803 58.4553 64.8642 58.4949C64.9255 58.5346 65.0085 58.5569 65.0951 58.5569H65.2356C65.3222 58.5569 65.4053 58.5346 65.4665 58.4949C65.5277 58.4553 65.5621 58.4015 65.5621 58.3454V58.2543C65.5619 58.2093 65.5396 58.1655 65.4983 58.1294C65.457 58.0932 65.3989 58.0665 65.3325 58.0533C66.4975 57.8407 67.3475 57.6571 67.3475 57.6571C67.3475 57.6571 68.3345 57.4244 69.5296 57.11V57.1885C69.5296 57.2446 69.5639 57.2984 69.6252 57.3381C69.6864 57.3778 69.7694 57.4001 69.856 57.4001H69.9966C70.0832 57.4001 70.1662 57.3778 70.2274 57.3381C70.2886 57.2984 70.323 57.2446 70.323 57.1885V57.0974C70.3229 57.0654 70.3115 57.0337 70.2896 57.005C70.2677 56.9762 70.236 56.9511 70.1968 56.9315C70.4367 56.8661 70.6787 56.7989 70.9182 56.7306V56.8029C70.9182 56.859 70.9525 56.9128 71.0138 56.9525C71.075 56.9922 71.158 57.0144 71.2446 57.0144H71.3852C71.4718 57.0144 71.5548 56.9922 71.616 56.9525C71.6773 56.9128 71.7116 56.859 71.7116 56.8029V56.7118C71.7116 56.6778 71.6989 56.6443 71.6746 56.6141C71.6502 56.584 71.615 56.5581 71.5719 56.5387C71.8308 56.4604 72.0801 56.3823 72.31 56.3057C72.3089 56.3125 72.3068 56.3192 72.3068 56.3262V56.4173C72.3068 56.4734 72.3412 56.5272 72.4024 56.5669C72.4636 56.6065 72.5466 56.6288 72.6332 56.6288H72.7738C72.8604 56.6288 72.9434 56.6065 73.0046 56.5669C73.0659 56.5272 73.1003 56.4734 73.1003 56.4173V56.3262C73.1002 56.2774 73.0742 56.2302 73.0266 56.1924C72.979 56.1546 72.9127 56.1287 72.839 56.1189C73.3937 55.9102 73.7434 55.7251 73.6954 55.6005Z" fill="#2F2E41"/>
<path d="M89.6643 54.4437L83.3799 54.1866C83.3799 54.1866 83.7608 58.4284 82.999 59.8423C82.2373 61.2562 82.6182 61.7703 82.6182 61.7703L88.1408 62.0274L89.6643 54.4437Z" fill="#6C63FF"/>
<path d="M89.7417 63.8184C89.7131 63.2888 88.8513 60.7863 88.6573 61.1627C88.4634 61.5391 85.1523 61.7388 84.2364 60.8237C84.2364 60.8237 82.9739 59.7293 82.1023 60.5289C81.2307 61.3285 79.5703 62.6762 79.5703 62.6762C79.5703 62.6762 73.7943 63.5869 74.2808 64.5741C74.3792 64.7737 74.7894 64.9089 75.3809 64.9975C75.3593 65.0188 75.3439 65.0425 75.3354 65.0674L75.3061 65.1565C75.2881 65.2114 75.3044 65.2687 75.3515 65.3157C75.3986 65.3628 75.4727 65.3958 75.5573 65.4075L75.6948 65.4265C75.7795 65.4382 75.8679 65.4276 75.9405 65.3971C76.0132 65.3666 76.0641 65.3186 76.0822 65.2637L76.1115 65.1746C76.1217 65.1425 76.1202 65.1093 76.1069 65.0776C76.2686 65.0905 76.4371 65.1014 76.6111 65.1103C76.5544 65.1403 76.515 65.1819 76.4995 65.2282L76.4702 65.3173C76.4521 65.3722 76.4685 65.4295 76.5156 65.4765C76.5627 65.5236 76.6367 65.5566 76.7214 65.5683L76.8589 65.5873C76.9436 65.599 77.0319 65.5884 77.1046 65.5579C77.1772 65.5274 77.2282 65.4794 77.2462 65.4245L77.2755 65.3355C77.2875 65.2986 77.284 65.2603 77.2654 65.2246C77.2468 65.1889 77.2137 65.1571 77.1697 65.1325C77.6321 65.1459 78.1184 65.1489 78.6042 65.1448C78.5633 65.1726 78.535 65.2073 78.5223 65.2448L78.493 65.3339C78.475 65.3888 78.4913 65.4461 78.5384 65.4931C78.5855 65.5402 78.6596 65.5732 78.7442 65.5849L78.8817 65.6039C78.9664 65.6156 79.0548 65.605 79.1274 65.5745C79.2001 65.544 79.251 65.496 79.2691 65.4411L79.2984 65.352C79.3115 65.312 79.3064 65.2704 79.2837 65.2323C79.2611 65.1941 79.2218 65.161 79.1707 65.137C79.5363 65.1301 79.8959 65.12 80.2388 65.108C80.198 65.1358 80.1698 65.1703 80.1572 65.2078L80.1279 65.2969C80.1098 65.3518 80.1261 65.409 80.1732 65.4561C80.2203 65.5032 80.2944 65.5362 80.3791 65.5479L80.5165 65.5669C80.6012 65.5786 80.6896 65.568 80.7622 65.5375C80.8349 65.5069 80.8858 65.459 80.9039 65.4041L80.9332 65.315C80.9475 65.271 80.9397 65.2252 80.911 65.1842C80.8822 65.1433 80.834 65.1094 80.7734 65.0875C81.9812 65.0369 82.8715 64.9722 82.8715 64.9722C82.8715 64.9722 83.9117 64.878 85.1817 64.732L85.1564 64.8087C85.1383 64.8636 85.1547 64.9208 85.2018 64.9679C85.2489 65.015 85.3229 65.048 85.4076 65.0597L85.5451 65.0787C85.6298 65.0904 85.7182 65.0798 85.7908 65.0493C85.8634 65.0188 85.9144 64.9708 85.9324 64.9159L85.9618 64.8268C85.9719 64.7954 85.9709 64.763 85.9588 64.7319C85.9466 64.7008 85.9237 64.6719 85.8917 64.6475C86.1474 64.616 86.4057 64.583 86.6618 64.5485L86.6386 64.6192C86.6205 64.674 86.6368 64.7313 86.6839 64.7784C86.7311 64.8255 86.8051 64.8585 86.8898 64.8702L87.0272 64.8892C87.1119 64.9009 87.2003 64.8903 87.273 64.8598C87.3456 64.8292 87.3966 64.7813 87.4146 64.7264L87.4439 64.6373C87.4548 64.604 87.4532 64.5695 87.4391 64.5368C87.425 64.504 87.3989 64.4739 87.363 64.4491C87.6413 64.4075 87.9103 64.3648 88.1598 64.3209C88.1566 64.3275 88.1523 64.3337 88.15 64.3406L88.1207 64.4297C88.1027 64.4845 88.119 64.5418 88.1661 64.5889C88.2132 64.6359 88.2873 64.6689 88.3719 64.6806L88.5094 64.6996C88.5941 64.7113 88.6825 64.7007 88.7551 64.6702C88.8278 64.6397 88.8787 64.5917 88.8968 64.5369L88.9261 64.4478C88.9418 64.4001 88.9315 64.3503 88.8971 64.307C88.8627 64.2636 88.8063 64.2293 88.7373 64.2098C89.347 64.0806 89.7486 63.9468 89.7417 63.8184Z" fill="#2F2E41"/>
<path d="M79.8449 9.32729C83.0221 9.32729 85.5977 7.6584 85.5977 5.59973C85.5977 3.54105 83.0221 1.87216 79.8449 1.87216C76.6677 1.87216 74.0921 3.54105 74.0921 5.59973C74.0921 7.6584 76.6677 9.32729 79.8449 9.32729Z" fill="#FFB8B8"/>
<path d="M85.0026 5.21415C85.0026 5.21415 88.1766 7.78489 89.7635 7.65635L82.8205 11.1268C82.8205 11.1268 82.027 8.94172 81.0352 8.68465C80.0433 8.42757 85.0026 5.21415 85.0026 5.21415Z" fill="#FFB8B8"/>
<path d="M97.4009 24.3018C97.4009 24.3018 97.4004 10.1183 93.7284 8.89646C90.0585 7.67536 87.6309 6.97842 87.6309 6.97842C87.5769 7.44382 87.3727 7.89669 87.0317 8.30778C86.6907 8.71886 86.2204 9.07902 85.6511 9.36498C84.4343 9.97369 83.222 10.4784 82.5448 10.48L82.5229 10.4199L82.4403 10.267L80.44 12.2836C80.44 12.2836 78.6547 12.5407 78.0596 13.3119C77.7376 13.7292 79.2559 17.9294 78.3571 21.7311C77.5946 24.9566 74.3815 27.8682 74.2905 28.2222C74.1366 28.8206 78.0418 27.2528 79.8004 26.5199C79.8264 26.5387 79.8449 26.5512 79.8449 26.5512C79.8449 26.5512 78.8531 26.8083 80.8368 26.4227C81.9608 26.2042 83.5301 26.1921 84.6797 26.2226C84.6783 26.4459 84.6864 26.6233 84.705 26.744C84.9034 28.0294 94.822 29.8289 96.2106 29.4433C97.5993 29.0577 97.4009 24.3018 97.4009 24.3018Z" fill="#2F2E41"/>
<path d="M90.4578 29.1862C90.4578 29.1862 84.5067 32.6567 88.4741 33.2994C92.4416 33.9421 94.0285 29.7004 94.0285 29.7004L90.4578 29.1862Z" fill="#FFB8B8"/>
<path d="M83.5148 38.1838C83.5148 38.1838 86.292 36.5128 87.879 37.4126C89.466 38.3123 90.4578 38.955 90.4578 38.955C90.4578 38.955 85.8953 37.1555 83.5148 38.1838Z" fill="#6C63FF"/>
<path d="M84.2362 58.1775C84.2362 58.1775 85.8015 57.2357 86.696 57.7428C87.5905 58.2499 88.1495 58.6122 88.1495 58.6122C88.1495 58.6122 85.5779 57.5979 84.2362 58.1775Z" fill="#2F2E41"/>
<path d="M66.6994 52.0155C66.6994 52.0155 67.7739 50.8192 68.8575 51.1358C69.941 51.4523 70.6386 51.6934 70.6386 51.6934C70.6386 51.6934 67.7227 51.208 66.6994 52.0155Z" fill="#2F2E41"/>
<path d="M95.9019 10.66C93.9355 8.09883 87.9523 9.49571 88.9245 12.2861C88.939 12.3277 88.9542 12.3697 88.9701 12.4122C89.9948 15.0536 91.6693 17.5709 93.9294 19.8673L91.7473 26.1656L89.3668 29.379L94.3261 30.1502L100.476 20.51C100.476 20.51 98.7794 14.4079 95.9019 10.66Z" fill="#2F2E41"/>
<path opacity="0.2" d="M93.0367 20.0602L89.2676 29.3148L92.4416 24.9446L93.0367 20.0602Z" fill="black"/>
<path d="M83.4579 1.25469C83.4579 1.25469 80.2779 -0.914559 77.0771 0.451552C73.8763 1.81766 72.3579 3.14471 72.6718 4.06871C72.9856 4.9927 73.9144 6.27794 73.9144 6.27794C73.9144 6.27794 73.3371 4.36368 75.9875 4.22203C78.6378 4.08037 82.2995 2.94389 82.2995 2.94389L84.7763 6.37118C84.7763 6.37118 85.1265 5.57696 86.0972 5.80476C87.068 6.03257 86.3155 1.50877 83.4579 1.25469Z" fill="#2F2E41"/>
<path d="M63.0824 50.2662C63.0822 50.5918 63.0404 50.9169 62.9575 51.238V51.2393C62.7297 52.1031 62.202 52.9221 61.4143 53.6344C60.6266 54.3468 59.5995 54.9339 58.4104 55.3515C57.2213 55.769 55.9014 56.0061 54.5502 56.0448C53.1991 56.0835 51.8521 55.9228 50.6108 55.5748H50.6088C50.2415 55.4721 49.8856 55.3532 49.5435 55.2188C48.4834 54.804 47.5678 54.2511 46.8548 53.5951C46.1418 52.939 45.6469 52.1941 45.4015 51.4077C45.2865 51.0318 45.2287 50.6495 45.2289 50.2662C45.2289 50.0914 45.2408 49.9179 45.2646 49.747V49.7457C45.4705 48.2697 46.5428 46.9012 48.2605 45.9226C49.9781 44.944 52.21 44.4299 54.4955 44.4865C56.7811 44.543 58.9459 45.1659 60.5434 46.2265C62.1408 47.2872 63.049 48.7047 63.0805 50.1866V50.1878C63.0824 50.2148 63.0824 50.2392 63.0824 50.2662Z" fill="#6C63FF"/>
<path d="M56.3531 48.3343H52.355L50.3559 46.0913L51.7119 44.5685L51.7911 44.5547C53.5077 44.2575 55.3206 44.2903 57.0088 44.6492L57.0807 44.6646L58.3522 46.0913L56.3531 48.3343ZM52.584 48.0772H56.1241L57.8941 46.0913L56.8131 44.8783C55.2443 44.5559 53.5675 44.5251 51.9731 44.7894L50.8141 46.0913L52.584 48.0772Z" fill="white"/>
<path d="M56.1547 52.9619H52.1567L50.1575 50.7184L52.1567 48.4749H56.1547L58.1538 50.7184L56.1547 52.9619ZM52.3856 52.7048H55.9257L57.6957 50.7184L55.9257 48.732H52.3856L50.6157 50.7184L52.3856 52.7048Z" fill="white"/>
<path d="M54.1557 56.179C52.9089 56.1806 51.675 56.015 50.5317 55.6928L50.3278 55.6354L52.3549 53.3589H56.3531L58.2948 55.5382L58.1019 55.5982C56.8711 55.9826 55.5219 56.1811 54.1557 56.179ZM50.895 55.5128C51.9858 55.7971 53.1538 55.9359 54.3293 55.9209C55.5048 55.9058 56.6634 55.7372 57.736 55.4251L56.1241 53.616H52.5841L50.895 55.5128Z" fill="white"/>
<path d="M62.8994 50.648H58.9013L56.9022 48.405L58.9012 46.1608H60.7217L60.7804 46.2008C62.3592 47.277 63.2517 48.7002 63.2789 50.185V50.2222L62.8994 50.648ZM59.1303 50.3909H62.6704L62.8814 50.1543C62.843 48.7651 62.0129 47.4342 60.5507 46.4178H59.1304L57.3604 48.405L59.1303 50.3909Z" fill="white"/>
<path d="M58.8462 55.3412L56.9022 53.1609L58.9012 50.9167H62.8992L63.1559 51.2034L63.1531 51.2609C62.9363 52.0794 62.4565 52.8593 61.7445 53.55C61.0326 54.2406 60.1046 54.8265 59.0206 55.2698L58.8462 55.3412ZM57.3603 53.1609L58.982 54.9795C59.9644 54.5566 60.8047 54.0093 61.4522 53.3705C62.0998 52.7317 62.5412 52.0146 62.75 51.2624L62.6706 51.1738H59.1304L57.3603 53.1609Z" fill="white"/>
<path d="M49.6141 55.3967L49.441 55.3289C48.3576 54.9046 47.422 54.3393 46.6932 53.6687C45.9644 52.9981 45.4584 52.2368 45.207 51.433L45.1923 51.3854L45.6104 50.9167H49.6085L51.6075 53.161L49.6141 55.3967ZM45.611 51.4297C45.852 52.1677 46.3178 52.8671 46.9811 53.487C47.6444 54.1069 48.492 54.6348 49.4742 55.0398L51.1494 53.1609L49.3793 51.1738H45.8393L45.611 51.4297Z" fill="white"/>
<path d="M49.6084 50.3909H45.6105L45.0663 49.7815V49.7469C45.2622 48.2903 46.2865 46.9328 47.9405 45.938L47.9976 45.9036H49.6085L51.6076 48.1479L49.6084 50.3909ZM45.8393 50.1338H49.3795L51.1494 48.1479L49.3794 46.1607H48.1542C46.6237 47.0966 45.6693 48.3605 45.4679 49.7178L45.8393 50.1338Z" fill="white"/>
</g>
<defs>
<clipPath id="clip0_2_47">
<rect width="169.648" height="65.473" fill="white" transform="scale(1.00207)"/>
</clipPath>
</defs>
</svg>
