<svg width="30" height="30" viewBox="0 0 30 30" fill="none" xmlns="http://www.w3.org/2000/svg">
<path d="M12.7575 12.4262H16.4438V18.2913C15.9413 18.5425 15.2712 18.6263 14.7687 18.6263C13.4287 18.6263 12.7575 17.9563 12.7575 16.4475V12.4262ZM29.5951 18.4463C27.6913 26.5076 19.6138 31.4988 11.5537 29.5951C3.49244 27.6926 -1.49884 19.6138 0.40492 11.5537C2.30868 3.49244 10.3862 -1.49884 18.4463 0.40492C26.5076 2.30868 31.4988 10.3862 29.5951 18.4463ZM21.8063 11.0862C21.8012 10.7991 21.6848 10.5251 21.4817 10.322C21.2786 10.119 21.0047 10.0026 20.7175 9.99747H18.7063L14.0987 4.71994C13.68 4.21744 13.01 4.04994 12.34 4.21744L10.7475 4.71869C10.4962 4.80244 10.4125 5.13745 10.58 5.30495L15.6063 10.08H7.98246C7.73121 10.08 7.56371 10.2475 7.56371 10.4987V11.3362C7.56371 11.9225 8.06621 12.425 8.65246 12.425H9.82497V16.4463C9.82497 19.4625 11.4162 21.2213 14.0975 21.2213C14.935 21.2213 15.605 21.1375 16.4438 20.8025V23.4838C16.4438 24.2376 17.03 24.8238 17.7838 24.8238H18.9563C19.0867 24.815 19.2094 24.7593 19.3018 24.6669C19.3942 24.5745 19.45 24.4517 19.4588 24.3213V12.3425H21.3863C21.6375 12.3425 21.805 12.175 21.805 11.9237V11.0862H21.8063Z" fill="#6C63FF"/>
</svg>
