<svg width="12" height="12" viewBox="0 0 12 12" fill="none" xmlns="http://www.w3.org/2000/svg">
<path d="M4.50042 0.208C4.57364 0.296963 4.61849 0.405837 4.62919 0.520555C4.63989 0.635273 4.61593 0.750562 4.56043 0.851527C4.12678 1.64767 3.90032 2.54007 3.90186 3.44664C3.90186 6.46251 6.36059 8.90461 9.39088 8.90461C9.78617 8.90461 10.171 8.86336 10.5407 8.78461C10.6541 8.76006 10.7722 8.76945 10.8802 8.8116C10.9883 8.85375 11.0815 8.9268 11.1483 9.02162C11.2188 9.12021 11.2547 9.23933 11.2505 9.36046C11.2463 9.48159 11.2022 9.59793 11.125 9.6914C10.5367 10.414 9.7946 10.9962 8.95271 11.3956C8.11082 11.795 7.19041 12.0015 6.25858 12C2.80076 12 0 9.21438 0 5.78223C0 3.19913 1.58565 0.983532 3.84336 0.0444933C3.95582 -0.00303478 4.08067 -0.0127897 4.19915 0.0166939C4.31764 0.0461775 4.42335 0.113308 4.50042 0.208Z" fill="#000080"/>
<path d="M8.09623 2.36101C8.10698 2.32853 8.1277 2.30027 8.15544 2.28023C8.18318 2.2602 8.21652 2.24942 8.25074 2.24942C8.28496 2.24942 8.3183 2.2602 8.34604 2.28023C8.37378 2.30027 8.3945 2.32853 8.40525 2.36101L8.69553 3.23255C8.82529 3.62107 9.12982 3.92558 9.51836 4.05533L10.3899 4.3456C10.4224 4.35635 10.4507 4.37707 10.4707 4.40481C10.4908 4.43254 10.5015 4.46589 10.5015 4.5001C10.5015 4.53432 10.4908 4.56766 10.4707 4.5954C10.4507 4.62314 10.4224 4.64385 10.3899 4.65461L9.51836 4.94487C9.32673 5.00871 9.15261 5.1163 9.00979 5.25912C8.86697 5.40193 8.75938 5.57604 8.69553 5.76766L8.40525 6.63919C8.3945 6.67167 8.37378 6.69994 8.34604 6.71997C8.3183 6.74 8.28496 6.75079 8.25074 6.75079C8.21652 6.75079 8.18318 6.74 8.15544 6.71997C8.1277 6.69994 8.10698 6.67167 8.09623 6.63919L7.80595 5.76766C7.7421 5.57604 7.63451 5.40193 7.49169 5.25912C7.34887 5.1163 7.17475 5.00871 6.98312 4.94487L6.11154 4.65461C6.07906 4.64385 6.05079 4.62314 6.03076 4.5954C6.01072 4.56766 5.99994 4.53432 5.99994 4.5001C5.99994 4.46589 6.01072 4.43254 6.03076 4.40481C6.05079 4.37707 6.07906 4.35635 6.11154 4.3456L6.98312 4.05533C7.17475 3.99149 7.34887 3.8839 7.49169 3.74109C7.63451 3.59828 7.7421 3.42416 7.80595 3.23255L8.09623 2.36101ZM10.3982 0.0741676C10.4056 0.0528115 10.4195 0.0342929 10.4379 0.0211866C10.4563 0.00808032 10.4783 0.0010376 10.501 0.0010376C10.5236 0.0010376 10.5456 0.00808032 10.564 0.0211866C10.5824 0.0342929 10.5963 0.0528115 10.6037 0.0741676L10.7972 0.654692C10.8835 0.914203 11.0868 1.11746 11.3463 1.20371L11.9268 1.39722C11.9482 1.40463 11.9667 1.4185 11.9798 1.43692C11.9929 1.45533 12 1.47737 12 1.49998C12 1.52258 11.9929 1.54462 11.9798 1.56304C11.9667 1.58145 11.9482 1.59533 11.9268 1.60273L11.3463 1.79624C11.2184 1.83878 11.1022 1.91056 11.0069 2.00586C10.9116 2.10116 10.8398 2.21737 10.7972 2.34526L10.6037 2.92579C10.5963 2.94714 10.5824 2.96566 10.564 2.97877C10.5456 2.99187 10.5236 2.99892 10.501 2.99892C10.4783 2.99892 10.4563 2.99187 10.4379 2.97877C10.4195 2.96566 10.4056 2.94714 10.3982 2.92579L10.2047 2.34526C10.1621 2.21737 10.0903 2.10116 9.99504 2.00586C9.89973 1.91056 9.78352 1.83878 9.65562 1.79624L9.07507 1.60273C9.05371 1.59533 9.03519 1.58145 9.02208 1.56304C9.00898 1.54462 9.00193 1.52258 9.00193 1.49998C9.00193 1.47737 9.00898 1.45533 9.02208 1.43692C9.03519 1.4185 9.05371 1.40463 9.07507 1.39722L9.65562 1.20371C9.91515 1.11746 10.1184 0.914203 10.2047 0.654692L10.3982 0.0749177V0.0741676Z" fill="#000080"/>
</svg>
