<svg width="7" height="15" viewBox="0 0 7 15" fill="none" xmlns="http://www.w3.org/2000/svg">
<path d="M5.83693 14.9999C5.68755 15.0005 5.53996 14.9651 5.40499 14.8965C5.27003 14.828 5.15112 14.7278 5.05701 14.6035L0.227466 8.17557C0.0803986 7.98387 0 7.74342 0 7.49527C0 7.24713 0.0803986 7.00668 0.227466 6.81498L5.22699 0.387019C5.39672 0.168237 5.6406 0.030652 5.905 0.00453332C6.16941 -0.0215853 6.43266 0.0659013 6.63686 0.247747C6.84106 0.429592 6.96947 0.690901 6.99385 0.974188C7.01822 1.25748 6.93657 1.53953 6.76685 1.75832L2.29727 7.50063L6.61686 13.2429C6.73913 13.4002 6.8168 13.5917 6.84068 13.7948C6.86456 13.9978 6.83364 14.204 6.75159 14.3888C6.66955 14.5736 6.5398 14.7294 6.3777 14.8377C6.21561 14.946 6.02795 15.0023 5.83693 14.9999Z" fill="black"/>
</svg>
