<svg width="132" height="72" viewBox="0 0 132 72" fill="none" xmlns="http://www.w3.org/2000/svg">
<g clip-path="url(#clip0_3_106)">
<path d="M0.982233 47.6704C0.787673 47.6704 0.630234 47.6264 0.630234 47.572V19.8342C0.630234 12.8541 20.9372 7.17554 45.8982 7.17554H122.331C122.525 7.17554 122.683 7.21956 122.683 7.27397C122.683 7.32838 122.525 10.0301 122.331 10.0301L45.8982 7.3724C21.3257 7.3724 1.33423 12.9628 1.33423 19.8342V47.572C1.33423 47.6264 1.17679 47.6704 0.982233 47.6704Z" fill="#3F3D56"/>
<path d="M122.598 0C122.793 0 122.95 0.0440259 122.95 0.0984325V27.8362C122.95 34.8163 102.643 40.4949 77.682 40.4949H1.24967C1.05511 40.4949 0.897675 40.4509 0.897675 40.3964C0.897675 40.342 1.05511 40.298 1.24967 40.298H77.682C102.255 40.298 122.246 34.7076 122.246 27.8362V0.0984325C122.246 0.0440259 122.403 0 122.598 0Z" fill="#3F3D56"/>
<path d="M87.1471 26.3112C87.1471 25.8858 87.7524 25.4696 88.8895 25.1598L104.923 20.7922C105.342 20.347 106.141 19.9307 107.237 19.5874C108.562 19.1614 110.187 18.8523 111.814 18.7174C113.469 18.5799 114.932 18.6383 115.933 18.8816C117.975 19.3779 117.396 20.5025 114.643 21.3882C113.582 21.7392 112.22 22.0185 110.702 22.1963L96.1474 26.3918L104.16 29.7874C105.712 30.2933 106.056 30.9937 105.045 31.61C104.068 32.2055 102.026 32.5765 99.7155 32.5781C97.244 32.5798 95.0557 32.1661 94.1399 31.5242L87.5592 26.9093C87.2818 26.7147 87.147 26.5119 87.147 26.3112H87.1471Z" fill="#FFB6B6"/>
<path d="M100.598 22.3341C107.597 22.3341 113.27 20.7476 113.27 18.7905C113.27 16.8335 107.597 15.2469 100.598 15.2469C93.5995 15.2469 87.9261 16.8335 87.9261 18.7905C87.9261 20.7476 93.5995 22.3341 100.598 22.3341Z" fill="#3F3D56"/>
<path d="M107.198 28.274L97.766 30.2846L109.732 32.5829L115.737 28.9837L107.198 28.274Z" fill="#FFB6B6"/>
<path d="M112.343 30.0038C117.858 30.0038 122.328 28.7537 122.328 27.2115C122.328 25.6694 117.858 24.4193 112.343 24.4193C106.828 24.4193 102.358 25.6694 102.358 27.2115C102.358 28.7537 106.828 30.0038 112.343 30.0038Z" fill="#FFB6B6"/>
<path d="M113.119 30.3405C113.119 30.3405 115.369 28.3263 113.915 27.9456C112.461 27.5649 112.508 27.9586 112.508 27.9586L114.352 26.0176C114.352 26.0176 113.473 24.8899 107.652 24.7348C107.652 24.7348 109.72 23.6379 112.725 23.8189C115.731 23.9999 115.921 24.2067 117.198 24.137C118.474 24.0673 121.12 24.7152 121.12 24.7152C121.12 24.7152 122.476 24.406 122.322 24.7876C122.168 25.1692 123.609 25.793 123.609 25.793C123.609 25.793 124.429 25.65 124.203 26.0503C123.977 26.4507 125.038 26.6611 125.038 26.6611C125.038 26.6611 123.633 26.9147 124.084 27.1148C124.535 27.3148 126.335 27.4721 125.655 27.6754C124.974 27.8787 125.485 28.3492 123.181 28.8456C120.877 29.342 113.119 30.3405 113.119 30.3405V30.3405Z" fill="#2F2E41"/>
<path d="M119.035 66.7363L118.951 66.712L95.3803 59.8638C93.0988 59.2011 91.9943 58.2963 92.3498 57.3817L93.5793 54.2175L105.517 54.8245L105.973 56.8193L126.023 65.9135L119.035 66.7363Z" fill="#FFB6B6"/>
<path d="M121.899 71.6757C121.519 71.6757 121.143 71.6486 120.801 71.5955C119.971 71.4665 119.513 71.2036 119.66 70.9413L120.48 69.4904L116.249 66.9269L117.365 65.9909L123.753 65.8917L125.882 65.2963L128.267 65.4123C129.693 65.4816 130.881 65.7294 131.525 66.092C132.169 66.4547 132.158 66.8689 131.494 67.2287L123.921 71.3316C123.636 71.4856 123.153 71.5981 122.56 71.6481C122.342 71.6666 122.12 71.6757 121.899 71.6757Z" fill="#2F2E41"/>
<path d="M109.926 47.582L105.35 55.6535L83.1741 58.6065L79.6541 50.7319L109.926 47.582Z" fill="#2F2E41"/>
<path d="M97.2111 64.374L97.1272 64.3497L73.5563 57.5015C71.2749 56.8388 70.1704 55.934 70.5258 55.0194L71.7554 51.8552L83.6928 52.4622L84.1493 54.457L104.2 63.5512L97.2111 64.374Z" fill="#FFB6B6"/>
<path d="M100.075 69.3133C99.695 69.3133 99.3193 69.2862 98.9766 69.233C98.1468 69.104 97.6886 68.8411 97.8364 68.5789L98.6559 67.128L94.425 64.5645L95.5408 63.6284L101.929 63.5292L104.058 62.9338L106.443 63.0499C107.869 63.1192 109.057 63.367 109.701 63.7296C110.345 64.0922 110.334 64.5065 109.67 64.8662L102.097 68.9692C101.813 69.1232 101.329 69.2356 100.736 69.2857C100.518 69.3042 100.296 69.3133 100.075 69.3133Z" fill="#2F2E41"/>
<path d="M84.701 44.8782L82.224 46.7623L71.1003 51.8427C70.7734 51.9918 70.7208 52.1703 70.9559 52.3325C71.191 52.4946 71.6733 52.6124 72.279 52.6559L96.8289 54.4162L108.194 49.9533C111.436 48.6801 113.113 47.1217 112.924 45.5602L84.701 44.8782Z" fill="#2F2E41"/>
<path d="M110.039 46.7946H81.8675L81.8833 46.7413L85.4401 34.6858C85.9062 33.1058 88.8281 31.6746 93.4563 30.7591L93.5052 30.7495L112.761 30.9489L108.581 41.8147L114.14 44.9445C114.85 45.3442 114.772 45.8094 113.931 46.1887C113.09 46.5681 111.635 46.7946 110.039 46.7946V46.7946Z" fill="#6C63FF"/>
<path d="M102.335 33.1748C100.727 33.1749 99.1591 32.9924 98.0003 32.6502L85.7862 29.0421C84.1799 28.5677 83.7578 27.8757 84.7106 27.2791L93.8365 21.5635C93.6364 21.1067 93.8293 20.6372 94.3947 20.2049C95.062 19.6723 96.1637 19.2172 97.4967 18.9236C98.8535 18.6247 100.289 18.5277 101.541 18.6505C104.095 18.9006 105.043 20.0053 103.656 21.1129C103.134 21.5485 102.237 21.949 101.062 22.2711L93.0826 27.6738L105.016 30.0009C107.126 30.3105 108.371 30.9256 108.246 31.603C108.126 32.2574 106.719 32.8131 104.574 33.0533C103.844 33.1351 103.085 33.1748 102.335 33.1748Z" fill="#FFB6B6"/>
<path d="M14.1013 22.5098C17.1858 23.5425 18.383 24.9087 19.2058 26.2344C19.5066 26.7191 19.7698 27.2055 19.9952 27.6933C20.8366 29.5142 21.1195 31.4147 18.8455 33.1371C18.2696 33.5733 17.6859 34.1609 19.0603 34.4226C20.1521 34.6305 21.7493 34.4147 22.3438 34.0848C22.9383 33.755 22.82 33.3642 22.6876 32.9967C21.2407 33.4313 21.6922 34.2359 23.5455 34.5257C25.3987 34.8155 28.0866 34.5017 28.6529 33.9294C28.9479 34.54 31.0906 35.0345 33.2904 34.9997C35.4902 34.9649 37.4197 34.406 37.4667 33.79C36.3261 34.1289 36.8901 34.7426 38.3059 34.9872C39.7216 35.2317 41.6088 35.163 43.061 34.9357C44.5131 34.7085 45.6248 34.3469 46.7045 33.9928C45.281 34.2387 44.9477 34.8611 46.0512 35.2129C47.1547 35.5646 49.4049 35.5532 50.4621 35.1905C51.3333 34.8916 51.3287 34.4553 50.9035 34.0885C50.4784 33.7217 49.6958 33.3968 49.1065 33.0482C46.4076 31.4517 47.9973 29.5584 50.227 27.9063C52.4567 26.2542 55.333 24.5927 55.0922 22.8282" fill="white"/>
<path d="M13.9146 22.562C16.1765 23.3265 17.4085 24.2731 18.215 25.228C19.0888 26.2627 19.6338 27.328 20.0187 28.385C20.4081 29.4547 20.5372 30.5436 19.9571 31.6099C19.6773 32.1242 19.2252 32.6285 18.591 33.1175C18.1536 33.4548 17.6262 33.8789 18.1664 34.2305C18.8034 34.6449 20.5872 34.6513 21.7307 34.4022C23.2551 34.0701 23.1237 33.4786 22.9516 32.9968C22.9307 32.9384 22.6675 32.8926 22.5009 32.9446C21.3112 33.3152 21.2777 33.9041 22.3019 34.306C23.3876 34.7319 25.4021 34.8088 27.0119 34.5759C27.915 34.4452 28.617 34.2228 28.9075 33.9491H28.3983C28.751 34.5998 31.0385 35.1304 33.4123 35.0711C35.7362 35.0131 37.6446 34.4386 37.7307 33.7901C37.7389 33.7279 37.4319 33.6904 37.28 33.7379C36.5122 33.978 36.4292 34.3149 36.8574 34.6063C37.3308 34.9284 38.353 35.1385 39.5724 35.1961C42.7095 35.3442 45.0522 34.6479 46.8912 34.045C47.0743 33.985 46.8387 33.8806 46.5713 33.9291C45.3958 34.1424 44.8776 34.5673 45.2468 34.9426C45.6348 35.3372 47.0118 35.5692 48.4404 35.5414C50.0468 35.5102 51.1877 35.1806 51.4031 34.7402C51.6641 34.2065 50.6874 33.7311 49.8222 33.2785C45.7081 31.126 49.3373 28.7505 52.2309 26.6732C53.9426 25.4444 55.519 24.1652 55.3562 22.8282C55.3446 22.7335 54.8166 22.733 54.8282 22.8282C55.0985 25.0488 50.6465 26.9929 48.5694 29.0688C47.5839 30.0538 47.0336 31.1048 47.7458 32.1193C48.1001 32.6239 48.166 33.1544 49.0301 33.6046C49.8457 34.0294 51.3795 34.4651 50.669 34.9498C50.0089 35.4001 47.7998 35.5451 46.4732 35.2262C45.2079 34.9221 45.4786 34.3032 46.8378 34.0566L46.5179 33.9406C44.9136 34.4665 43.6273 34.3979 40.9342 34.3921C39.7754 34.3895 38.0541 34.9254 37.4855 34.6339C37.0027 34.3864 36.9522 34.0615 37.6533 33.8423L37.2027 33.7901C37.1262 34.3664 35.3711 34.8912 33.2904 34.926C31.1684 34.9614 29.2209 34.4881 28.9075 33.9099C28.8663 33.8338 28.4665 33.8457 28.3983 33.9099C27.8376 34.4382 25.3652 34.7371 23.6322 34.4544C21.942 34.1788 21.5813 33.4518 22.8742 33.049L22.4235 32.9968C22.5822 33.4408 22.7834 34.0259 21.2727 34.3142C20.6996 34.4235 19.9256 34.4779 19.2912 34.3762C18.6728 34.2771 19.4543 33.9891 19.4622 33.8015C19.48 33.3789 19.2599 33.068 19.6724 32.6692C20.1652 32.1927 20.4822 31.703 20.6682 31.21C21.0477 30.2038 20.8675 29.1871 20.4701 28.1836C20.0757 27.1874 19.5592 26.1853 18.7411 25.2088C17.9128 24.2203 16.6266 23.248 14.288 22.4576C14.0712 22.3843 13.6995 22.4893 13.9146 22.562H13.9146Z" fill="#3F3D56"/>
<path d="M34.5982 23.7693C23.8477 23.7693 12.4222 23.2691 12.4222 22.3421C12.4222 21.415 23.8477 20.9148 34.5982 20.9148C45.3486 20.9148 56.7741 21.415 56.7741 22.3421C56.7741 23.2691 45.3486 23.7693 34.5982 23.7693ZM34.5982 21.1117C21.9444 21.1117 13.1262 21.7601 13.1262 22.3421C13.1262 22.924 21.9444 23.5725 34.5982 23.5725C47.2519 23.5725 56.0701 22.924 56.0701 22.3421C56.0701 21.7601 47.2519 21.1117 34.5982 21.1117Z" fill="#3F3D56"/>
<path d="M9.98572 25.152C9.87537 25.152 9.76469 25.1503 9.65434 25.1467L2.81614 24.9262C1.37136 24.8796 0.255549 24.5379 0.220486 24.1312L0.000831788 21.5854C-0.0191055 21.3515 0.320176 21.1259 0.93136 20.9662C1.54289 20.8066 2.37201 20.7276 3.20423 20.7491L13.4634 21.0159C14.6208 21.0461 15.6064 21.2648 15.9742 21.5732L17.6225 22.956C18.0033 23.2757 17.6341 23.6344 16.704 23.8485L11.8543 24.9651C11.3287 25.0861 10.6622 25.152 9.98572 25.152Z" fill="#3F3D56"/>
</g>
<defs>
<clipPath id="clip0_3_106">
<rect width="132" height="71.6757" fill="white"/>
</clipPath>
</defs>
</svg>
