<svg width="162" height="67" viewBox="0 0 162 67" fill="none" xmlns="http://www.w3.org/2000/svg">
<g clip-path="url(#clip0_3_83)">
<path d="M93.4479 38.8695L95.5185 62.4095L100.693 62.0407L103.527 37.7063L93.4479 38.8695Z" fill="#FFB6B6"/>
<path d="M101.372 60.9857C101.372 60.9857 104.251 65.4596 100.487 65.7228C96.7228 65.986 85.8737 67.1702 85.8737 65.4596C85.8737 63.749 91.409 63.0911 91.409 63.0911C91.409 63.0911 94.0659 60.591 95.173 60.8541C96.28 61.1173 97.1657 62.5648 99.1584 62.17C101.151 61.7752 101.372 60.9857 101.372 60.9857Z" fill="#2F2E41"/>
<path d="M87.3128 12.6281H93.7337V7.75943L87.3128 7.75943V12.6281Z" fill="#FFB6B6"/>
<path d="M90.3573 10.2596C94.4231 10.2596 97.7192 8.30074 97.7192 5.88438C97.7192 3.46802 94.4231 1.50917 90.3573 1.50917C86.2914 1.50917 82.9953 3.46802 82.9953 5.88438C82.9953 8.30074 86.2914 10.2596 90.3573 10.2596Z" fill="#FFB6B6"/>
<path d="M98.4941 23.7471L99.3798 19.4047L103.587 19.5363L104.472 24.6681L107.958 34.1716L107.966 34.1703L107.962 34.1711L108.975 36.7663C109.593 37.2221 110.019 37.7593 110.216 38.333C110.743 39.7646 109.928 41.0862 108.395 41.2855C106.863 41.4848 105.193 40.4861 104.667 39.0549C104.443 38.4845 104.453 37.8905 104.694 37.3228L103.749 35.3584L98.4941 23.7471Z" fill="#FFB6B6"/>
<path d="M86.87 11.1806H94.6194L102.147 13.5492L99.4904 23.0233L102.59 28.9446C102.59 28.9446 85.9843 31.9711 80.8919 30.6552L83.106 23.0233L81.5561 12.8912L86.87 11.1806Z" fill="#6C63FF"/>
<path d="M100.708 13.615C100.708 13.615 103.365 13.0886 103.808 14.0097C104.251 14.9308 105.358 20.4574 105.358 20.4574L98.7155 20.589L100.708 13.615Z" fill="#6C63FF"/>
<path d="M64.4396 30.9294C64.1712 30.9294 63.9095 30.9172 63.6581 30.8925C62.6334 30.7919 61.8968 30.4962 61.5839 30.0599C61.271 29.6237 61.422 29.1032 62.0094 28.5942C62.5862 28.0944 63.5183 27.6634 64.6339 27.3809C65.5377 27.1434 66.5365 27.0355 67.5226 27.0675L76.6914 24.2315L77.3563 20.1484L82.43 18.9148L83.1353 24.4689C83.2536 25.4007 82.3569 26.2666 80.9044 26.6238L69.3323 29.5842C68.6876 30.0307 67.8639 30.3844 66.9485 30.6075C66.1122 30.8194 65.2453 30.9294 64.4396 30.9294H64.4396Z" fill="#FFB6B6"/>
<path d="M83.4382 12.8254C83.4382 12.8254 79.0099 11.9043 77.6815 14.7992C76.353 17.6941 76.7958 20.3258 76.7958 20.3258L84.3238 19.931L83.4382 12.8254Z" fill="#6C63FF"/>
<path d="M59.1759 23.6813C59.1759 24.9918 60.9649 26.0551 63.1701 26.0551C64.3546 26.0551 65.4173 25.7485 66.1482 25.2629C66.1482 25.2629 66.1503 25.2616 66.1525 25.2616C66.6286 24.9444 66.9629 24.5497 67.0956 24.1129C67.1134 24.0682 67.1244 24.022 67.1333 23.9748C67.1534 23.8839 67.1622 23.7918 67.1644 23.6971V23.6813C67.1644 22.3707 65.3775 21.3075 63.1701 21.3075C61.7022 21.3075 60.4178 21.7785 59.7249 22.4812C59.6141 22.5904 59.5212 22.7062 59.4459 22.8272C59.271 23.0917 59.1759 23.3799 59.1759 23.6813Z" fill="#6C63FF"/>
<path d="M59.4459 22.8273C59.6606 22.7891 59.8998 22.7299 60.1612 22.647C60.2518 22.6193 60.3227 22.5931 60.3869 22.5694C60.5199 22.5221 60.5906 22.497 60.7236 22.4865C61.0533 22.4615 61.339 22.5681 61.4609 22.6128C61.835 22.7536 62.0032 22.951 62.1649 23.1431C62.2534 23.2484 62.4151 23.4708 62.486 23.7721C62.528 23.947 62.5148 24.0406 62.5014 24.1247C62.4882 24.2194 62.4771 24.3089 62.539 24.4563C62.7117 24.855 63.1879 25.1116 63.4558 25.2287C63.9008 25.4235 64.368 25.5209 64.8461 25.5209C64.9081 25.5209 64.968 25.5195 65.0277 25.5169C65.2714 25.5051 65.7274 25.4537 66.1482 25.2629C66.1482 25.2629 66.1503 25.2616 66.1525 25.2616C66.6286 24.9444 66.9629 24.5497 67.0956 24.1129C67.0956 24.1024 67.0935 24.0931 67.0913 24.0839C67.0825 24.0577 67.0691 24.0024 67.0913 23.9826C67.0957 23.9826 67.1045 23.9799 67.1333 23.9748C67.1534 23.8839 67.1623 23.7918 67.1644 23.6971C66.8965 23.734 66.8057 23.776 66.7482 23.8168C66.5999 23.9274 66.6375 24.0655 66.6507 24.1168C66.7171 24.3734 66.3784 24.8023 65.9445 25.0235C65.5812 25.2063 65.1561 25.2458 64.9901 25.2537C64.3369 25.2866 63.872 25.084 63.7191 25.0169C63.4977 24.9208 63.1059 24.7103 62.9686 24.3919C62.9243 24.2865 62.931 24.2313 62.9442 24.1471C62.9576 24.0537 62.973 23.9392 62.9243 23.7352C62.8447 23.397 62.6609 23.1457 62.5613 23.0246C62.3885 22.822 62.176 22.5694 61.6955 22.3905C61.5472 22.3351 61.1552 22.1904 60.6682 22.226C60.4423 22.2431 60.3095 22.2904 60.1567 22.3443C60.0991 22.3654 60.0349 22.3891 59.9551 22.4141C59.8732 22.4391 59.7958 22.4628 59.7249 22.4812C59.6142 22.5904 59.5212 22.7062 59.4459 22.8273Z" fill="#F2F2F2"/>
<path d="M107.529 41.7863L104.724 41.3797L110.223 30.5422L109.361 28.298L115.391 29.1932L112.469 31.1172L107.529 41.7863Z" fill="#3F3D56"/>
<path d="M122.454 24.613C124.336 21.194 122.469 17.7629 118.285 16.9497C114.101 16.1364 109.184 18.2489 107.302 21.6679C105.421 25.0869 107.287 28.518 111.471 29.3312C115.655 30.1445 120.573 28.0321 122.454 24.613ZM121.612 24.4494C119.94 27.4886 115.569 29.3663 111.85 28.6434C108.131 27.9205 106.472 24.8707 108.144 21.8315C109.817 18.7923 114.188 16.9147 117.907 17.6376C121.626 18.3605 123.285 21.4102 121.612 24.4494Z" fill="#3F3D56"/>
<path d="M97.4888 5.88705L98.7664 7.8875L101.86 11.1861C105.077 14.6152 106.479 18.5409 105.884 22.4508V22.4508L97.6713 22.2107L96.7207 20.6114C94.3235 16.5782 93.4425 12.3046 93.7393 8.03086C93.8813 5.98591 92.3797 4.43297 89.0841 3.41716L97.4888 5.88705Z" fill="#2F2E41"/>
<path d="M98.3834 7.3647L94.8408 5.39092C94.8408 5.39092 90.1912 4.46983 88.1985 3.68031C86.9377 3.18078 85.0564 3.73479 83.8446 4.20913C83.0666 4.51365 82.0721 4.54139 81.2543 4.27628C80.6675 4.08606 80.4102 3.66621 80.6538 3.29628V3.29628C81.5579 1.9232 83.9994 1.13961 86.4272 1.44337H86.4272L88.1745 0.701648C89.9765 -0.0633226 92.3197 -0.213853 94.3552 0.304586L95.501 0.596435C96.6583 0.891195 97.6416 1.38412 98.3256 2.01235V2.01235C99.2151 2.8293 99.5381 3.81911 99.227 4.77443L98.3834 7.3647V7.3647Z" fill="#6C63FF"/>
<path d="M78.5849 39.2103L76.5444 62.7512L81.7552 62.7027L88.8129 38.6734L78.5849 39.2103Z" fill="#FFB6B6"/>
<path d="M101.884 27.948C101.884 27.948 106.312 32.0271 105.869 37.8168C105.869 37.8168 93.4704 42.4223 77.9716 39.659C77.9716 39.659 79.5214 31.5008 81.5141 30.1849L101.884 27.948Z" fill="#2F2E41"/>
<path d="M82.7739 60.9857C82.7739 60.9857 85.6523 65.4596 81.8883 65.7228C78.1243 65.986 67.2751 67.1702 67.2751 65.4596C67.2751 63.749 72.8104 63.0911 72.8104 63.0911C72.8104 63.0911 75.4674 60.591 76.5744 60.8541C77.6815 61.1173 78.5671 62.5648 80.5598 62.17C82.5525 61.7752 82.7739 60.9857 82.7739 60.9857Z" fill="#2F2E41"/>
</g>
<defs>
<clipPath id="clip0_3_83">
<rect width="161.5" height="66.1622" fill="white" transform="scale(1.0031)"/>
</clipPath>
</defs>
</svg>
