<svg width="20" height="26" viewBox="0 0 20 26" fill="none" xmlns="http://www.w3.org/2000/svg">
<path d="M9.91495 8.72854L7.8472 10.5838C8.11864 11.52 8.50054 12.4206 8.98484 13.2666C9.48889 14.1067 10.0953 14.8811 10.7901 15.5719L13.4679 14.7468C14.9681 14.2842 16.6058 14.7593 17.6034 15.9469L19.1286 17.7622C19.7461 18.4909 20.0557 19.4313 19.9917 20.3844C19.9278 21.3374 19.4954 22.2281 18.786 22.8678C16.2982 25.1381 12.4678 25.9057 9.59991 23.6529C7.07942 21.6683 4.94679 19.2356 3.30913 16.477C1.66789 13.7314 0.569506 10.696 0.0737353 7.53589C-0.476333 3.98045 2.12649 1.1351 5.37189 0.16498C7.30713 -0.415092 9.37238 0.580031 10.0825 2.43526L10.9201 4.62303C11.4701 6.06321 11.0751 7.68591 9.91495 8.72604V8.72854Z" fill="#4A76C6"/>
</svg>
