<svg width="15" height="15" viewBox="0 0 15 15" fill="none" xmlns="http://www.w3.org/2000/svg">
<path d="M3.44531 10.4062L4.57031 9.25781C4.17188 9.16406 3.79688 9.02344 3.46875 8.78906L3.44531 10.4062ZM7.10156 1.54687L5.97656 2.69531C6.375 2.78906 6.75 2.92969 7.07812 3.16406L7.10156 1.54687ZM0.84375 7.80469L2.46094 7.78125C2.25 7.45312 2.08594 7.07812 1.99219 6.67969L0.84375 7.80469ZM9.70312 4.14844L8.08594 4.17187C8.29688 4.5 8.46094 4.875 8.55469 5.27344L9.70312 4.14844ZM0.84375 4.14844L1.99219 5.27344C2.08594 4.875 2.22656 4.5 2.46094 4.17187L0.84375 4.14844ZM9.70312 7.80469L8.55469 6.67969C8.46094 7.07812 8.32031 7.45312 8.08594 7.78125L9.70312 7.80469ZM3.44531 1.54687L3.46875 3.16406C3.79688 2.95312 4.17188 2.78906 4.57031 2.69531L3.44531 1.54687ZM7.10156 10.4062L7.07812 8.78906C6.75 9 6.375 9.16406 5.97656 9.25781L7.10156 10.4062ZM2.50781 7.89844L1.875 9.375L3.35156 8.74219C3.02344 8.50781 2.74219 8.22656 2.50781 7.89844ZM8.03906 4.05469L8.67188 2.57812L7.19531 3.21094C7.52344 3.44531 7.80469 3.72656 8.03906 4.05469ZM1.96875 5.36719L0.46875 5.97656L1.96875 6.58594C1.94531 6.39844 1.92188 6.1875 1.92188 5.97656C1.89844 5.76562 1.92187 5.57812 1.96875 5.36719ZM8.57812 6.58594L10.0781 5.97656L8.57812 5.36719C8.625 5.55469 8.625 5.76562 8.625 5.97656C8.625 6.1875 8.625 6.375 8.57812 6.58594ZM3.35156 3.21094L1.875 2.57812L2.50781 4.05469C2.74219 3.72656 3.02344 3.44531 3.35156 3.21094ZM7.19531 8.74219L8.67188 9.375L8.03906 7.89844C7.80469 8.22656 7.52344 8.50781 7.19531 8.74219ZM5.88281 2.67187L5.27344 1.17188L4.66406 2.67187C4.85156 2.64844 5.0625 2.625 5.27344 2.625C5.48438 2.60156 5.67188 2.625 5.88281 2.67187ZM4.66406 9.28125L5.27344 10.7812L5.88281 9.28125C5.69531 9.30469 5.48438 9.32812 5.27344 9.32812C5.0625 9.32812 4.875 9.32812 4.66406 9.28125Z" fill="#FFCE31"/>
<path d="M5.27344 9.02344C6.95618 9.02344 8.32031 7.65931 8.32031 5.97656C8.32031 4.29382 6.95618 2.92969 5.27344 2.92969C3.59069 2.92969 2.22656 4.29382 2.22656 5.97656C2.22656 7.65931 3.59069 9.02344 5.27344 9.02344Z" fill="#FFCE31"/>
<path d="M4.03125 13.3828C3.79688 13.3828 3.5625 13.3359 3.35156 13.2656C2.46094 12.9609 1.85156 12.1172 1.85156 11.1562C1.85156 10.5234 2.13281 9.89063 2.60156 9.46875C2.71875 9.35156 2.85938 9.25781 3 9.1875L3.14062 8.67188C3.49219 7.38281 4.66406 6.49219 5.97656 6.49219C6.11719 6.49219 6.23438 6.49219 6.39844 6.51562L6.75 6.58594L6.79688 6.46875C7.33594 5.48438 8.34375 4.89844 9.42188 4.89844C11.0859 4.89844 12.4219 6.28125 12.4219 7.96875V8.27344C12.5391 8.32031 12.6797 8.39062 12.7969 8.46094C13.5938 8.92969 14.0859 9.82031 14.0859 10.7578C14.0859 12 13.2656 13.0547 12.0703 13.3359C11.8828 13.3828 11.6719 13.4063 11.4844 13.4063H4.03125V13.3828Z" fill="white"/>
<path d="M9.44531 5.34375C10.8516 5.34375 12 6.51562 12 7.96875V8.17969C11.4141 8.22656 10.875 8.46094 10.4531 8.83594C10.7578 8.64844 11.1328 8.55469 11.5312 8.55469C11.6719 8.55469 11.8125 8.57812 11.9531 8.60156C12.1875 8.64844 12.3984 8.74219 12.6094 8.85938C13.2422 9.23438 13.6875 9.9375 13.6875 10.7578C13.6875 11.7891 12.9844 12.6797 12.0234 12.8906C11.8594 12.9375 11.7188 12.9375 11.5312 12.9375H4.03125C3.84375 12.9375 3.65625 12.9141 3.49219 12.8438C2.78906 12.6094 2.29688 11.9297 2.29688 11.1562C2.29688 10.6172 2.53125 10.1484 2.90625 9.82031C3.07031 9.67969 3.25781 9.5625 3.46875 9.46875C3.65625 9.39844 3.84375 9.375 4.05469 9.375C4.61719 9.375 5.10938 9.65625 5.4375 10.0781H5.46094C5.08594 9.375 4.40625 8.88281 3.58594 8.8125C3.89062 7.73437 4.85156 6.9375 6 6.9375C6.11719 6.9375 6.23438 6.96094 6.35156 6.96094C6.58594 6.98438 6.79688 7.05469 7.00781 7.14844C7.78125 7.5 8.34375 8.25 8.48438 9.14062V9.11719C8.48438 8.10938 7.96875 7.21875 7.21875 6.70312C7.64062 5.88281 8.46094 5.34375 9.44531 5.34375ZM9.44531 4.45312C8.27344 4.45312 7.17188 5.0625 6.53906 6.09375H6.46875C6.28125 6.07031 6.14062 6.04687 5.97656 6.04687C4.47656 6.04687 3.11719 7.07812 2.71875 8.55469L2.60156 8.90625C2.48438 8.97656 2.39063 9.04688 2.29688 9.14062C1.73438 9.63281 1.40625 10.3828 1.40625 11.1562C1.40625 12.3047 2.13281 13.3359 3.21094 13.6875C3.46875 13.7812 3.75 13.8281 4.03125 13.8281H11.5078C11.7422 13.8281 11.9531 13.8047 12.1875 13.7578C13.5703 13.4297 14.5312 12.1875 14.5312 10.7578C14.5312 9.65625 13.9453 8.625 13.0078 8.08594L12.8672 8.01563V7.99219C12.8672 6.02344 11.3438 4.45312 9.44531 4.45312Z" fill="#75D6FF"/>
</svg>
