<svg width="34" height="37" viewBox="0 0 34 37" fill="none" xmlns="http://www.w3.org/2000/svg">
<path d="M16.0841 25.5963H9.25366C9.03511 25.5712 8.83109 25.4653 8.67563 25.2962C8.52016 25.1272 8.42267 24.9052 8.39941 24.6674V5.24782C8.42267 5.01001 8.52016 4.78807 8.67563 4.61903C8.83109 4.44999 9.03511 4.34408 9.25366 4.31897H20.0118C20.2303 4.34425 20.4341 4.45023 20.5894 4.61926C20.7448 4.78828 20.8421 5.01013 20.8654 5.24782V22.2239" stroke="black" stroke-linecap="round" stroke-linejoin="round"/>
<path d="M13.3804 17.6251L16.7946 27.642L13.6637 28.0922C13.344 28.1526 13.0528 28.3302 12.8385 28.5956C12.6069 28.8723 12.104 29.4643 12.4164 29.62L18.5711 32.6817L25.1487 30.1673C25.3207 30.0545 25.4554 29.8852 25.5334 29.6838C25.6115 29.4824 25.6288 29.2593 25.5829 29.0465L24.5671 23.4718C24.5382 23.2671 24.4557 23.0757 24.3294 22.9207C24.2032 22.7657 24.0385 22.6535 23.8552 22.5977L18.3678 21.9471L17.8039 22.3048L15.907 16.7255C15.7518 16.3966 15.4984 16.1349 15.1885 15.9833C14.8785 15.8318 14.5304 15.7994 14.2014 15.8914C13.9018 16.033 13.6564 16.283 13.5068 16.5989C13.3572 16.9149 13.3125 17.2774 13.3804 17.6251V17.6251Z" stroke="black" stroke-linecap="round" stroke-linejoin="round"/>
<path d="M12.8159 20.7177C12.2153 20.3405 11.7252 19.7859 11.4022 19.1181C11.0792 18.4503 10.9367 17.6967 10.991 16.9444C11.0454 16.1921 11.2944 15.4719 11.7092 14.8672C12.1241 14.2625 12.6879 13.7981 13.3352 13.5276C13.9826 13.2572 14.6871 13.1918 15.3672 13.339C16.0473 13.4862 16.6752 13.84 17.1782 14.3595C17.6812 14.8789 18.0387 15.5428 18.2094 16.2742C18.3801 17.0056 18.3569 17.7747 18.1425 18.4923" stroke="black" stroke-linecap="round" stroke-linejoin="round"/>
<rect width="34" height="37" stroke="black"/>
</svg>
