<svg width="169" height="70" viewBox="0 0 169 70" fill="none" xmlns="http://www.w3.org/2000/svg">
<g clip-path="url(#clip0_3_151)">
<path d="M102.445 19.6413L103.369 21.9473L93.4372 22.6491L95.747 19.4408L102.445 19.6413Z" fill="#A0616A"/>
<path d="M127.778 21.1656C129.778 21.5549 130.258 22.9769 128.848 24.3414C128.301 24.8903 127.46 25.3743 126.394 25.7531L124.378 28.0896C123.056 30.8747 120.044 33.8071 115.897 33.5797C110.028 33.258 108.179 30.1615 108.179 30.1615L116.078 28.8203L119.604 25.8695L120.806 24.6656C120.749 24.0684 121.022 23.474 121.602 22.932C123.012 21.5668 125.777 20.7762 127.778 21.1656Z" fill="#A0616A"/>
<path d="M60.5406 65.9793L55.0634 64.2221L55.107 64.1843L85.6225 37.7934L85.68 37.789L110.252 35.9779L115.37 40.926L128.754 49.0939C129.676 49.6566 130.158 50.319 130.147 51.0094L129.931 65.5589L121.629 65.6618L121.617 65.6157L118.721 53.8523C118.51 52.9949 117.485 52.2018 115.91 51.6764L99.5746 46.2288L60.5406 65.9793H60.5406Z" fill="#2F2E41"/>
<path d="M55.9032 64.4073C55.9032 64.4073 53.1315 64.6079 52.2076 65.3097C51.2837 66.0115 48.5119 67.5154 48.5119 67.5154C48.5119 67.5154 46.4331 69.2198 51.2837 69.0193C56.1342 68.8188 57.982 67.9164 57.982 67.9164L60.0608 65.4099L55.9032 64.4073Z" fill="#2F2E41"/>
<path d="M125.89 64.4073C125.89 64.4073 128.661 64.6079 129.585 65.3097C130.509 66.0115 133.281 67.5154 133.281 67.5154C133.281 67.5154 135.36 69.2198 130.509 69.0193C125.659 68.8188 123.811 67.9164 123.811 67.9164L121.732 65.4099L125.89 64.4073Z" fill="#2F2E41"/>
<path d="M88.8177 22.5489L105.217 21.1453L114.456 22.4486L111.916 37.3873L85.6995 37.8385L88.8177 22.5489Z" fill="#6C63FF"/>
<path d="M112.811 22.114L116.384 24.4562L117.213 30.2307L106.603 30.5802L106.889 23.0993L112.811 22.114Z" fill="#6C63FF"/>
<path d="M122.629 27.734L118.336 26.9937L112.878 31.3818L117.863 32.4607L122.629 27.734Z" fill="#A0616A"/>
<path d="M125.621 23.9996C125.323 23.9996 125.024 23.9777 124.739 23.9334C124.052 23.8267 123.493 23.5983 123.208 23.3068L119.951 19.9863C118.725 18.7354 117.316 17.5028 115.764 16.3228L115.084 15.8057C114.616 15.4934 103.536 8.09177 103.009 7.51371C102.612 7.07781 103.799 6.18399 103.85 6.1461L103.864 6.13788C103.89 6.12515 106.548 4.86808 109.746 6.03546C112.887 7.1815 118.173 14.7767 118.396 15.0995L118.539 15.2558C119.843 16.6855 121.491 18.062 123.439 19.3469L127.816 22.2343C128.222 22.5028 128.349 22.8353 128.164 23.1465C127.978 23.4576 127.495 23.7213 126.839 23.8702C126.461 23.9561 126.042 23.9996 125.621 23.9996Z" fill="#3F3D56"/>
<path d="M96.4177 25.0556L101.574 25.1813L111.482 20.6444L115.353 18.6468C115.692 18.0675 116.346 17.5319 117.26 17.0847C119.511 15.952 122.682 15.538 124.342 16.1598C126.002 16.7815 125.523 18.2034 123.272 19.3357C122.387 19.7937 121.261 20.153 119.99 20.3834L119.036 20.9299L108.101 27.601C106.129 28.8047 102.64 29.3494 99.3528 28.967L92.6604 28.1884L96.4177 25.0556Z" fill="#A0616A"/>
<path d="M93.5236 29.5261L85.5663 27.3075C83.0373 26.6023 82.0654 25.221 83.2552 24.023C83.978 23.2954 85.3966 22.75 87.1481 22.5268C88.8973 22.3034 90.7722 22.429 92.2867 22.8716L100.1 25.1544L93.5236 29.5261Z" fill="#6C63FF"/>
<path d="M97.3685 20.4889C101.872 20.4889 105.522 18.9043 105.522 16.9497C105.522 14.9951 101.872 13.4105 97.3685 13.4105C92.8655 13.4105 89.215 14.9951 89.215 16.9497C89.215 18.9043 92.8655 20.4889 97.3685 20.4889Z" fill="#A0616A"/>
<path d="M102.732 20.0046L102.028 19.4955C102.028 19.4955 105.112 18.5933 102.564 18.0697C100.017 17.5461 99.614 16.2658 99.614 16.2658C99.614 16.2658 92.1729 15.3351 92.5749 14.6367C92.9769 13.9384 91.8372 13.4438 93.7141 13.1527C95.5909 12.8616 103.97 13.1521 104.909 13.9959C105.848 14.8397 106.787 17.1674 106.318 17.4875C105.849 17.8076 102.732 20.0046 102.732 20.0046V20.0046Z" fill="#2F2E41"/>
<path d="M100.619 16.0039L93.0439 13.822C93.0439 13.822 83.2564 12.5132 86.9441 15.0153L90.0613 15.2916C90.0613 15.2916 98.5414 16.1495 100.619 16.0039H100.619Z" fill="#6C63FF"/>
<path d="M98.3401 15.5094L106.251 18.0986C106.251 18.0986 110.875 14.5193 103.635 12.7448C96.3948 10.9703 91.8037 13.7493 91.8037 13.7493L93.7145 14.6367L98.3401 15.5094Z" fill="#6C63FF"/>
<path d="M41.4971 9.6655C41.4971 10.7463 43.5159 11.6235 46.0081 11.6235C47.2278 11.6235 48.3342 11.413 49.1448 11.0711C49.9925 10.7152 50.5167 10.2169 50.5167 9.6655C50.5167 8.58467 48.4982 7.7074 46.0081 7.7074C45.2275 7.7074 44.4953 7.79366 43.8554 7.94405C43.7469 7.97009 43.6406 7.99819 43.5366 8.02825C42.562 8.30499 41.8528 8.74108 41.6011 9.25144C41.5688 9.3096 41.5456 9.36873 41.5318 9.4289C41.5086 9.5061 41.4971 9.58531 41.4971 9.6655H41.4971Z" fill="#6C63FF"/>
</g>
<rect width="10.3892" height="24.4975" rx="3" transform="matrix(0.972253 -0.23393 0.787327 0.616536 92.2324 1.85779)" fill="#3F3D56"/>
<defs>
<clipPath id="clip0_3_151">
<rect width="169" height="63.4963" fill="white" transform="translate(0 5.53931)"/>
</clipPath>
</defs>
</svg>
