<svg width="170" height="83" viewBox="0 0 170 83" fill="none" xmlns="http://www.w3.org/2000/svg">
<g clip-path="url(#clip0_4_279)">
<path d="M79.6875 30.1337C80.0417 27.5388 73.7375 28.5966 73.2151 32.7666C72.6927 36.9366 73.525 40.4446 66.9818 39.6836C66.9818 39.6836 73.5427 44.0743 76.1547 39.7064C78.7755 35.3386 79.4042 32.2491 79.6875 30.1337Z" fill="#2F2E41"/>
<path d="M84.9292 38.2835C84.9292 38.2835 79.4042 38.565 78.4036 31.7165C78.4036 31.7165 80.2276 28.4139 86.5141 28.8933C92.8005 29.3727 84.9292 38.2835 84.9292 38.2835Z" fill="#2F2E41"/>
<path d="M85.4427 38.2834C88.4892 38.2834 90.9589 36.1609 90.9589 33.5427C90.9589 30.9245 88.4892 28.802 85.4427 28.802C82.3962 28.802 79.9266 30.9245 79.9266 33.5427C79.9266 36.1609 82.3962 38.2834 85.4427 38.2834Z" fill="#2F2E41"/>
<path d="M102.416 55.6559L103.302 55.4581L102.035 54.6895L102.416 55.6559ZM88.7542 54.8797C88.7542 54.8797 90.2771 55.6179 92.3755 55.3743C94.474 55.1232 92.0391 51.5544 88.7542 54.8797Z" fill="#FFBE55"/>
<path d="M90.9411 56.3104C90.9411 56.3104 90.4187 53.8069 89.8964 51.9654C89.374 50.1239 101.424 52.9926 101.424 52.9926C101.424 52.9926 102.956 54.5145 102.877 56.5158C102.806 58.5247 90.9411 56.3104 90.9411 56.3104ZM101.991 46.8365C101.991 46.8365 107.941 46.5474 108.977 45.9462C111.031 44.7591 110.341 33.771 109.677 32.3404C109.012 30.9022 105.143 29.8521 105.099 28.7031C105.055 27.5541 104.116 28.0182 104.019 28.9466C103.921 29.9282 103.594 31.0849 107.118 32.2948C107.835 32.5383 107.357 41.6393 106.781 42.0502C106.206 42.4611 102.877 42.2556 102.877 42.2556C102.877 42.2556 100.318 46.4713 101.991 46.8365Z" fill="#FFB6B6"/>
<path d="M76.7302 38.9987C76.7302 38.9987 68.0177 34.8592 67.1323 35.0114C63.9359 35.5516 67.0703 39.8586 75.7385 42.91C75.7385 42.91 80.4224 43.0622 76.7302 38.9987Z" fill="#FFB6B6"/>
<path d="M94.2614 64.4222C94.2614 64.4222 93.6328 73.0361 94.0755 73.6982C94.0755 73.6982 81.3963 73.5155 76.1104 75.1364C76.1104 75.1364 73.7198 73.3938 72.613 73.8123C71.5062 74.2308 70.2578 76.8029 68.3807 78.1041C66.5125 79.4053 67.4776 82.1295 68.8234 82.1828C70.1693 82.236 71.5859 77.6019 75.1453 77.7236C78.7047 77.853 93.6062 78.2258 96.8734 77.5486C100.141 76.8789 102.877 65.6169 102.877 65.6169C102.877 65.6169 98.0599 62.7177 94.2614 64.4222Z" fill="#FFB6B6"/>
<path d="M76.7656 75.3646C76.7656 75.3646 76.4735 75.5777 75.9953 75.3722C75.5172 75.1668 72.6573 77.0311 73.6844 78.0888C73.6844 78.0888 71.9224 79.0628 71.3912 79.9227C70.8599 80.7826 69.4609 82.3425 68.0089 82.0153C66.5568 81.6881 66.9375 78.3856 68.0089 77.8377C69.0802 77.2898 71.0813 75.5625 71.5417 74.6797C71.9932 73.797 73.649 73.4166 74.2511 73.5307C75.2073 73.7133 76.7656 75.3646 76.7656 75.3646Z" fill="#2F2E41"/>
<path d="M89.0463 63.8134C89.0463 63.8134 87.488 72.3436 87.8599 73.0361C87.8599 73.0361 75.2604 71.849 69.8239 73.0361C69.8239 73.0361 67.6281 71.1109 66.4859 71.4381C65.3437 71.7653 63.812 74.2232 61.8109 75.3722C59.8099 76.5212 60.474 79.3063 61.8109 79.4737C63.1479 79.6411 65.0516 75.1287 68.5844 75.5396C72.1172 75.9505 86.9125 77.5105 90.2328 77.0996C93.562 76.6887 97.4932 65.7005 97.4932 65.7005C97.4932 65.7005 93.013 62.4208 89.0463 63.8134Z" fill="#FFB6B6"/>
<path d="M102.877 56.5159L103.293 66.3017C103.293 66.3017 99.2109 66.8116 97.4932 66.1495C95.7755 65.4951 102.106 57.2616 102.877 56.5159ZM92.7563 41.0229C92.7563 41.0229 100.787 41.6774 102.877 42.2557C102.877 42.2557 105.161 46.0452 102.292 46.9812L95.138 46.517C95.138 46.517 89.799 43.9754 92.7563 41.0229Z" fill="#6C63FF"/>
<path d="M83.8755 37.4997C83.8755 37.4997 86.9391 39.5466 87.1338 41.0229L82.3349 41.2131L91.012 43.2601L93.8542 41.1751L92.7651 41.0229C92.7651 41.0229 90.1885 36.6778 88.5682 36.2669C86.9391 35.856 84.7255 36.5256 83.8755 37.4997Z" fill="#FFB6B6"/>
<path d="M82.7422 36.2669C82.7422 36.2669 81.6885 36.4343 81.8833 36.9213C82.0781 37.4084 83.9818 37.4921 84.6458 37.5758C84.6458 37.5758 90.0823 39.052 91.0385 35.6049C91.9948 32.1654 87.3198 29.7836 85.5047 30.0271C83.6896 30.2706 86.8417 35.6125 82.7422 36.2669Z" fill="#FFB6B6"/>
<path d="M93.4646 41.137C93.7036 41.0001 98.9542 42.5143 99.751 44.8505C100.229 46.243 100.008 46.2734 101.15 48.6476C102.292 51.0218 103.39 53.7384 103.293 55.4581C103.293 55.4581 94.9432 51.8436 88.7453 54.8798C88.7453 54.8798 89.6396 48.1834 75.7297 42.91C75.7297 42.91 77.6776 42.1339 76.7302 38.9987C76.7302 38.9987 83.8047 40.2239 85.8854 41.0685C88.4088 42.0958 91.4635 42.2784 93.4646 41.137ZM90.9146 56.1278C90.9146 56.1278 98.6885 54.3852 102.877 56.5159C102.877 56.5159 103.842 62.7176 97.75 66.7659C97.75 66.7659 90.8349 65.9897 88.2583 66.4006C88.2583 66.4006 87.6385 60.7772 89.4448 58.8976C91.2599 57.0105 90.9146 56.1278 90.9146 56.1278Z" fill="#6C63FF"/>
<path d="M70.249 37.591C70.249 37.591 64.1484 27.5388 62.3599 27.242C61.076 27.029 64.2635 37.4692 68.1505 38.9987C72.0286 40.5282 70.249 37.591 70.249 37.591Z" fill="#FFB6B6"/>
<path d="M61.7844 28.1552C61.7844 28.1552 60.4563 27.0899 59.4823 25.3778C58.5083 23.6656 60.6599 22.6764 61.2974 23.5058C61.9349 24.3353 62.2448 24.9745 62.5193 25.5376C62.8026 26.1007 62.7849 24.5864 62.5193 24.3048C62.2448 24.0233 62.537 23.4069 63.2896 24.4875C64.0422 25.568 64.4229 29.9967 61.7844 28.1552Z" fill="#FFB6B6"/>
<path d="M69.8771 73.0209C69.8771 73.0209 69.5849 73.234 69.1068 73.0285C68.6287 72.8231 65.7688 74.6874 66.7958 75.7451C66.7958 75.7451 65.0339 76.7191 64.5026 77.579C63.9802 78.4389 62.5724 79.9988 61.1203 79.6716C59.6682 79.3444 60.049 76.0419 61.1203 75.494C62.1917 74.9461 64.1927 73.2188 64.6531 72.3361C65.1047 71.4534 66.7604 71.0729 67.3625 71.187C68.3188 71.3773 69.8771 73.0209 69.8771 73.0209Z" fill="#2F2E41"/>
<path d="M100.247 24.5331C104.399 24.5331 107.764 21.6407 107.764 18.0726C107.764 14.5046 104.399 11.6122 100.247 11.6122C96.0953 11.6122 92.7297 14.5046 92.7297 18.0726C92.7297 21.6407 96.0953 24.5331 100.247 24.5331Z" fill="#6C63FF"/>
<path d="M100.876 23.1101C104.504 23.1101 107.445 20.5821 107.445 17.4638C107.445 14.3455 104.504 11.8175 100.876 11.8175C97.2471 11.8175 94.3057 14.3455 94.3057 17.4638C94.3057 20.5821 97.2471 23.1101 100.876 23.1101Z" fill="#6C63FF"/>
<path d="M95.6516 21.0479L95.6073 21.0098C94.8813 20.3326 94.4474 19.0618 94.4297 19.0085L94.3943 18.8944L94.5359 18.8715C100.194 18.0573 104.258 12.8144 104.302 12.7611L104.382 12.6622L104.488 12.7383C104.497 12.7459 105.064 13.1416 105.542 13.4916C106.037 13.8569 106.392 14.3363 106.409 14.3591L106.427 14.3895V14.4276C106.029 20.0586 95.8286 21.0403 95.7224 21.0479H95.6516ZM94.713 19.0694C94.837 19.389 95.2089 20.2945 95.749 20.8272C96.6078 20.7359 105.754 19.6401 106.161 14.4504C106.082 14.3439 105.763 13.9558 105.365 13.659C105.01 13.4003 104.603 13.1111 104.417 12.9818C103.824 13.7123 99.9724 18.24 94.713 19.0694Z" fill="white"/>
</g>
<defs>
<clipPath id="clip0_4_279">
<rect width="169.65" height="82.0135" fill="white" transform="scale(1.00206)"/>
</clipPath>
</defs>
</svg>
