<svg width="12" height="17" viewBox="0 0 12 17" fill="none" xmlns="http://www.w3.org/2000/svg">
<path d="M10.8227 6.79567C10.8227 10.1316 5.78891 15.8566 5.78891 15.8566C5.78891 15.8566 0.755075 10.1316 0.755075 6.79567C0.755075 5.19361 1.28542 3.65716 2.22945 2.52433C3.17348 1.39149 4.45385 0.755075 5.78891 0.755075C7.12396 0.755075 8.40434 1.39149 9.34836 2.52433C10.2924 3.65716 10.8227 5.19361 10.8227 6.79567V6.79567Z" stroke="#F24E1E" stroke-width="1.5"/>
<path d="M5.78891 7.55099C5.95579 7.55099 6.11584 7.47144 6.23384 7.32984C6.35184 7.18823 6.41814 6.99618 6.41814 6.79592C6.41814 6.59566 6.35184 6.40361 6.23384 6.262C6.11584 6.1204 5.95579 6.04084 5.78891 6.04084C5.62203 6.04084 5.46198 6.1204 5.34398 6.262C5.22597 6.40361 5.15968 6.59566 5.15968 6.79592C5.15968 6.99618 5.22597 7.18823 5.34398 7.32984C5.46198 7.47144 5.62203 7.55099 5.78891 7.55099Z" fill="#F24E1E" stroke="#F24E1E" stroke-width="1.5" stroke-linecap="round" stroke-linejoin="round"/>
</svg>
